<svg width="509" height="421" fill="none" xmlns="http://www.w3.org/2000/svg"><mask id="a" style="mask-type:alpha" maskUnits="userSpaceOnUse" x="4" y="0" width="501" height="413"><path d="M4 0h501v413H4V0z" fill="#C4C4C4"/></mask><g mask="url(#a)"><path d="M225 25.052C141.128-32.22 7.674 32.687 17 169.233c15.902 232.818 178.136 259.862 319.999 232.818 185.636-35.388 228.465-247.755 57.055-232.818C256.493 181.221 329.84 96.639 225 25.051z" fill="#FCDDD4"/><mask id="b" style="mask-type:alpha" maskUnits="userSpaceOnUse" x="-40" y="-27" width="584" height="501"><path d="M224.999 25.052c-83.872-57.27-217.326 7.635-208 144.182C32.9 402.052 195.135 429.096 336.998 402.052c185.636-35.388 228.465-247.754 57.055-232.818-137.561 11.987-64.214-72.594-169.054-144.182z" fill="#FCDDD4"/></mask><g mask="url(#b)"><path opacity=".7" d="M-7.929 40.138C19.702 28.006 84.88 10.525 124.54 37.649c49.576 33.906-103.788 77.74-56.592 103.537 47.197 25.797 135.389-82.595 169.475-63.964 34.087 18.632-86.732 68.339-51.578 94.363 35.154 26.023 138.255-87.837 180.924-66.217 42.668 21.62-102.005 83.821-33.833 121.084" stroke="url(#paint0_linear)" stroke-width="2"/><path d="M162 429.051c0-27.614 22.386-50 50-50h267v110H162v-60z" fill="#F58A6B"/></g><path fill-rule="evenodd" clip-rule="evenodd" d="M49.367 183.676a22.62 22.62 0 013.926 4.178l2.632-3.511c-1.248-1.324-2.464-2.529-3.918-3.67l-2.64 3.003z" fill="#3E1A0B"/><path fill-rule="evenodd" clip-rule="evenodd" d="M57.9 189.808c-1.48-2.665-4.783-3.565-7.417-1.967l-3.49 2.211c-2.634 1.599-3.471 5.14-2.11 7.837 1.48 2.665 4.782 3.565 7.416 1.967l3.49-2.211c2.634-1.599 3.622-5.053 2.111-7.837z" fill="#F69E9F"/><path fill-rule="evenodd" clip-rule="evenodd" d="M199.099 78.245l-61.828 10.189-3.293-19.91c-.328-1.698-1.933-2.926-3.782-2.686l-49.01 8.03c-1.699.328-2.927 1.932-2.687 3.781l3.294 19.91-58.28 9.621c-1.46.264-2.602 1.717-2.339 3.178l39.892 243.154c.263 1.46 1.717 2.601 3.178 2.337l175.618-28.816c1.46-.263 2.602-1.717 2.338-3.177L202.19 80.733c-.058-1.642-1.599-2.633-3.091-2.488z" fill="url(#paint1_linear)"/><path fill-rule="evenodd" clip-rule="evenodd" d="M190.519 109.048L36.187 134.456c-1.341.232-2.276 1.503-2.044 2.844L68.7 347.697c.232 1.341 1.503 2.276 2.845 2.044l154.331-25.408c1.341-.232 2.277-1.503 2.045-2.844l-34.559-210.397c-.232-1.341-1.503-2.276-2.844-2.044z" fill="#F36F49"/><path fill-rule="evenodd" clip-rule="evenodd" d="M190.044 101.591L39.466 126.248c-1.341.232-2.157 1.471-1.926 2.812l33.728 205.39c.231 1.341 1.47 2.157 2.812 1.926l150.665-24.809c1.341-.232 2.157-1.471 1.926-2.812l-33.728-205.39c-.319-1.19-1.558-2.006-2.899-1.774z" fill="#FAFBFC"/><path opacity=".8" d="M184.514 110.472L47.532 133.017a2.271 2.271 0 00-1.745 1.105c-.349.604-.547 1.294-.474 2.04l31.13 189.504a2.274 2.274 0 001.105 1.745c.603.348 1.294.546 2.04.473l137.014-22.426a2.275 2.275 0 001.745-1.105c.348-.604.546-1.295.474-2.041L187.66 112.69a2.276 2.276 0 00-1.106-1.745c-.603-.348-1.294-.546-2.04-.473zm33.204 192.008c.127.477-.015.897-.309 1.231a2.074 2.074 0 01-1.094.676L79.452 326.9c-.476.128-.897-.015-1.23-.308a2.08 2.08 0 01-.677-1.094l-31.16-189.623c-.128-.476.014-.897.307-1.23a2.077 2.077 0 011.095-.676l136.982-22.545c.476-.128.897.014 1.231.308.333.293.548.618.676 1.094l31.042 189.654z" fill="#F58A6B"/><path fill-rule="evenodd" clip-rule="evenodd" d="M106.471 75.384c-2.92.528-4.878 3.22-4.351 6.14.528 2.921 3.221 4.878 6.142 4.35 2.92-.527 4.878-3.22 4.351-6.14-.496-2.801-3.221-4.877-6.142-4.35z" fill="#FAFBFC"/><path fill-rule="evenodd" clip-rule="evenodd" d="M147.594 83.627L70.591 96.224c-1.699.327-2.927 1.932-2.687 3.781l3.589 21.489c.327 1.698 1.932 2.926 3.782 2.686l77.003-12.597c1.698-.327 2.927-1.932 2.686-3.781l-3.501-21.64c-.447-1.666-2.171-2.863-3.869-2.535z" fill="#F58A6B"/><path opacity=".8" fill-rule="evenodd" clip-rule="evenodd" d="M106.151 93.711L76.817 98.51c-1.341.232-2.277 1.503-2.045 2.844l2.79 16.601c.231 1.341 1.502 2.276 2.844 2.044l29.334-4.799c1.342-.232 2.277-1.503 2.045-2.844l-2.789-16.6c-.232-1.342-1.503-2.277-2.845-2.045z" fill="#F36F49"/><path opacity=".2" d="M102.061 148.02l.339 2.066 80.624-13.253-.34-2.066-80.623 13.253zM102.91 153.251l.34 2.067 80.623-13.254-.34-2.066-80.623 13.253zM143.971 151.704l.34 2.067 40.372-6.637-.34-2.067-40.372 6.637zM103.757 158.342l.34 2.067 37.818-6.217-.339-2.067-37.819 6.217zM107.621 182.205l.34 2.067 80.623-13.253-.34-2.067-80.623 13.253zM108.471 187.437l.34 2.067 80.623-13.254-.34-2.067-80.623 13.254zM149.655 185.87l.34 2.067 40.372-6.637-.339-2.067-40.373 6.637zM109.32 192.528l.339 2.066 37.819-6.216-.34-2.067-37.818 6.217zM112.678 212.865l.34 2.067 80.623-13.254-.34-2.066-80.623 13.253zM113.528 218.096l.339 2.067 80.623-13.253-.339-2.067-80.623 13.253zM154.711 216.529l.34 2.067 40.372-6.637-.34-2.066-40.372 6.636zM114.374 223.188l.34 2.067 37.819-6.217-.34-2.067-37.819 6.217zM117.848 244.445l.34 2.067 80.623-13.253-.34-2.067-80.623 13.253zM118.719 249.798l.34 2.067 80.623-13.253-.34-2.067-80.623 13.253zM159.901 248.231l.339 2.067 40.373-6.636-.34-2.067-40.372 6.636zM119.565 254.89l.339 2.067 37.819-6.217-.34-2.067-37.818 6.217zM122.939 275.822l.339 2.067 80.623-13.253-.339-2.067-80.623 13.253zM123.788 281.054l.34 2.067 80.623-13.254-.34-2.067-80.623 13.254zM164.972 279.486l.34 2.067 40.372-6.636-.34-2.067-40.372 6.636zM124.758 286.126l.34 2.066 37.818-6.216-.339-2.067-37.819 6.217zM64.02 148.37l-.984.136.136.984 3.03 18.45.136.984.985-.136 19.794-3.263.984-.137-.136-.984-3.03-18.449-.136-.984-.984.136-19.794 3.263zm21.873 15.442l-17.978 2.903-2.789-16.6 17.858-2.872 2.909 16.569zM69.657 183.214l-.984.136.255.952 3.03 18.45.136.984.984-.136 19.795-3.263.984-.136-.136-.984-3.03-18.45-.136-.984-.984.136-19.914 3.295zm21.872 15.442l-17.858 2.871-2.79-16.6 17.859-2.872 2.79 16.601zM75.15 216.566l-.985.136.136.984 3.03 18.45.136.984.984-.136 19.795-3.263.984-.137-.136-.984-3.03-18.449-.136-.984-.984.136-19.795 3.263zm21.871 15.442l-17.858 2.871-2.79-16.6 17.859-2.872 2.79 16.601zM80.705 250.156l-.984.136.136.984 3.062 18.569.136.984.984-.136 19.794-3.263.985-.136-.137-.984-3.029-18.45-.136-.984-.985.136-19.826 3.144zm21.872 15.442l-17.858 2.872-2.79-16.601 17.858-2.871 2.79 16.6zM86.062 282.524l-.985.137.136.984 3.03 18.449.136.984.984-.136 19.795-3.263.984-.136-.136-.984-3.03-18.45-.136-.984-.984.136-19.794 3.263zm21.84 15.323l-17.858 2.872-2.79-16.601 17.858-2.871 2.79 16.6z" fill="#EE4D47"/><path d="M76.335 157.188l-10.326-6.162-1.165 1.843 11.351 6.653.906.523.523-.906 13.969-22.622-1.811-1.045-13.447 21.716z" fill="#EE4D47"/><path d="M82.228 192.984L71.9 186.822l-1.165 1.843 11.352 6.653.873.404.555-.787 13.937-22.741-1.81-1.045-13.415 21.835zM93.507 261.268l-10.446-6.13-1.046 1.811 11.233 6.685.905.522.523-.905 14.089-22.654-1.843-1.164-13.415 21.835z" fill="#F58A6B"/><path fill-rule="evenodd" clip-rule="evenodd" d="M64.106 367.239a1.946 1.946 0 00-1.395 2.414 1.946 1.946 0 002.415 1.394 1.946 1.946 0 001.395-2.414 1.947 1.947 0 00-2.415-1.394z" fill="#FAFBFC"/><path d="M93.496 358.838a1.478 1.478 0 10-1.212-2.697 1.479 1.479 0 101.212 2.697zM134.28 346.777a1.108 1.108 0 10-.573-2.142 1.108 1.108 0 00.573 2.142z" fill="#FAFBFC"/><path fill-rule="evenodd" clip-rule="evenodd" d="M155.495 342.623c-.953.256-1.476 1.161-1.22 2.113.255.952 1.16 1.475 2.113 1.22.952-.255 1.475-1.161 1.22-2.113-.224-.833-1.161-1.475-2.113-1.22zM187.748 335.384c-.358.096-.532.398-.436.755.095.357.397.531.754.436.358-.096.532-.398.436-.755.024-.389-.397-.531-.754-.436zM254.373 313.578c-.595.159-.825.731-.697 1.207.159.595.731.825 1.207.697.596-.159.825-.731.698-1.207-.009-.508-.613-.857-1.208-.697z" fill="#FAFBFC"/><path d="M365.479 122.052c0-11.046-8.955-20-20-20h-75.48c-11.045 0-20 8.954-20 20v10.402c0 11.046 8.955 20 20 20h95.48v-30.402z" fill="#fff"/><circle r="3.828" transform="matrix(-1 0 0 1 339.32 127.572)" fill="#F4A984"/><circle r="3.828" transform="matrix(-1 0 0 1 323.369 127.572)" fill="#F4A984"/><circle r="3.828" transform="matrix(-1 0 0 1 307.419 127.572)" fill="#F4A984"/><circle r="3.828" transform="matrix(-1 0 0 1 291.469 127.572)" fill="#F4A984"/><circle r="3.828" transform="matrix(-1 0 0 1 275.519 127.572)" fill="#F4A984"/><path d="M216 289.552c-43.6 0-21.5-63-5-94.501 8.833-6.666 30.5-20.099 46.5-20.499 16-.4 26 19.5 29 29.5-1.833.166-3.7 7.8 3.5 37s3.667 44.5 1 48.5h-75z" fill="#402B2B"/><path d="M261.599 274.592c-4.112-7.189-1.028-18.315-1.028-18.315l-12.68 2.568-12.68-2.568s1.542 5.306 1.028 11.126c4.455 5.135 14.737 14.721 25.36 7.189z" fill="url(#paint2_linear)"/><path d="M259.797 260.285c-2.775 1.672-6.282 3.219-10.207 4.406-4.924 1.489-9.615 2.14-13.298 2 .337-5.533-1.081-10.414-1.081-10.414l12.68 2.568 12.68-2.568s-.447 1.613-.774 4.008z" fill="url(#paint3_linear)" style="mix-blend-mode:multiply"/><path d="M216.876 284.691c7.368 6.505 21.933 20.712 31.186 20.712 9.254 0 25.704-13.523 33.072-20.027-3.599-1.369-14.565-5.649-17.136-7.874-.856-.856-1.713-1.883-2.227-2.91-10.624 7.532-20.905-2.054-25.361-7.36-.342 3.766-1.37 7.531-4.284 10.099-2.913 2.396-11.823 5.991-15.25 7.36z" fill="url(#paint4_linear)"/><path d="M282.776 217.422c-1.2-2.225-3.084-2.568-4.284-2.225 0 0-3.427-10.955-5.826-19-8.054-3.766-15.593-7.018-24.675-7.703v-.171h-5.141c-5.654.171-11.309.342-16.792 1.369-1.371.343-2.742.685-4.113.685-1.713 9.072-4.626 24.991-5.826 24.82h-.171c-.172 0-.172 0-.343-.172-1.199-.342-2.57 0-3.77 2.054-2.056 3.766 0 11.298 2.742 13.523 1.371 1.027 2.57 1.883 3.427 2.396 1.371 6.847 3.77 13.351 7.368 17.288 9.425 10.099 18.164 12.325 20.563 12.667h1.028c1.713-.171 11.138-1.883 21.248-12.838 3.598-3.766 6.169-6.504 7.711-16.603 1.028-.514 2.056-1.37 3.77-2.739 3.084-2.054 5.14-9.585 3.084-13.351z" fill="url(#paint5_linear)"/><path d="M247.736 227.052s.132 3.856-.911 5.125c-1.043 1.269-3.022 2.497-3.185 3.446-.191.768.637 2.116 2.082 2.447 1.445.33 1.68.848 1.68.848s-2.667.781-4.335-.992c-1.668-1.772-.406-3.629.816-4.741 1.222-1.112 1.771-1.566 2.293-2.2.673-.658 1.56-3.933 1.56-3.933zM258.066 244.052h-20.702c-.675 0-1.152.655-.881 1.274 1.46 3.335 5.041 8.226 11.017 8.226 5.951 0 9.784-4.852 11.429-8.185.308-.624-.167-1.315-.863-1.315z" fill="#D87C60"/><path fill-rule="evenodd" clip-rule="evenodd" d="M257.976 247.052h-20.609a16.192 16.192 0 01-.883-1.726c-.271-.619.205-1.274.881-1.274h20.701c.696 0 1.172.691.864 1.315a17.814 17.814 0 01-.954 1.685z" fill="#fff"/><path d="M267.598 175.999c25.531 3.252 19.534 34.405 14.565 39.882l-3.663 6.171c-1.833-3.167-5.6-11.9-6-21.5-3.833 2.5-15.3 7.5-30.5 7.5-19 0-24.208 3.145-26 12-4.455-9.928-7.519-30.017 3.447-41.314 15.079-15.748 37.869-19.514 48.151-2.739z" fill="#402B2B"/><path d="M216.019 219.989l.857 7.361s-2.571-1.37-3.085-4.793c-.171-2.054.686-3.423 2.228-2.568zM278.219 219.989l-.857 7.361s2.571-1.37 3.085-4.793c.171-2.054-.514-3.423-2.228-2.568z" fill="#ED8A40"/><path d="M264.685 228.312c0 1.541-1.199 2.91-2.913 2.91-1.542 0-2.913-1.198-2.913-2.91 0-1.54 1.2-2.91 2.913-2.91 1.714 0 2.913 1.37 2.913 2.91zM234.184 231.222a2.912 2.912 0 002.913-2.91 2.912 2.912 0 00-2.913-2.91 2.911 2.911 0 00-2.913 2.91 2.911 2.911 0 002.913 2.91z" fill="#402B2B"/><path d="M226.541 222.912c1.249-1.362 4.905-4.087 9.537-4.087M259.58 218.942c1.847-.08 6.359.578 9.635 3.854" stroke="#402B2B" stroke-width="2"/><path d="M309.065 323.547c.685-18.486-4.969-29.441-13.537-34.063-8.568-4.621-28.787-10.441-29.473-10.612l-18.335 14.549-17.478-14.549c-.685.171-21.419 5.991-29.815 10.612-8.568 4.622-14.223 15.577-13.537 34.063.514 14.892-.515 38.342-.343 55.459h123.032c0-17.117-1.028-40.567-.514-55.459z" fill="url(#paint6_linear)"/><path d="M257.83 285.205l-4.798-2.225-5.484 10.099-5.483-10.099-4.969 2.225 7.197 11.64v82.161h6.682v-82.675l6.855-11.126z" fill="#EE4D47" fill-opacity=".29" style="mix-blend-mode:multiply"/><path d="M236.239 267.232c-.171 4.964 6.855 17.802 6.855 17.802l-12.167 11.81-3.941-17.116s3.941-10.442 9.253-12.496zM259.543 267.232c.171 4.964-7.711 17.973-7.711 17.973l12.852 11.639 3.941-17.288s-3.77-10.27-9.082-12.324zM249.607 299.754a1.9 1.9 0 01-1.885 1.883 1.9 1.9 0 01-1.885-1.883 1.9 1.9 0 011.885-1.882 1.9 1.9 0 011.885 1.882zM249.606 317.214a1.9 1.9 0 01-1.885 1.883 1.9 1.9 0 01-1.885-1.883 1.9 1.9 0 011.885-1.883c1.028 0 1.885.684 1.885 1.883zM249.606 334.331a1.9 1.9 0 01-1.885 1.882 1.9 1.9 0 01-1.885-1.882 1.9 1.9 0 011.885-1.883 1.9 1.9 0 011.885 1.883zM249.606 353.33a1.9 1.9 0 01-1.885 1.883 1.9 1.9 0 01-1.885-1.883 1.9 1.9 0 011.885-1.882 1.9 1.9 0 011.885 1.882z" fill="#fff"/><path d="M189.631 294.619s-18.164 48.784-19.534 56.829c-1.2 8.045 9.081 26.702 13.879 27.387 7.026 1.027 12.68-1.027 19.706-13.009 6.854-11.982 5.655-63.162 5.655-63.162l-19.706-8.045z" fill="url(#paint7_linear)"/><path d="M209.508 297.872s-1.2 58.882-3.77 66.242c-4.113 11.811-14.565 15.063-14.565 15.063h11.652s9.082-5.991 9.938-23.964c.515-10.783-1.37-45.188-2.398-56.657-.343-3.081-.857-.684-.857-.684z" fill="#EE4D47" fill-opacity=".29" style="mix-blend-mode:multiply"/><path d="M213.535 292.315l-19.701-7.951-4.108 10.157 19.701 7.951 4.108-10.157z" fill="#fff"/><path d="M287.989 306.259s-7.026 33.378-7.54 47.072c-.514 13.693 0 25.504 0 25.504l4.969.342s1.2-59.909 2.571-72.918z" fill="#EE4D47" fill-opacity=".29" style="mix-blend-mode:multiply"/><path d="M228.356 260.043c-9.425 0-12.509-4.621-14.394-11.639-.857-3.766-1.199-13.865-1.199-14.207h2.741c0 .171.343 10.27 1.2 13.693 1.713 6.676 4.284 10.099 13.537 9.414l.171 2.739h-2.056zM247.72 166.927c-7.54-.685-24.847-.171-32.729 14.892 0 0 2.056 3.594 4.455 1.198 8.568-7.703 20.563-7.874 27.931-7.874 7.54 0 20.049 0 28.445 7.874 2.57 2.225 4.455-1.198 4.455-1.198-7.711-15.063-25.018-15.577-32.557-14.892z" fill="#fff"/><path d="M288.33 218.62s-.342-10.441-.514-13.351c-.342-5.649-1.199-14.892-3.084-19.856-6.169-16.946-26.217-20.198-36.67-20.198-10.624 0-31.015 3.252-37.184 20.027-1.713 4.793-2.57 13.351-3.084 19.171-.171 3.423-.343 14.036-.343 14.036h2.913s0-10.613.343-14.036c.343-4.451 1.199-10.955 3.427-17.117 5.141-14.549 24.161-16.09 33.414-16.09 9.425 0 28.788 1.541 33.928 16.09 2.399 6.847 3.256 13.865 3.599 18.315.171 2.91.342 13.009.342 13.009h2.913z" fill="url(#paint8_linear)"/><path d="M211.05 216.566h-3.77v16.09h3.77v-16.09z" fill="#fff"/><path d="M217.733 235.737h-4.284c-2.056 0-3.769-1.712-3.769-3.766v-14.72c0-2.054 1.713-3.766 3.769-3.766h4.284c.514 0 .857.342.857.856v20.369c0 .513-.343 1.027-.857 1.027z" fill="url(#paint9_linear)"/><path d="M205.738 234.025h-.171a1.535 1.535 0 01-1.543-1.54v-16.09c0-.856.686-1.541 1.543-1.541h.171c.857 0 1.542.685 1.542 1.541v16.09c0 .856-.685 1.54-1.542 1.54z" fill="url(#paint10_linear)"/><path d="M284.177 232.934h3.77v-16.09h-3.77v16.09z" fill="#fff"/><path d="M277.707 236.079h4.284c2.056 0 3.769-1.712 3.769-3.766v-14.72c0-2.054-1.713-3.766-3.769-3.766h-4.284c-.514 0-.857.342-.857.856v20.369c-.171.514.343 1.027.857 1.027z" fill="url(#paint11_linear)"/><path d="M289.53 234.368h.172c.857 0 1.542-.685 1.542-1.541v-16.09c0-.856-.685-1.54-1.542-1.54h-.172c-.856 0-1.542.684-1.542 1.54v16.09c0 .856.686 1.541 1.542 1.541z" fill="url(#paint12_linear)"/><path d="M238.467 258.331c0 1.712-2.056 3.253-4.798 3.253-2.57 0-4.798-1.37-4.798-3.253s2.056-3.252 4.798-3.252c2.57 0 4.798 1.369 4.798 3.252z" fill="url(#paint13_linear)"/><path fill-rule="evenodd" clip-rule="evenodd" d="M202.654 247.377l.001-.001c1.594-1.492 3.419-2.522 5.173-3.391 3.153-2.04 6.829-4.36 8.192-4.996 2.742-1.369 4.455 1.027.514 4.451a58.86 58.86 0 01-2.877 2.318c2.14-.82 4.034-1.524 4.933-1.805 2.913-.855 4.284 1.883-.343 4.451-1.882 1.044-4.245 2.173-6.387 3.146l.733 2.331s2.057-1.883 2.742-2.396c4.284-2.91 6.511-.514 4.627 2.054-2.057 2.567-5.141 9.928-4.113 15.063.685 3.423.171 8.216-.685 11.982-.857 3.594-6.169 14.207-6.169 14.207l-13.708-4.793s3.084-3.252 2.57-11.126c-.152-2.581-1.18-5.296-2.203-7.997-1.283-3.39-2.558-6.756-2.081-9.805.857-4.792 7.882-12.494 9.082-13.693h-.001z" fill="url(#paint14_linear)"/><path opacity=".3" d="M214.992 267.917c.343-4.279 0-5.135-.343-7.189-.343-2.397.172-5.478-.857-7.703-1.199-2.396-3.084-3.765-6.34-3.081-4.284 1.027-5.997 3.252-5.997 3.252s3.427-1.369 5.141-1.882c2.57-.685 5.14-.514 6.168 2.567.514 1.883.857 4.45 1.2 6.333.171 1.37 1.199 7.361.342 7.532-.856 0-2.741-.514-3.598-3.595-.171.685-.343 5.307-.857 5.307-3.084-.343-3.427-2.739-3.598-5.307 0-1.198-.172-2.91-.514-5.135-1.2 1.883-4.113 3.595-5.312 4.451 1.371 1.198 3.941 4.108 4.969 5.306 1.885 2.225 3.598 5.648 3.941 9.243 4.627-4.45 2.056-9.072 1.885-10.613 1.2 1.37 3.599 2.397 3.77.514z" fill="#EB5046"/><path d="M409.309 267.917c0-2.568-2.057-4.45-4.798-4.45H277.88c-2.57 0-4.798 2.054-4.798 4.45v78.738h136.055v-78.738h.172z" fill="url(#paint15_linear)"/><path d="M278.051 361.547h126.631c2.57 0 4.798-2.054 4.798-4.451v-10.27H273.424v10.27c-.171 2.397 2.057 4.451 4.627 4.451z" fill="#CA3F3A"/><path d="M361.159 359.664H327.23v16.09h33.929v-16.09z" fill="#CA3F3A"/><path d="M365.27 359.664h-33.928v16.09h33.928v-16.09z" fill="url(#paint16_linear)"/><path d="M359.616 374.213h-41.982v4.622h41.982v-4.622z" fill="url(#paint17_linear)"/><path d="M373.324 374.213h-41.982v4.622h41.982v-4.622z" fill="url(#paint18_linear)"/><path d="M416.334 267.917c0-2.568-2.056-4.45-4.797-4.45h-126.46c-2.57 0-4.798 2.054-4.798 4.45v78.738h136.055v-78.738z" fill="url(#paint19_linear)"/><path d="M285.077 361.547h126.631c2.57 0 4.798-2.054 4.798-4.451v-10.27H280.45v10.27c-.171 2.397 1.885 4.451 4.627 4.451z" fill="url(#paint20_linear)"/><path opacity=".2" d="M360.644 297.872a12.28 12.28 0 01-12.338 12.324 12.28 12.28 0 01-12.337-12.324 12.28 12.28 0 0112.337-12.325 12.28 12.28 0 0112.338 12.325z" fill="#fff"/><path d="M245.664 374.213h-29.302v4.451h29.302v-4.451z" fill="url(#paint21_linear)"/><path d="M294.329 374.213h-61.517v4.451h61.517v-4.451z" fill="url(#paint22_linear)"/><g clip-path="url(#clip0)"><path d="M485 345.022h-80v33.931h80v-33.931z" fill="#FCDDD4"/><path fill-rule="evenodd" clip-rule="evenodd" d="M445.445 336.177v.077c.634-1.769 1.905-4.585 4.043-8.785 4.242-8.042 8.977-14.22 8.977-14.22s-2.072 6.865-6.313 14.906c-3.751 7.197-5.805 10.101-6.707 10.541v.41c1.087-1.429 3.479-3.88 7.693-7.715 7.004-6.276 13.909-10.787 13.909-10.787s-4.439 5.786-11.443 12.16c-4.107 3.687-6.829 5.897-8.528 7.03 1.73-1.069 4.42-2.536 8.331-4.48 8.681-4.315 16.572-6.963 16.572-6.963s-6.115 4.413-14.796 8.728c-6.611 3.361-10.19 4.788-11.738 5.061v.295c1.392-.771 4.953-2.007 11.738-3.885 9.568-2.648 17.953-3.824 17.953-3.824s-7.3 3.236-16.868 5.884c-3.12.863-5.61 1.497-7.56 1.939 1.975-.329 4.527-.683 7.757-1.057 10.16-1.275 18.643-1.177 18.643-1.177s-7.99 2.158-18.15 3.335c-8.18 1.026-12.204 1.162-13.513.87v.208h-.987v-.14a5.391 5.391 0 01-.79.14h-2.86c-2.17-.098-5.426-.294-9.963-.882-10.161-1.275-18.151-3.335-18.151-3.335s8.484-.098 18.644 1.177c3.053.354 5.5.681 7.427.981-1.898-.437-4.284-1.048-7.23-1.863-9.667-2.648-16.868-5.884-16.868-5.884s8.385 1.176 17.953 3.824c6.954 1.924 10.521 3.175 11.838 3.941v-.346c-1.492-.25-5.081-1.707-11.837-5.066-8.681-4.315-14.797-8.728-14.797-8.728s7.892 2.648 16.572 6.963c3.667 1.823 6.26 3.225 7.995 4.275-1.728-1.186-4.374-3.35-8.192-6.825-7.004-6.374-11.443-12.16-11.443-12.16s6.905 4.413 13.909 10.787c3.01 2.74 5.091 4.774 6.431 6.233-1.151-1.489-2.938-4.431-5.544-9.371-4.241-8.041-6.313-14.906-6.313-14.906s4.834 6.178 8.977 14.22c2.39 4.639 3.697 7.614 4.242 9.338v-.922c-.53-1.217-.888-4.734-.888-11.75 0-9.023 1.381-16.377 1.381-16.377s1.381 7.354 1.381 16.377c0 7.012-.358 10.529-.887 11.748zm-.987 2.872c-.146-.011-.337-.121-.579-.343.227.27.419.512.579.729v-.386zm0 1.861c-.241-.063-.553-.199-.943-.417.378.251.691.474.943.671v-.254zm.987-.018c.271-.207.604-.44 1.005-.701-.413.246-.746.407-1.005.492v.209zm-.987 2.678c-.318.021-.766-.001-1.362-.073.631.161 1.077.311 1.362.45v-.377zm.987.22c.37-.17.958-.359 1.801-.563-.803.12-1.395.167-1.801.152v.411z" fill="#F37753"/><path d="M439.624 344.728h-18.446c2.861-.196 6.313-.294 9.963-.294 3.551 0 6.412.098 8.483.294zM450.179 344.728h18.446c-2.86-.196-6.313-.392-9.963-.294-3.65.098-6.412.196-8.483.294z" fill="#F37753"/></g><path d="M318 183.052c0-11.046 8.954-20 20-20h112.619c11.045 0 20 8.954 20 20v26.612c0 11.046-8.955 20-20 20H318v-46.612z" fill="#F69477"/><circle opacity=".5" cx="352.571" cy="196.78" r="5.059" fill="#fff"/><circle opacity=".5" cx="373.651" cy="196.78" r="5.059" fill="#fff"/><circle opacity=".5" cx="394.731" cy="196.78" r="5.059" fill="#fff"/><circle opacity=".5" cx="415.811" cy="196.78" r="5.059" fill="#fff"/><circle opacity=".5" cx="436.891" cy="196.78" r="5.059" fill="#fff"/></g><defs><linearGradient id="paint0_linear" x1="201.408" y1="62.118" x2="118.956" y2="212.965" gradientUnits="userSpaceOnUse"><stop stop-color="#F37753"/><stop offset="1" stop-color="#fff" stop-opacity="0"/></linearGradient><linearGradient id="paint1_linear" x1="114.522" y1="28.035" x2="162.127" y2="354.013" gradientUnits="userSpaceOnUse"><stop stop-color="#F7A58D"/><stop offset="1" stop-color="#F58A6B"/></linearGradient><linearGradient id="paint2_linear" x1="262.788" y1="266.548" x2="259.733" y2="232.762" gradientUnits="userSpaceOnUse"><stop stop-color="#FFB3B6"/><stop offset="1" stop-color="#FFC8C1"/></linearGradient><linearGradient id="paint3_linear" x1="235.38" y1="262.589" x2="264.114" y2="272.937" gradientUnits="userSpaceOnUse"><stop stop-color="#FFB3B6" stop-opacity=".31"/><stop offset="1" stop-color="#FFC8C1"/></linearGradient><linearGradient id="paint4_linear" x1="288.363" y1="320.46" x2="282.234" y2="257.259" gradientUnits="userSpaceOnUse"><stop stop-color="#FFB3B6"/><stop offset="1" stop-color="#fff"/></linearGradient><linearGradient id="paint5_linear" x1="286.873" y1="253.908" x2="280.989" y2="203.279" gradientUnits="userSpaceOnUse"><stop stop-color="#FFB3B6"/><stop offset="1" stop-color="#FFC8C1"/></linearGradient><linearGradient id="paint6_linear" x1="248.053" y1="255.693" x2="248.053" y2="381.748" gradientUnits="userSpaceOnUse"><stop stop-color="#F4A984"/><stop offset="1" stop-color="#EE4D47"/></linearGradient><linearGradient id="paint7_linear" x1="189.709" y1="275.072" x2="189.709" y2="381.379" gradientUnits="userSpaceOnUse"><stop stop-color="#F4A984"/><stop offset="1" stop-color="#EE4D47"/></linearGradient><linearGradient id="paint8_linear" x1="247.891" y1="152.853" x2="247.891" y2="220.082" gradientUnits="userSpaceOnUse"><stop stop-color="#F4A984"/><stop offset="1" stop-color="#EE4D47"/></linearGradient><linearGradient id="paint9_linear" x1="214.135" y1="208.334" x2="214.135" y2="236.346" gradientUnits="userSpaceOnUse"><stop stop-color="#F4A984"/><stop offset="1" stop-color="#EE4D47"/></linearGradient><linearGradient id="paint10_linear" x1="205.652" y1="210.417" x2="205.652" y2="234.55" gradientUnits="userSpaceOnUse"><stop stop-color="#F4A984"/><stop offset="1" stop-color="#EE4D47"/></linearGradient><linearGradient id="paint11_linear" x1="281.288" y1="208.676" x2="281.288" y2="236.688" gradientUnits="userSpaceOnUse"><stop stop-color="#F4A984"/><stop offset="1" stop-color="#EE4D47"/></linearGradient><linearGradient id="paint12_linear" x1="289.616" y1="210.759" x2="289.616" y2="234.892" gradientUnits="userSpaceOnUse"><stop stop-color="#F4A984"/><stop offset="1" stop-color="#EE4D47"/></linearGradient><linearGradient id="paint13_linear" x1="233.669" y1="253.573" x2="233.669" y2="261.762" gradientUnits="userSpaceOnUse"><stop stop-color="#F4A984"/><stop offset="1" stop-color="#EE4D47"/></linearGradient><linearGradient id="paint14_linear" x1="207" y1="292.552" x2="229.5" y2="208.552" gradientUnits="userSpaceOnUse"><stop stop-color="#FFB3B6"/><stop offset=".239" stop-color="#FFC5C7"/><stop offset="1" stop-color="#fff"/></linearGradient><linearGradient id="paint15_linear" x1="322.105" y1="514.315" x2="322.105" y2="29.243" gradientUnits="userSpaceOnUse"><stop stop-color="#FFEDBA"/><stop offset=".423" stop-color="#F16D5E"/><stop offset=".652" stop-color="#EE4D47"/></linearGradient><linearGradient id="paint16_linear" x1="343.551" y1="408.182" x2="343.551" y2="314.361" gradientUnits="userSpaceOnUse"><stop stop-color="#FFEDBA"/><stop offset="1" stop-color="#EE4D47"/></linearGradient><linearGradient id="paint17_linear" x1="332.741" y1="396.324" x2="332.741" y2="369.824" gradientUnits="userSpaceOnUse"><stop stop-color="#FFEDBA"/><stop offset="1" stop-color="#EE4D47"/></linearGradient><linearGradient id="paint18_linear" x1="346.449" y1="388.149" x2="346.449" y2="361.201" gradientUnits="userSpaceOnUse"><stop stop-color="#FFEDBA"/><stop offset="1" stop-color="#EE4D47"/></linearGradient><linearGradient id="paint19_linear" x1="329.24" y1="401.093" x2="329.24" y2="184.459" gradientUnits="userSpaceOnUse"><stop stop-color="#FFEDBA"/><stop offset="1" stop-color="#EE4D47"/></linearGradient><linearGradient id="paint20_linear" x1="329.405" y1="391.215" x2="329.405" y2="305.379" gradientUnits="userSpaceOnUse"><stop stop-color="#FFEDBA"/><stop offset="1" stop-color="#EE4D47"/></linearGradient><linearGradient id="paint21_linear" x1="226.907" y1="395.505" x2="226.907" y2="369.986" gradientUnits="userSpaceOnUse"><stop stop-color="#FFEDBA"/><stop offset="1" stop-color="#EE4D47"/></linearGradient><linearGradient id="paint22_linear" x1="254.95" y1="374.184" x2="254.95" y2="354.769" gradientUnits="userSpaceOnUse"><stop stop-color="#FFEDBA"/><stop offset="1" stop-color="#EE4D47"/></linearGradient><clipPath id="clip0"><path fill="#fff" transform="translate(405 308.052)" d="M0 0h80v71H0z"/></clipPath></defs></svg>