<svg width="1771" height="973" fill="none" xmlns="http://www.w3.org/2000/svg"><path d="M1671 198H0v775h1771V298c0-55.228-44.77-100-100-100z" fill="#0F264C"/><mask id="a" style="mask-type:alpha" maskUnits="userSpaceOnUse" x="0" y="192" width="1771" height="781"><path d="M1671 192H0v781h1771V292c0-55.228-44.77-100-100-100z" fill="#0F264C"/></mask><g mask="url(#a)"><path opacity=".2" d="M-273.256 569.507c61.99-74.839 226.18-220.775 387.019-205.807 201.049 18.709-180.944 369.517 0 369.517s266.39-430.324 397.072-430.324c130.681 0-145.761 318.066 0 336.775 145.76 18.71 266.389-449.034 427.228-453.711 160.837-4.677-165.865 383.55 95.497 383.55" stroke="url(#paint0_linear)" stroke-width="2"/></g><path d="M572.05 194.116a108.17 108.17 0 00-11.008-29.258 67.599 67.599 0 00-2.269-3.841c-5.788-9.602-12.937-18.188-21.221-25.643-1.021-1.017-2.156-1.921-3.291-2.825a109.943 109.943 0 00-29.846-17.622c-1.361-.565-2.723-1.017-4.085-1.469-10.894-3.841-22.696-5.987-34.838-6.213H461.179c-12.256.226-23.944 2.372-34.838 6.213-1.362.452-2.724 1.017-4.086 1.469a109.937 109.937 0 00-29.845 17.622c-1.135.904-2.27 1.921-3.291 2.825-8.284 7.455-15.547 16.041-21.221 25.643-.794 1.243-1.475 2.598-2.27 3.841a108.169 108.169 0 00-11.007 29.258c-.341 1.468-.568 2.937-.908 4.406a109.168 109.168 0 00-1.702 19.317h222.536c0-6.552-.568-13.104-1.703-19.317-.227-1.469-.454-2.938-.794-4.406z" fill="#0F264C"/><path d="M144.021 203.744c0 22.908 13.189 41.416 29.41 41.416h29.411c16.221 0 29.259-18.66 29.259-41.416 0-22.908-13.189-41.416-29.411-41.416h-29.259c-16.373 0-29.41 18.66-29.41 41.416z" fill="#402B2B"/><path d="M374.453 203.289c0 22.908 13.189 41.416 29.411 41.416h29.411c16.221 0 29.259-18.66 29.259-41.416 0-22.908-13.19-41.416-29.411-41.416h-29.259c-16.373 0-29.411 18.508-29.411 41.416z" fill="#F48767"/><path d="M0 142.151l8.944-20.026h26.834l.303 75.855-35.93.151L0 142.151z" fill="#000"/><path d="M142.051 199.8l118.4-.303-13.644-8.041-89.596.152-15.16 8.192z" fill="#402B2B"/><path d="M30.32 132.29l.152 76.006 96.115-.152 30.624-16.536 89.596-.152 27.592 16.385 195.565-.455a5.76 5.76 0 005.761-5.765l-.151-70.241-445.254.91z" fill="#F36F49"/><path d="M239.835 149.584l153.42-.303-.303-139.117C392.952 4.552 388.404 0 382.643 0L239.38.303l.455 149.281z" fill="#F48767"/><path d="M.607 150.192l239.075-.455L239.379.456 10.461.91C4.851.91.304 5.46.304 11.227l.303 138.965z" fill="#F06A5B"/><path d="M355.049 203.289c0 22.908-13.037 41.416-29.259 41.416h-29.259v-13.957c-10.764 0-19.556-12.288-19.556-27.459s8.641-27.459 19.405-27.459v-13.957h29.259c16.221.151 29.259 18.66 29.41 41.416z" fill="#F48767"/><path d="M272.277 203.593c0 18.812 10.764 33.983 24.105 33.831 13.341 0 23.953-15.171 23.953-33.983 0-18.811-10.764-33.982-24.105-33.83-13.189 0-23.953 15.17-23.953 33.982z" fill="#F48767"/><path d="M296.38 225.893c8.793 0 15.767-10.013 15.767-22.453s-7.126-22.301-15.919-22.301c-8.792 0-15.766 10.013-15.766 22.453s7.125 22.301 15.918 22.301zm0-35.651c5.155 0 9.399 5.916 9.399 13.198s-4.244 13.351-9.399 13.351c-5.154 0-9.399-5.917-9.399-13.199 0-7.434 4.093-13.35 9.399-13.35z" fill="#F7A58D"/><path d="M296.38 244.857c16.222 0 29.26-18.66 29.26-41.416 0-22.756-13.19-41.417-29.411-41.417-16.222 0-29.259 18.661-29.259 41.417s13.341 41.568 29.41 41.416zm-.151-75.247c13.341 0 24.104 15.171 24.104 33.831 0 18.812-10.612 33.982-23.953 33.982-13.34 0-24.104-15.17-24.104-33.831 0-18.811 10.764-33.982 23.953-33.982z" fill="#F7A58D"/><path d="M292.288 203.441c0-3.186 1.819-5.613 3.942-5.613 2.122 0 3.941 2.579 4.093 5.613 0 3.186-1.819 5.613-3.942 5.613-2.274.152-4.093-2.427-4.093-5.613z" fill="#F48766"/><path d="M124.464 203.896c0 22.908-13.037 41.416-29.259 41.416H65.946v-13.957c-10.764 0-19.556-12.288-19.556-27.459s8.64-27.459 19.405-27.459v-13.958h29.259c16.221 0 29.41 18.509 29.41 41.417z" fill="#000"/><path d="M494.827 89.964c0 .606.454 1.061.909 1.213 1.213.304 5.761.304 7.125-.152.607-.151 1.213-.606 1.213-1.365.455-12.136.455-23.97 0-35.196 0-.759-.606-1.214-1.213-1.365-1.516-.456-6.822-.76-8.489-.152-.607.151-1.062.758-1.062 1.365a259.945 259.945 0 001.517 35.652z" fill="#F69276"/><path d="M487.399 100.734c.152 0 .303 0 .607-.151l10.309-5.159a7.077 7.077 0 003.941-6.371l-.151-38.08a2.719 2.719 0 00-2.729-2.73h-28.35c-.758 0-1.213.607-1.213 1.214 0 .758.607 1.213 1.213 1.213h28.35c.151 0 .151.152.151.152l.152 38.079c0 1.82-1.061 3.338-2.577 4.096l-10.309 5.158c-.607.304-.91 1.062-.607 1.669.304.759.758.91 1.213.91z" fill="#F69276"/><path d="M260.451 149.281H294.562c18.04 0 22.285 8.95 33.352 30.948l35.02-.152v-6.978l133.712-.304c.607-11.074 1.82-33.527 1.82-54.766v-2.124c0-6.069-1.062-12.744-2.881-19.419-7.125-26.094-25.166-53.856-32.594-64.02-2.426-3.338-4.548-6.22-6.367-8.8-5.155-6.827-8.642-10.316-15.161-10.316l-162.061.455c-3.336 0-6.368 2.276-7.277 5.462-13.948 51.277-11.825 90.266-11.674 130.014zM397.044 31.858c-.151-.758.455-1.365 1.213-1.365l49.271-.152c2.88 0 5.76 1.517 7.58 4.096 19.253 26.246 26.985 50.216 29.865 64.021l3.032 14.564c.455 2.124-.909 3.793-3.032 3.793h-11.976c-1.971 0-4.094-.91-5.61-2.427l-24.559-23.515c-2.729-2.58-6.367-4.096-9.854-4.096h-29.411l-6.519-54.919z" fill="#F36F49"/><path d="M371.574 96.942c1.061 4.855 2.274 9.861 3.335 15.171.758 3.641 3.942 6.22 7.581 6.372 47.906 1.668 87.625 1.82 115.975-.304v-2.124c0-6.068-1.062-12.743-2.881-19.418l-124.01.303z" fill="#F6977C"/><path d="M283.039 30.645l49.27-.152c2.881 0 5.458 1.517 6.822 4.096 13.796 26.246 16.677 50.216 16.677 64.021v14.564a3.755 3.755 0 01-3.79 3.793h-11.977c-1.971 0-3.942-.91-5.154-2.427l-19.709-23.515c-2.274-2.58-5.457-4.248-8.944-4.096h-29.411l4.7-54.919c0-.758.606-1.365 1.516-1.365z" fill="#F36F49"/><path d="M260.451 149.281H294.562c18.04 0 22.285 8.95 33.352 30.948l35.02-.152v-6.978l133.712-.304c.607-11.074 1.82-33.527 1.82-54.766-28.35 2.124-68.221 2.124-115.975.303-3.639-.152-6.823-2.731-7.581-6.372-1.061-5.309-2.274-10.467-3.335-15.17-6.519-27.763-13.644-47.637-23.043-69.18-.758-1.668.455-3.64 2.274-3.64l105.818-.304c-5.155-6.827-8.642-10.316-15.161-10.316l-162.061.455c-3.336 0-6.368 2.276-7.277 5.462-13.948 51.277-11.825 90.266-11.674 130.014zm16.222-62.352l4.699-54.919c0-.758.758-1.365 1.516-1.365l49.271-.152c2.88 0 5.457 1.517 6.822 4.096 13.796 26.246 16.676 50.216 16.676 64.021v14.564a3.755 3.755 0 01-3.79 3.793h-11.976c-1.971 0-3.942-.91-5.155-2.428l-19.708-23.514c-2.274-2.58-5.458-4.248-8.945-4.096h-29.41z" fill="#F7A58D"/><path d="M266.363 145.337c0 2.275 1.819 3.944 4.093 3.944h24.105c18.041 0 22.285 8.951 33.352 30.949l35.02-.152v-6.979l-.151-61.441c0-30.494-5.458-49.76-19.86-80.254-2.123-4.551-6.822-7.434-11.825-7.434l-52.151.152c-1.213 0-2.122.758-2.426 1.82-10.309 39.141-10.309 102.859-10.157 119.395zm10.309-58.408l4.7-54.918c0-.759.758-1.366 1.516-1.366l49.27-.151c2.881 0 5.458 1.517 6.822 4.096 13.796 26.245 16.676 50.215 16.676 64.02v14.565a3.754 3.754 0 01-3.79 3.792H339.89c-1.971 0-3.942-.91-5.155-2.427l-19.708-23.515c-2.274-2.579-5.458-4.248-8.944-4.096h-29.411z" fill="#F58A6B"/><path d="M283.342 32.465l48.967-.151c2.123 0 4.094 1.213 5.155 3.034 14.25 27.156 16.524 51.277 16.524 63.11v14.564c0 1.062-.909 1.973-1.97 1.973h-11.977c-1.516 0-2.88-.607-3.79-1.669l-19.708-23.515a13.71 13.71 0 00-10.461-4.855h-27.288l4.548-52.49zm-.303-1.82c-.758 0-1.516.607-1.516 1.365l-4.7 54.919h29.411c3.487 0 6.67 1.517 8.944 4.096l19.709 23.515c1.212 1.517 3.183 2.427 5.154 2.427h11.977a3.755 3.755 0 003.79-3.793V98.61c0-13.805-2.881-37.775-16.677-64.02-1.364-2.58-3.941-4.097-6.822-4.097l-49.27.152z" fill="#F7A58D"/><path d="M362.783 144.123v28.976l52.909-.152c-.606-7.585-1.971-14.867-4.245-21.694-.909-2.731-3.183-4.703-6.064-5.158-11.673-1.366-26.53-1.972-42.6-1.972zm107.031 28.824h26.227c.455-6.372.909-16.688 1.364-28.369-6.367.303-12.279.91-17.585 1.668-2.881.456-5.155 2.428-6.065 5.159-2.122 6.675-3.335 13.957-3.941 21.542zM362.934 202.227l122.645-.303c8.338 0 15.16-6.827 15.16-15.171v-2.579c0-2.428-1.971-4.248-4.245-4.248l-133.409.303-.151 21.998z" fill="#F6977C"/><path d="M340.346 202.227h22.589v-21.998h-34.717l3.79 15.323c.909 3.944 4.396 6.675 8.338 6.675z" fill="#F7A58D"/><path d="M286.375 121.974c5.154.151 15.16 1.213 15.16 4.854s-8.793 4.855-15.919 4.855c-7.125 0-7.883-3.944-8.489-5.613-.455-1.669-.91-4.248 9.248-4.096z" fill="#F6977C"/><path d="M286.83 125.918c-2.426 0-5.003-.758-6.216-1.972.91-.455 2.274-.91 4.397-.91 3.941 0 10.309.455 13.644 1.972-.455.303-1.668.91-3.639.91h-8.186zM296.988 128.801c.909 0 1.364.152 1.516.303-2.729 1.214-7.732 1.669-10.158 1.669-3.487 0-5.912 0-6.67-.759.606-.455 1.971-1.213 3.335-1.213 1.819.151 10.764 0 11.977 0z" fill="#F47B58"/><path d="M362.934 173.251v6.978l133.257-.303s.152-2.579.455-6.979l-133.712.304z" fill="#F58A6B"/><path d="M420.392 142.605v28.976l44.722-.151v-28.977c0-3.489-3.184-6.22-7.125-6.22h-30.624c-3.79.152-6.973 3.035-6.973 6.372z" fill="#F16036" opacity=".2"/><path d="M480.122 170.52h9.4c2.425 0 4.548-1.972 4.548-4.551v-4.703c0-2.428-1.971-4.552-4.548-4.552h-9.4c-2.425 0-4.548 1.973-4.548 4.552v4.703c0 2.579 2.123 4.551 4.548 4.551zM391.13 170.824h9.399c2.426 0 4.548-1.973 4.548-4.552v-4.703c0-2.427-1.97-4.551-4.548-4.551h-9.399c-2.426 0-4.548 1.972-4.548 4.551v4.703c0 2.428 1.971 4.552 4.548 4.552z" fill="#fff"/><path d="M330.491 90.267c0 .607.454 1.062.909 1.214a83.98 83.98 0 0018.496-.152c.758-.152 1.212-.607 1.212-1.365.455-12.137.455-23.97 0-35.197 0-.758-.606-1.213-1.212-1.365-6.519-.759-13.038-.759-19.86 0-.607.152-1.061.758-1.061 1.365-.455 11.378.151 23.212 1.516 35.5z" fill="#F7A58D"/><path d="M353.988 101.038c.455 0 .91-.303 1.061-.758.304-.607 0-1.366-.606-1.67l-10.309-5.005c-1.516-.759-2.577-2.428-2.577-4.097l-.152-38.078c0-.152.152-.152.152-.152h6.367c.758 0 1.213-.607 1.213-1.214 0-.758-.606-1.213-1.213-1.213h-6.367a2.719 2.719 0 00-2.729 2.73l.152 38.08a7.077 7.077 0 003.941 6.37l10.309 5.007h.758z" fill="#F69276"/><path d="M423.518 204.024l42.903-.094-.028-12.895-42.903.093.028 12.896z" fill="#F8B4A0"/><path opacity=".6" d="M348.239 28.07c9.4 21.542 16.373 41.416 23.044 69.178l124.01-.303c-7.126-26.094-25.166-53.856-32.595-64.02-2.425-3.338-4.548-6.221-6.367-8.8l-105.818.303c-1.819.152-3.032 1.973-2.274 3.641z" fill="url(#paint1_linear)"/><path d="M44.27 204.048c0 18.812 10.763 33.982 24.104 33.831 13.341 0 23.953-15.171 23.953-33.983 0-18.812-10.763-33.983-24.104-33.831-13.341 0-23.953 15.171-23.953 33.983z" fill="#000"/><path d="M68.372 226.349c8.793 0 15.767-10.013 15.767-22.453 0-12.289-7.126-22.301-15.918-22.301-8.793 0-15.767 10.013-15.767 22.453s7.125 22.301 15.918 22.301zm-.151-35.652c5.154 0 9.399 5.917 9.399 13.199s-4.245 13.35-9.4 13.35c-5.154 0-9.399-5.916-9.399-13.198 0-7.434 4.245-13.351 9.4-13.351z" fill="#625C5C"/><path d="M68.373 245.464c16.221 0 29.259-18.66 29.259-41.416 0-22.908-13.19-41.417-29.411-41.417-16.221 0-29.26 18.66-29.26 41.417 0 22.908 13.19 41.416 29.412 41.416zm-.152-75.399c13.34 0 24.105 15.171 24.105 33.831 0 18.66-10.612 33.983-23.953 33.983s-24.105-15.171-24.105-33.831c0-18.66 10.612-33.983 23.953-33.983z" fill="#424242"/><path d="M64.28 204.048c0-3.186 1.819-5.613 3.94-5.613 2.275 0 3.942 2.579 4.094 5.613 0 3.186-1.82 5.613-3.941 5.613-2.275 0-4.094-2.579-4.094-5.613z" fill="#8B8282"/><path d="M274.033 215.984a107.277 107.277 0 00-10.808-28.901 66.478 66.478 0 00-2.228-3.794c-5.682-9.485-12.702-17.966-20.835-25.331-1.003-1.004-2.117-1.897-3.231-2.789a107.787 107.787 0 00-29.303-17.408c-1.337-.558-2.674-1.004-4.011-1.451-10.696-3.794-22.284-5.914-34.205-6.137h-4.234c-12.033.223-23.509 2.343-34.205 6.137-1.337.447-2.674 1.004-4.011 1.451a107.776 107.776 0 00-29.303 17.408c-1.114.892-2.229 1.897-3.231 2.789-8.134 7.365-15.264 15.846-20.835 25.331-.78 1.227-1.449 2.566-2.229 3.794a107.276 107.276 0 00-10.807 28.901c-.335 1.451-.557 2.902-.892 4.352a108.5 108.5 0 00-1.67 19.082h218.489c0-6.472-.557-12.944-1.671-19.082-.223-1.45-.446-2.901-.78-4.352z" fill="#FCDDD4"/><defs><linearGradient id="paint0_linear" x1="380.153" y1="315.48" x2="380.153" y2="853.847" gradientUnits="userSpaceOnUse"><stop stop-color="#F37753"/><stop offset="1" stop-color="#fff" stop-opacity="0"/></linearGradient><linearGradient id="paint1_linear" x1="406.089" y1=".917" x2="465.461" y2="143.149" gradientUnits="userSpaceOnUse"><stop stop-color="#F7A58D"/><stop offset=".926" stop-color="#fff"/></linearGradient></defs></svg>