<svg width="1024" height="1080" fill="none" xmlns="http://www.w3.org/2000/svg"><mask id="a" style="mask-type:alpha" maskUnits="userSpaceOnUse" x="0" y="0" width="1024" height="1080"><path fill="#C4C4C4" d="M0 0h1024v1080H0z"/></mask><g mask="url(#a)"><path d="M1099 0H-186v800H999c55.23 0 100-44.772 100-100V0z" fill="url(#paint0_linear)"/><mask id="b" style="mask-type:alpha" maskUnits="userSpaceOnUse" x="-186" y="0" width="1285" height="800"><path d="M1099 0H-186v800H999c55.23 0 100-44.772 100-100V0z" fill="url(#paint1_linear)"/></mask><g mask="url(#b)"><path d="M1139.57 344.525h-10.83a4.062 4.062 0 00-4.06 4.061v244.278c0 3.084-2.5 5.584-5.59 5.584-3.08 0-5.58-2.5-5.58-5.584V436.796c0-5.523-4.48-10-10-10h-10.46c-5.52 0-10 4.477-10 10v9.794c0 5.523-4.48 10-10 10h-65.98c-4.21 0-7.62 3.41-7.62 7.617v4.234a3.384 3.384 0 01-3.384 3.384 3.385 3.385 0 00-3.385 3.385v54.343a8.291 8.291 0 01-8.292 8.292 8.293 8.293 0 00-8.292 8.292v36.217c0 5.523-4.477 10-10 10h-.984c-5.523 0-10 4.477-10 10v52.975a3.723 3.723 0 01-7.446 0V348.248a3.046 3.046 0 00-3.046-3.046 3.046 3.046 0 01-3.046-3.046v-26.919a5.246 5.246 0 00-5.246-5.246 5.246 5.246 0 01-5.246-5.246v-26.072a3.554 3.554 0 00-3.554-3.554 3.554 3.554 0 01-3.554-3.554v-21.318c0-5.523-4.477-10-10-10h-25.352c-5.523 0-10 4.477-10 10v21.318a3.554 3.554 0 01-3.554 3.554 3.554 3.554 0 00-3.554 3.554v26.072a5.246 5.246 0 01-5.246 5.246 5.246 5.246 0 00-5.246 5.246v27.088a2.538 2.538 0 01-2.538 2.538 2.54 2.54 0 00-2.539 2.539v209.236a5.923 5.923 0 01-5.923 5.923 5.923 5.923 0 00-5.923 5.923v83.291a7.277 7.277 0 01-7.276 7.277h-6.6a.678.678 0 01-.677-.678.677.677 0 00-.677-.677h-2.2a1.186 1.186 0 010-2.37h1.184a1.693 1.693 0 000-3.385h-1.014a1.355 1.355 0 010-2.709h1.014a1.692 1.692 0 100-3.385h-1.184a1.185 1.185 0 110-2.37h1.184a1.693 1.693 0 000-3.386h-1.184a1.186 1.186 0 010-2.37h1.184a1.693 1.693 0 000-3.386h-1.184a1.186 1.186 0 010-2.37h1.184a1.693 1.693 0 000-3.385h-1.184a1.185 1.185 0 110-2.37h1.184a1.693 1.693 0 000-3.386h-1.184a1.186 1.186 0 010-2.37h1.184a1.692 1.692 0 100-3.385h-1.184a1.185 1.185 0 110-2.37h1.184a1.693 1.693 0 000-3.386h-1.184a1.186 1.186 0 010-2.37h1.184a1.693 1.693 0 000-3.386h-1.184a1.186 1.186 0 010-2.37h1.184a1.693 1.693 0 000-3.385h-.338a2.031 2.031 0 01-2.031-2.031v-.678c0-1.122.91-2.031 2.031-2.031h.338a1.693 1.693 0 000-3.386h-1.184a1.186 1.186 0 010-2.37h1.184a1.692 1.692 0 100-3.385h-1.184a1.185 1.185 0 110-2.37h1.184a1.693 1.693 0 000-3.386h-1.184a1.186 1.186 0 010-2.37h1.184a1.693 1.693 0 000-3.386h-1.184a1.186 1.186 0 010-2.37h1.184a1.693 1.693 0 000-3.385h-1.184a1.185 1.185 0 110-2.37h1.184a1.693 1.693 0 000-3.386h-1.184a1.186 1.186 0 010-2.37h1.184a1.692 1.692 0 100-3.385h-1.184a1.185 1.185 0 110-2.37h1.184a1.693 1.693 0 000-3.386h-1.184a1.186 1.186 0 010-2.37h1.184a1.693 1.693 0 000-3.386h-1.184a1.186 1.186 0 010-2.37h1.184a1.693 1.693 0 000-3.385h-1.184a1.185 1.185 0 110-2.37h1.184a1.693 1.693 0 000-3.386h-1.184a1.186 1.186 0 010-2.37h1.184a1.692 1.692 0 100-3.385h-1.184a1.185 1.185 0 110-2.37h1.184a1.693 1.693 0 000-3.386h-.338a2.031 2.031 0 01-2.031-2.031v-1.355c0-1.122.91-2.031 2.031-2.031h.338a1.693 1.693 0 000-3.386h-1.184a1.186 1.186 0 010-2.37h1.184a1.693 1.693 0 100-3.385h-1.184a1.185 1.185 0 110-2.37h1.184a1.693 1.693 0 000-3.386h-1.184a1.186 1.186 0 010-2.37h1.184a1.693 1.693 0 000-3.386h-.338a2.031 2.031 0 01-2.031-2.03v-2.202c0-.841-.682-1.523-1.523-1.523a1.523 1.523 0 01-1.523-1.523v-2.201a3.724 3.724 0 00-3.724-3.725h-.337a4.062 4.062 0 01-4.062-4.061v-10.837a3.046 3.046 0 00-3.046-3.046 3.046 3.046 0 01-3.046-3.046v-11.585a10 10 0 00-7.867-9.77l-10.748-2.345a5.678 5.678 0 01-4.4-5.532v-31.542a1.185 1.185 0 00-2.369 0v31.901a3.047 3.047 0 01-3.723 2.972 3.048 3.048 0 00-3.723 2.972v23.437a2.538 2.538 0 01-2.538 2.538 2.538 2.538 0 00-2.538 2.539v11.344a4.062 4.062 0 01-4.062 4.061h-.845a3.216 3.216 0 00-3.216 3.217v1.693c0 .841-.682 1.523-1.523 1.523-.841 0-1.523.682-1.523 1.523v1.355a2.879 2.879 0 01-2.878 2.878h-29.768c-5.522 0-10 4.477-10 10v17.58c0 5.523-4.477 10-10 10H681.83a9.995 9.995 0 00-3.63.683l-30.403 11.844a2.693 2.693 0 00-1.692 2.5v11.721a2.708 2.708 0 002.708 2.708h.676a2.03 2.03 0 110 4.062h-1.352a2.031 2.031 0 100 4.063h1.352a2.031 2.031 0 010 4.063h-1.352a2.032 2.032 0 000 4.063h1.352a2.03 2.03 0 110 4.062h-1.352a2.031 2.031 0 100 4.063h1.352a2.03 2.03 0 110 4.063h-1.352a2.032 2.032 0 000 4.063h1.86a1.523 1.523 0 010 3.047h-30.778a10 10 0 01-9.377-6.525l-8.052-21.73c-1.401-3.779-6.749-3.773-8.14.01-1.696 4.612-8.822 3.289-8.812-1.625.007-3.361.007-6.721.007-10.081v-14.22c0-13.542 0-27.085-.338-40.627 0-5.756-.339-11.85-.339-17.606-.338-12.527-.677-25.054-1.354-37.919-.338-6.094-.338-12.188-.677-18.283-.676-11.849-1.015-23.36-1.692-35.21 0-1.355-.338-2.709-.338-4.063-.677-10.496-1.354-20.653-2.031-31.148-1.354-18.96-3.046-37.919-4.738-56.879a181.81 181.81 0 00-.473-5.289c-.528-5.22-4.946-9.269-10.193-9.269h-63.42c-4.854 0-9.174 3.61-9.174 8.464l-1.015 12.188c-.339 3.386-.677 7.11-1.016 10.496-.676 6.432-1.015 12.865-1.692 19.298-.338 3.047-.338 5.756-.677 8.803-.338 5.417-.677 10.834-1.353 16.251-.339 2.37-.339 4.74-.339 6.771-.338 7.11-1.015 14.22-1.354 20.991 0 2.37-.338 4.74-.338 7.11-.339 7.448-.677 14.558-1.016 22.007 0 1.693-.338 3.047-.338 4.74-.338 6.771-.677 13.881-1.015 20.652v4.063c-.339 7.787-.677 15.574-.677 23.361v4.74c-.339 8.125-.339 16.251-.677 24.038v1.016c0 8.125-.338 16.251-.338 24.038v38.09a7.277 7.277 0 01-7.277 7.277 7.277 7.277 0 00-7.277 7.277v81.261a8.63 8.63 0 01-8.631 8.63h-7.784a.846.846 0 010-1.692h.677c.841 0 1.523-.682 1.523-1.523v-.678c0-.842-.682-1.523-1.523-1.523a1.523 1.523 0 01-1.523-1.524v-1.355c0-.841.682-1.523 1.523-1.523.841 0 1.523-.682 1.523-1.523v-.678c0-.841-.682-1.523-1.523-1.523a1.523 1.523 0 01-1.523-1.523v-1.694c0-.841.682-1.523 1.523-1.523.841 0 1.523-.682 1.523-1.523v-.678c0-.841-.682-1.523-1.523-1.523a1.523 1.523 0 01-1.523-1.523v-1.694c0-.841.682-1.523 1.523-1.523.841 0 1.523-.682 1.523-1.523v-.678c0-.841-.682-1.523-1.523-1.523a1.523 1.523 0 01-1.523-1.523v-1.694c0-.841.682-1.523 1.523-1.523.841 0 1.523-.682 1.523-1.523v-.678c0-.842-.682-1.523-1.523-1.523a1.523 1.523 0 01-1.523-1.524v-1.693c0-.841.682-1.523 1.523-1.523.841 0 1.523-.682 1.523-1.523v-.679c0-.841-.682-1.523-1.523-1.523a1.523 1.523 0 01-1.523-1.523v-1.693c0-.842.682-1.523 1.523-1.523.841 0 1.523-.682 1.523-1.524v-.678c0-.841-.682-1.523-1.523-1.523a1.523 1.523 0 01-1.523-1.523v-1.694c0-.841.682-1.523 1.523-1.523.841 0 1.523-.681 1.523-1.523v-.678c0-.841-.682-1.523-1.523-1.523a1.523 1.523 0 01-1.523-1.523v-1.694c0-.841.682-1.523 1.523-1.523.841 0 1.523-.682 1.523-1.523v-.678c0-.841-.682-1.523-1.523-1.523a1.523 1.523 0 01-1.523-1.523V593.2c0-.841.682-1.523 1.523-1.523.841 0 1.523-.682 1.523-1.523v-.678c0-.841-.682-1.523-1.523-1.523a1.523 1.523 0 01-1.523-1.523v-1.694c0-.841.682-1.523 1.523-1.523.841 0 1.523-.682 1.523-1.523v-2.032c0-.842-.682-1.523-1.523-1.523a1.523 1.523 0 01-1.523-1.524v-1.693c0-.841.682-1.523 1.523-1.523.841 0 1.523-.682 1.523-1.523v-.678c0-.842-.682-1.524-1.523-1.524a1.523 1.523 0 01-1.523-1.523v-2.032c0-.841.682-1.523 1.523-1.523.841 0 1.523-.682 1.523-1.523v-.678c0-.841-.682-1.523-1.523-1.523a1.523 1.523 0 01-1.523-1.523v-1.694c0-.841.682-1.523 1.523-1.523.841 0 1.523-.682 1.523-1.523v-.678c0-.841-.682-1.523-1.523-1.523a1.523 1.523 0 01-1.523-1.523v-1.694c0-.841.682-1.523 1.523-1.523.841 0 1.523-.682 1.523-1.523v-.678c0-.842-.682-1.524-1.523-1.524a1.523 1.523 0 01-1.523-1.523v-1.693c0-.842.682-1.523 1.523-1.523.841 0 1.523-.682 1.523-1.523v-.679c0-.841-.682-1.523-1.523-1.523a1.523 1.523 0 01-1.523-1.523v-1.693c0-.842.682-1.524 1.523-1.524.841 0 1.523-.681 1.523-1.523v-.678c0-.841-.682-1.523-1.523-1.523a1.523 1.523 0 01-1.523-1.523v-1.694c0-.841.682-1.523 1.523-1.523.841 0 1.523-.682 1.523-1.523v-.678c0-.841-.682-1.523-1.523-1.523a1.523 1.523 0 01-1.523-1.523v-1.694c0-.841.682-1.523 1.523-1.523.841 0 1.523-.682 1.523-1.523v-.678c0-.841-.682-1.523-1.523-1.523a1.523 1.523 0 01-1.523-1.523v-1.694c0-.841.682-1.523 1.523-1.523.841 0 1.523-.682 1.523-1.523v-2.032c0-.842-.682-1.523-1.523-1.523a1.523 1.523 0 01-1.523-1.523v-1.694c0-.841.682-1.523 1.523-1.523.841 0 1.523-.682 1.523-1.523v-.678c0-.842-.682-1.524-1.523-1.524a1.523 1.523 0 01-1.523-1.523v-1.693c0-.842.682-1.523 1.523-1.523.841 0 1.523-.682 1.523-1.524v-.678c0-.841-.682-1.523-1.523-1.523a1.523 1.523 0 01-1.523-1.523v-1.693c0-.842.682-1.524 1.523-1.524.841 0 1.523-.681 1.523-1.523v-.678c0-.841-.682-1.523-1.523-1.523a1.523 1.523 0 01-1.523-1.523v-5.418c0-.841.682-1.523 1.523-1.523.841 0 1.523-.682 1.523-1.523v-1.016a2.539 2.539 0 00-2.539-2.539h-4.906a2.37 2.37 0 01-2.37-2.37v-.558c0-1.001.811-1.812 1.812-1.812 1.49 0 2.344-1.697 1.456-2.893l-12.142-16.36a7.657 7.657 0 00-6.147-3.093h-.207a7.448 7.448 0 01-7.449-7.448c0-.748-.677-1.622-.677-2.37v-19.468a1.185 1.185 0 00-2.369 0v19.521c0 .719-.676 1.598-.676 2.317a7.448 7.448 0 01-7.449 7.448h-.207a7.657 7.657 0 00-6.148 3.094l-12.812 17.263c-.61.822-.023 1.989 1.001 1.989.688 0 1.246.558 1.246 1.246v1.124a2.37 2.37 0 01-2.37 2.37h-4.906a2.539 2.539 0 00-2.539 2.539v.678a1.86 1.86 0 001.861 1.861c1.028 0 1.862.834 1.862 1.862v4.741a1.862 1.862 0 01-1.862 1.861 1.862 1.862 0 000 3.724c1.028 0 1.862.834 1.862 1.862v1.017a1.862 1.862 0 01-1.862 1.861 1.862 1.862 0 000 3.725c1.028 0 1.862.833 1.862 1.861v1.017a1.862 1.862 0 01-1.862 1.861 1.862 1.862 0 000 3.725c1.028 0 1.862.833 1.862 1.861v1.017a1.862 1.862 0 01-1.862 1.862 1.862 1.862 0 000 3.724c1.028 0 1.862.833 1.862 1.861v1.017a1.862 1.862 0 01-1.862 1.862 1.862 1.862 0 000 3.724c1.028 0 1.862.833 1.862 1.861v1.017a1.862 1.862 0 01-1.862 1.862 1.862 1.862 0 000 3.724c1.028 0 1.862.833 1.862 1.862v1.016a1.862 1.862 0 01-1.862 1.862 1.862 1.862 0 000 3.724c1.028 0 1.862.834 1.862 1.862v1.017a1.862 1.862 0 01-1.862 1.861 1.862 1.862 0 000 3.724c1.028 0 1.862.834 1.862 1.862v1.017a1.862 1.862 0 01-1.862 1.861 1.862 1.862 0 000 3.724c1.028 0 1.862.834 1.862 1.862v1.017a1.862 1.862 0 01-1.862 1.861 1.862 1.862 0 000 3.725c1.028 0 1.862.833 1.862 1.861v1.017a1.862 1.862 0 01-1.862 1.861 1.862 1.862 0 000 3.725c1.028 0 1.862.833 1.862 1.861v1.017a1.862 1.862 0 01-1.862 1.862 1.862 1.862 0 000 3.724c1.028 0 1.862.833 1.862 1.861v1.017a1.862 1.862 0 01-1.862 1.862 1.862 1.862 0 000 3.724c1.028 0 1.862.833 1.862 1.861v1.017a1.862 1.862 0 01-1.862 1.862 1.862 1.862 0 000 3.724h1.354a.509.509 0 010 1.016h-17.767a4.402 4.402 0 01-4.402-4.402V348.926l-.173-7.291a10 10 0 00-6.711-9.206l-10.079-3.507c-3.291-1.145-6.728 1.298-6.728 4.783v1.546a3.52 3.52 0 11-7.036-.071l.444-21.96a10 10 0 00-7.572-9.903l-21.387-5.348c-6.009-1.503-11.925 2.763-12.397 8.939l-3.159 41.341-.338 4.74-.339 3.724-.338 4.74-.339 3.724-.338 4.74-.339 3.724-.338 4.74-.338 3.724-.339 4.74-.338 3.725-.339 4.739-.338 3.725-.339 4.74-.338 3.724-.339 4.74-.338 3.724-.339 4.74-.338 3.724-.338 4.74-.339 3.724-.338 4.74-.339 3.724-.019.264a10 10 0 01-3.876 7.213l-1.745 1.342a9.915 9.915 0 00-3.837 7.094l-.338 3.724-.338 4.74-.339 3.724-.338 4.74-.339 3.724-.338 4.74-.339 3.724-.338 4.402c0 .935-.758 1.693-1.693 1.693h-27.906c-5.523 0-10 4.477-10 10v38.585a5.246 5.246 0 01-5.246 5.246 5.246 5.246 0 00-5.246 5.246v104.113a7.107 7.107 0 11-14.215 0V239.569a2.707 2.707 0 00-2.708-2.708 2.707 2.707 0 01-2.707-2.708v-37.061c0-5.523-4.478-10-10-10h-57.506c-5.523 0-10 4.477-10 10v37.4a2.708 2.708 0 01-2.708 2.708 2.707 2.707 0 00-2.707 2.707v180.289a4.908 4.908 0 01-4.908 4.907h-3.892c-.561 0-1.016.455-1.016 1.016v.339a.677.677 0 01-.677.677.676.676 0 00-.676.676v3.725c0 .374.303.677.676.677.374 0 .677.303.677.677v.339a.677.677 0 01-.677.677.677.677 0 00-.676.677v3.724c0 .374.303.677.676.677.374 0 .677.303.677.677V440a.677.677 0 01-.677.677.677.677 0 00-.676.677v3.725c0 .374.303.677.676.677.374 0 .677.303.677.676v.34a.677.677 0 01-.677.676.677.677 0 00-.676.677v3.725c0 .374.303.677.676.677.374 0 .677.303.677.677v.339a.677.677 0 01-.677.677.677.677 0 00-.676.677v3.724c0 .374.303.677.676.677.374 0 .677.303.677.677v.339a.677.677 0 01-.677.677.677.677 0 00-.676.677v3.725c0 .373.303.677.676.677.374 0 .677.303.677.676v.339a.677.677 0 01-.677.677.677.677 0 00-.676.677v3.725c0 .374.303.677.676.677.374 0 .677.303.677.677v.339a.677.677 0 01-.677.677.677.677 0 00-.676.677v3.724c0 .374.303.677.676.677.374 0 .677.303.677.677v.339a.677.677 0 01-.677.677.677.677 0 00-.676.677v3.725c0 .373.303.676.676.676.374 0 .677.303.677.677v.339a.677.677 0 01-.677.677.677.677 0 00-.676.677v3.725c0 .374.303.677.676.677.374 0 .677.303.677.677v.339a.677.677 0 01-.677.677.676.676 0 00-.676.676v3.725c0 .374.303.677.676.677.374 0 .677.303.677.677v.339a.677.677 0 01-.677.677.677.677 0 00-.676.677v3.724c0 .374.303.677.676.677.374 0 .677.303.677.677v.339a.677.677 0 01-.677.677.677.677 0 00-.676.677v3.725c0 .374.303.677.676.677.374 0 .677.303.677.677v.339a.677.677 0 01-.677.676.677.677 0 00-.676.677v3.725c0 .374.303.677.676.677.374 0 .677.303.677.677v.339a.677.677 0 01-.677.677.677.677 0 00-.676.677v3.724c0 .374.303.677.676.677.374 0 .677.303.677.677v7.11a.677.677 0 01-.677.677.677.677 0 00-.676.677v3.725c0 .374.303.677.676.677.374 0 .677.303.677.677v.339a.677.677 0 01-.677.677.677.677 0 00-.676.677v.846c0 .842-.683 1.524-1.524 1.524H89.196c-5.523 0-10-4.477-10-10v-91.388c0-5.523-4.477-10-10-10H29.628c-5.522 0-10 4.477-10 10v53.145a8.63 8.63 0 01-8.63 8.631h-6.6a2.032 2.032 0 01-2.03-2.032c0-1.122-.91-2.031-2.032-2.031h-1.523a3.554 3.554 0 01-3.553-3.554V227.042a2.708 2.708 0 00-2.708-2.708 2.708 2.708 0 01-2.707-2.708V148c0-5.523-4.478-10-10-10h-73.752c-5.523 0-10 4.477-10 10v73.627a2.707 2.707 0 01-2.708 2.707 2.707 2.707 0 00-2.707 2.708v358.205a6.43 6.43 0 01-12.861 0V456.771c0-5.523-4.478-10-10-10h-2.677c-5.523 0-10-4.477-10-10v-50.604a3.723 3.723 0 00-3.723-3.723 3.723 3.723 0 01-3.723-3.723v-15.394c0-5.522-4.477-10-10-10h-85.597c-5.523 0-10 4.478-10 10v15.394a3.723 3.723 0 01-3.723 3.723 3.723 3.723 0 00-3.723 3.723v220.225c0 5.523-4.477 10-10 10h-4.369c-5.523 0-10-4.477-10-10V475.054c0-5.523-4.477-10-10-10h-69.69c-5.523 0-10 4.477-10 10v75.66c0 5.421-4.394 9.815-9.815 9.815-5.421 0-9.815 4.395-9.815 9.815v77.198a5.754 5.754 0 11-11.508 0V381.427a2.369 2.369 0 00-2.369-2.369h-1.353a1.016 1.016 0 010-2.031h1.353a2.369 2.369 0 002.369-2.369v-2.033a2.368 2.368 0 00-2.369-2.369h-1.353a1.016 1.016 0 010-2.032h1.353a2.368 2.368 0 002.369-2.369v-2.033a2.369 2.369 0 00-2.369-2.369h-1.353a1.015 1.015 0 110-2.031h1.353a2.369 2.369 0 002.369-2.37v-2.033a2.369 2.369 0 00-2.369-2.369h-1.692a.677.677 0 110-1.354h1.861a2.54 2.54 0 002.539-2.538v-1.695a2.538 2.538 0 00-2.539-2.538h-1.522a1.016 1.016 0 010-2.032h1.522a2.538 2.538 0 002.539-2.538v-1.695a2.538 2.538 0 00-2.539-2.538h-1.522a1.015 1.015 0 110-2.031h1.522a2.54 2.54 0 002.539-2.539v-1.694a2.54 2.54 0 00-2.539-2.539h-1.522a1.016 1.016 0 010-2.031h1.522a2.54 2.54 0 002.539-2.539v-17.942c0-3.287-1.651-6.326-4.117-8.499-10.139-8.93-24.356-28.008-24.652-54.307v-1.525a2.877 2.877 0 00-2.877-2.876h-1.014a1.861 1.861 0 00-1.862 1.862 1.862 1.862 0 01-1.862 1.862h-2.2a4.062 4.062 0 01-4.061-4.062v-53.326a1.523 1.523 0 00-3.046 0v56.88a.846.846 0 11-1.693 0V239.4a1.862 1.862 0 00-1.862-1.862h-2.368a1.862 1.862 0 00-1.862 1.862 1.861 1.861 0 01-1.862 1.862h-7.106a1.861 1.861 0 01-1.862-1.862 1.862 1.862 0 00-1.862-1.862h-1.184a3.046 3.046 0 00-3.046 3.046v.678c0 26.679-7.36 45.995-15.926 55.092-2.292 2.434-4.043 5.488-4.043 8.831v13.439c0 .094.076.17.169.17.094 0 .169.076.169.169v3.556a3.046 3.046 0 003.046 3.046h2.031a1.015 1.015 0 110 2.031h-2.031a3.047 3.047 0 00-3.046 3.047v.679a3.046 3.046 0 003.046 3.046h2.031a1.016 1.016 0 010 2.031h-2.2a3.215 3.215 0 00-3.215 3.215v.341a3.214 3.214 0 003.215 3.215h2.538a.678.678 0 110 1.355h-2.538a3.214 3.214 0 00-3.215 3.215v.341a3.215 3.215 0 003.215 3.215h2.2a1.015 1.015 0 110 2.031h-2.2a3.215 3.215 0 00-3.215 3.216v.34a3.215 3.215 0 003.215 3.216h2.2a1.016 1.016 0 010 2.031h-2.2a3.215 3.215 0 00-3.215 3.215v.341a3.214 3.214 0 003.215 3.215h2.2a1.016 1.016 0 010 2.032h-2.2a3.214 3.214 0 00-3.215 3.215v.341a3.214 3.214 0 003.215 3.215h2.2a1.015 1.015 0 110 2.031h-2.369a3.386 3.386 0 00-3.385 3.385v133.399c0 5.234-4.242 9.477-9.476 9.477-5.234 0-9.477 4.242-9.477 9.476v57.392a5.246 5.246 0 01-5.246 5.246 5.246 5.246 0 00-5.246 5.246v52.837c0 2.152-2.429 3.281-4.58 3.2a2.985 2.985 0 01-.353-.031l-.369-.052c-3.947-.552-6.882-3.896-6.882-7.881V529.134a10 10 0 00-5.972-9.152l-2.18-.96a1.606 1.606 0 00-.648-.136h-.507a2.54 2.54 0 01-2.539-2.54v-1.354a1.185 1.185 0 10-2.369 0c0 .654-.531 1.185-1.185 1.185h-.143c-.575 0-1.042.466-1.042 1.041 0 .555-.435 1.012-.989 1.04l-3.863.193a1.826 1.826 0 01-1.917-1.823c0-.691-.39-1.323-1.008-1.633l-.915-.457a3.488 3.488 0 00-1.661-.366l-19.799.591a2.062 2.062 0 00-2.001 2.061 2.062 2.062 0 01-2.061 2.062h-.308a2.369 2.369 0 00-2.369 2.369v22.503c0 5.523-4.477 10-10 10h-17.568c-5.523 0-10-4.477-10-10V385.49a4.4 4.4 0 00-4.4-4.4 4.4 4.4 0 01-4.4-4.4v-29.275c0-5.523-4.477-10-10-10h-15.044a5.756 5.756 0 01-5.755-5.756 5.755 5.755 0 00-5.756-5.755h-3.887a9.311 9.311 0 01-9.311-9.311 9.31 9.31 0 00-9.31-9.31h-57.519c-5.522 0-10 4.477-10 10v10.132c0 5.523-4.477 10-10 10h-18.583c-5.523 0-10 4.477-10 10v291.818c0 5.523-4.477 10-10 10h-.984c-5.523 0-10 4.477-10 10v9.64c0 5.421-4.395 9.815-9.815 9.815-5.421 0-9.816-4.394-9.816-9.815v-73.967c0-5.523-4.477-10-10-10h-10.46c-5.523 0-10-4.477-10-10v-20.431a.613.613 0 00-.339-.548.613.613 0 01-.338-.548v-3.545a6.347 6.347 0 00-1.329-3.887l-4.702-6.076a10 10 0 01-2.092-6.121v-5.98a3.47 3.47 0 00-1.015-2.452 3.463 3.463 0 01-1.016-2.451v-14.646a.507.507 0 10-1.015 0v14.885c0 .766-.305 1.501-.846 2.043a2.89 2.89 0 00-.846 2.043v7.502a9.998 9.998 0 01-1.807 5.733l-4.222 6.033a5.976 5.976 0 00-1.079 3.425v1.975c0 .763-.381 1.475-1.015 1.898a2.28 2.28 0 00-1.016 1.897v.869a3.485 3.485 0 01-1.692 2.989l-.417.251a2.628 2.628 0 00-1.275 2.253c0 .961-.525 1.846-1.369 2.306l-.493.269a3.573 3.573 0 00-1.861 3.136v31.029a6.492 6.492 0 01-7.108 6.463 6.093 6.093 0 01-6.092-6.092V537.35c0-5.523-4.477-10-10-10h-21.63c-5.522 0-10 4.477-10 10v27.737c0 5.523-4.477 10-10 10h-6.399c-5.523 0-10 4.478-10 10v20.303a3.215 3.215 0 01-3.215 3.215 3.216 3.216 0 00-3.216 3.216v37.921a2.541 2.541 0 01-5.08 0v-16.084a3.38 3.38 0 00-3.38-3.384 3.39 3.39 0 01-3.39-3.385V455.078c0-5.522-4.47-10-10-10h-47.87c-42.31 0-76.49 29.794-76.49 72.115v23.856c0 5.523-4.48 10-10 10h-3.88c-12.18 0-22 20.991-22 32.503v39.769c0 5.522-4.47 10-10 10h-15.87c-5.53 0-10-4.478-10-10v-37.556c0-5.523-4.48-10-10-10h-4.03c-5.53 0-10 4.477-10 10v87a5.247 5.247 0 01-5.25 5.246c-2.9 0-5.25-2.348-5.25-5.246v-48.756a2.87 2.87 0 00-2.87-2.877 2.879 2.879 0 01-2.88-2.877v-32.49c0-5.523-4.48-10-10-10h-1.32c-5.52 0-10-4.478-10-10V530.24c0-5.523-4.48-10-10-10H-1312c-5.52 0-10 4.477-10 10V732c0 5.523 4.48 10 10 10h2470c5.52 0 10-4.477 10-10V354.525c0-5.523-4.48-10-10-10h-18.43zM759.149 536.322c0 .654-.531 1.185-1.185 1.185h-2.2a.338.338 0 01-.338-.339v-.846c0-.655.53-1.185 1.185-1.185h1.353c.654 0 1.185.53 1.185 1.185zm0-5.756c0 .655-.531 1.185-1.185 1.185h-1.353a1.185 1.185 0 110-2.37h1.353c.654 0 1.185.531 1.185 1.185zm0-6.094c0 .654-.531 1.185-1.185 1.185h-1.353a1.185 1.185 0 110-2.37h1.353c.654 0 1.185.531 1.185 1.185zm0-6.094c0 .654-.531 1.185-1.185 1.185h-1.353a1.184 1.184 0 110-2.37h1.353c.654 0 1.185.53 1.185 1.185zm0-6.094c0 .654-.531 1.185-1.185 1.185h-1.353a1.184 1.184 0 110-2.37h1.353c.654 0 1.185.53 1.185 1.185zm0-6.095c0 .655-.531 1.185-1.185 1.185h-1.353a1.184 1.184 0 110-2.369h1.353c.654 0 1.185.53 1.185 1.184zm0-5.755c0 .654-.531 1.185-1.185 1.185h-1.353a1.184 1.184 0 110-2.37h1.353c.654 0 1.185.53 1.185 1.185z" fill="url(#paint2_linear)"/><path d="M912.886 495.501c-58.773 0-106.322 100.894-106.322 225.245h212.766c0-124.477-47.671-225.245-106.444-225.245z" fill="url(#paint3_linear)"/><path d="M912.886 495.501c-58.773 0-106.322 100.894-106.322 225.245h212.766c0-124.477-47.671-225.245-106.444-225.245z" fill="url(#paint4_linear)"/><mask id="c" style="mask-type:alpha" maskUnits="userSpaceOnUse" x="806" y="495" width="214" height="226"><path d="M912.886 495.501c-58.773 0-106.322 100.894-106.322 225.245h212.766c0-124.477-47.671-225.245-106.444-225.245z" fill="url(#paint5_linear)"/></mask><g mask="url(#c)"><path opacity=".2" d="M823.247 515.899c33.689-15.346 101.724-40.448 104.354-18.087 3.286 27.952-191.452 147.981-124.896 122.495 66.556-25.485 124.074-95.365 138.864-70.702 14.791 24.664-129.826 126.606-81.346 121.674 48.479-4.933 108.462-118.385 127.361-100.298 18.896 18.086-124.075 143.87-92.029 154.557 32.046 10.688 119.965-167.711 155.295-171.822" stroke="url(#paint6_linear)" stroke-width="2"/></g><path opacity=".3" d="M1005.54 720.746h13.79c0-124.477-47.671-225.245-106.444-225.245-2.316 0-4.614.157-6.893.465 55.561 7.518 99.547 105.21 99.547 224.78z" fill="#C9D983"/><path d="M1030.82 556.573c-43.003 0-77.813 73.833-77.813 164.83h155.633c-.12-90.997-34.93-164.83-77.82-164.83z" fill="url(#paint7_linear)"/><mask id="d" style="mask-type:alpha" maskUnits="userSpaceOnUse" x="953" y="556" width="156" height="166"><path d="M1030.82 556.573c-43.003 0-77.813 73.833-77.813 164.83h155.633c-.12-90.997-34.93-164.83-77.82-164.83z" fill="url(#paint8_linear)"/></mask><g mask="url(#d)"><path opacity=".2" d="M1006.37 519.142c-30.534 49.731-79.446 138.99-30.856 98.179 60.736-51.015 118.586-34.652 94.486 0-24.11 34.651-94.486 16.363-87.737 52.939 5.399 29.261 83.877-14.117 122.437-39.464" stroke="url(#paint9_linear)" stroke-width="2"/></g><path opacity=".3" fill-rule="evenodd" clip-rule="evenodd" d="M1092.23 721.403h16.41c-.12-90.997-34.93-164.83-77.82-164.83-2.77 0-5.51.308-8.22.908 39.04 8.697 69.51 78.8 69.63 163.922z" fill="#C9D983"/><path d="M724.478 476.457c-68.167 0-123.458 108.79-123.458 242.976h246.916c-.126-134.186-55.291-242.976-123.458-242.976z" fill="url(#paint10_linear)"/><mask id="e" style="mask-type:alpha" maskUnits="userSpaceOnUse" x="601" y="476" width="247" height="244"><path d="M724.478 476.457c-68.167 0-123.458 108.79-123.458 242.976h246.916c-.126-134.186-55.291-242.976-123.458-242.976z" fill="url(#paint11_linear)"/></mask><g mask="url(#e)"><path opacity=".2" d="M611.526 525.485c13.012-15.356 42.242-42.717 55.068-29.316 16.033 16.752-18.123 74.684 4.183 81.664 22.306 6.98 53.673-102.603 80.859-92.133 27.185 10.469-117.107 180.079-66.918 186.361 50.188 6.282 73.191-145.18 94.8-134.711 21.609 10.47-48.794 92.134-24.397 115.865 24.397 23.732 36.945-87.945 56.462-75.382 19.518 12.564 5.577 75.382-13.244 117.959" stroke="url(#paint12_linear)" stroke-width="2"/></g><path opacity=".2" d="M820.355 719.433h27.581c-.126-134.186-55.291-242.976-123.458-242.976-4.662 0-9.264.509-13.791 1.5 61.665 13.499 109.55 116.466 109.668 241.476z" fill="#C9D983"/><path d="M900.405 570.526h-2.28V718.23h2.28V570.526z" fill="#0C5E59"/><path d="M915.911 561.174c-4.903 0-9.463 3.535-12.655 6.729 2.166-3.08 5.13-6.843 7.41-7.528 3.99-1.254 7.183-.684 7.183-.684s-3.649-5.133-9.121-2.737c-2.394 1.026-4.446 4.448-5.928 7.755.798-3.079 1.482-6.729.912-10.037-1.368-8.44-10.717-9.124-10.717-9.124s5.244 7.3 6.156 15.854c.114 1.14.228 2.281.342 3.307-.798-4.904-2.736-10.835-7.524-14.029-11.857-7.87-19.267 5.931-19.267 5.931s6.726-4.22 15.619.229c7.068 3.535 10.032 11.063 10.945 14.143-1.141-2.282-6.043-10.95-13.795-12.205-11.743-1.938-14.707 12.889-14.707 12.889s6.726-5.361 15.049-5.019c6.498.343 11.058 2.966 13.338 5.019-1.254-.342-3.876-.913-7.068-1.027-10.375-.114-12.541 13.801-12.541 13.801l19.724-12.09c-.913 1.597-2.623 5.019-3.535 7.3-1.368 3.194-.456 10.379-.456 10.379s3.192-5.475 4.104-9.01c.913-3.422.685-6.958.571-8.669l13.338 14.486s3.307-8.783-6.84-13.003a106.027 106.027 0 00-3.42-1.369c2.394.342 5.358 1.369 8.436 3.308 5.815 3.764 9.577 9.01 9.577 9.01s3.648-10.607-5.244-14.941c-2.965-1.369-6.271-1.255-9.121-.57 2.166-1.255 5.016-2.167 8.322-1.711 8.095 1.026 10.375 6.729 10.375 6.729s2.28-13.116-9.462-13.116z" fill="url(#paint13_linear)"/><path d="M813.418 479.744h-3.648v241.231h3.648V479.744z" fill="#0C5E59"/><path d="M836.995 458.951c-8.906 0-17.302 6.381-23.154 12.252 3.944-5.615 9.414-12.38 13.612-13.784 7.124-2.297 13.104-1.149 13.104-1.149s-6.743-9.444-16.666-4.977c-4.452 1.914-8.142 8.168-10.813 14.167 1.527-5.616 2.544-12.253 1.654-18.379-2.417-15.316-19.592-16.593-19.592-16.593s9.542 13.274 11.323 28.973c.254 2.042.381 4.084.509 5.999-1.527-9.062-5.089-19.911-13.74-25.654-21.499-14.295-34.984 10.976-34.984 10.976s12.34-7.658 28.496.511c12.722 6.381 18.192 20.293 19.973 25.781-2.163-4.211-10.941-19.91-25.189-22.335-21.372-3.574-26.842 23.612-26.842 23.612s12.212-9.828 27.351-9.19c11.704.511 20.228 5.361 24.426 9.19-2.163-.638-7.124-1.787-12.849-1.787-18.955-.255-22.899 25.144-22.899 25.144l36.002-22.081c-1.527 2.936-4.707 9.062-6.488 13.402-2.417 5.871-.89 18.889-.89 18.889s5.851-9.955 7.505-16.464c1.654-6.254 1.272-12.764 1.018-15.827l24.426 26.42s5.979-16.082-12.34-23.867c-2.418-1.021-4.58-1.915-6.234-2.553 4.453.638 9.796 2.425 15.266 5.999 10.686 6.892 17.429 16.337 17.429 16.337s6.615-19.528-9.669-27.186c-5.343-2.553-11.449-2.17-16.665-1.021 3.944-2.297 9.032-3.957 15.266-3.191 14.757 1.787 18.828 12.381 18.828 12.381s4.198-24.123-17.174-23.995z" fill="url(#paint14_linear)"/><g clip-path="url(#clip0)"><path d="M1129 672.179h-126.08v53.666H1129v-53.666z" fill="#F9F8EF"/><path fill-rule="evenodd" clip-rule="evenodd" d="M1066.66 658.19v.123c1-2.798 3-7.252 6.37-13.897 6.69-12.718 14.15-22.49 14.15-22.49s-3.27 10.857-9.95 23.576c-5.91 11.385-9.15 15.977-10.57 16.672v.649c1.71-2.26 5.48-6.137 12.12-12.203 11.04-9.927 21.93-17.061 21.93-17.061s-7 9.151-18.04 19.233c-6.47 5.826-10.76 9.321-13.43 11.114 2.72-1.691 6.96-4.009 13.12-7.082 13.68-6.824 26.12-11.012 26.12-11.012s-9.64 6.98-23.32 13.804c-10.42 5.316-16.06 7.573-18.5 8.004v.466c2.19-1.218 7.8-3.174 18.5-6.143 15.08-4.188 28.29-6.049 28.29-6.049s-11.5 5.118-26.58 9.306c-4.92 1.365-8.84 2.367-11.92 3.067 3.12-.519 7.14-1.08 12.23-1.671 16.01-2.017 29.38-1.862 29.38-1.862s-12.59 3.413-28.6 5.274c-12.9 1.624-19.24 1.839-21.3 1.376v.33h-1.56v-.222c-.28.083-.68.153-1.24.222h-4.51c-3.42-.155-8.55-.465-15.7-1.396-16.02-2.016-28.61-5.273-28.61-5.273s13.37-.155 29.39 1.861c4.81.559 8.66 1.076 11.7 1.551-2.99-.692-6.75-1.658-11.39-2.947-15.24-4.188-26.59-9.306-26.59-9.306s13.22 1.861 28.3 6.049c10.95 3.043 16.58 5.021 18.65 6.232v-.547c-2.35-.395-8.01-2.7-18.65-8.012-13.68-6.824-23.32-13.804-23.32-13.804s12.43 4.188 26.12 11.012c5.78 2.884 9.86 5.102 12.6 6.762-2.73-1.875-6.9-5.297-12.92-10.794-11.03-10.082-18.03-19.233-18.03-19.233s10.88 6.98 21.92 17.061c4.75 4.336 8.03 7.554 10.14 9.862-1.81-2.353-4.63-7.007-8.74-14.825-6.68-12.718-9.95-23.576-9.95-23.576s7.62 9.772 14.15 22.49c3.76 7.335 5.82 12.039 6.68 14.767v-1.457c-.83-1.926-1.4-7.488-1.4-18.583 0-14.27 2.18-25.902 2.18-25.902s2.18 11.632 2.18 25.902c0 11.092-.57 16.655-1.4 18.582zm-1.56 4.542c-.23-.019-.53-.194-.91-.546.36.428.66.812.91 1.156v-.61zm0 2.943c-.38-.1-.87-.315-1.48-.66.59.396 1.08.75 1.48 1.062v-.402zm1.56-.029c.42-.325.95-.693 1.58-1.105-.65.387-1.17.641-1.58.774v.331zm-1.56 4.236c-.5.034-1.2-.001-2.14-.115.99.254 1.69.492 2.14.711v-.596zm1.56.349c.58-.27 1.51-.568 2.84-.891-1.27.19-2.2.264-2.84.24v.651zm-9.18 1.483h-29.07c4.51-.31 9.95-.465 15.7-.465 5.6 0 10.11.155 13.37.465zm16.64 0h29.07c-4.51-.31-9.95-.62-15.7-.465-5.75.155-10.11.31-13.37.465z" fill="url(#paint15_linear)"/></g><path d="M735.06 692.595a109.558 109.558 0 00-11.059-29.541 69.01 69.01 0 00-2.28-3.878c-5.814-9.694-12.997-18.363-21.319-25.891-1.026-1.026-2.166-1.939-3.306-2.851a110.343 110.343 0 00-29.984-17.793c-1.368-.57-2.736-1.026-4.105-1.483-10.944-3.878-22.801-6.045-35-6.273h-4.332c-12.313.228-24.056 2.395-35 6.273-1.368.457-2.736 1.027-4.105 1.483a110.323 110.323 0 00-29.983 17.793c-1.14.912-2.281 1.939-3.307 2.851-8.322 7.528-15.619 16.197-21.319 25.891-.798 1.255-1.482 2.624-2.28 3.878a109.592 109.592 0 00-11.059 29.541c-.342 1.483-.57 2.966-.912 4.448a110.798 110.798 0 00-1.71 19.504h223.568c0-6.615-.57-13.231-1.71-19.504-.228-1.482-.456-2.965-.798-4.448z" fill="url(#paint16_linear)"/><path opacity=".3" d="M623.676 604.771v111.776h4.332V604.771h-4.332z" fill="url(#paint17_linear)"/><path opacity=".3" d="M584.57 612.641l27.818 104.02h4.446l-28.273-105.503c-1.255.457-2.623.913-3.991 1.483z" fill="url(#paint18_linear)"/><path opacity=".3" d="M551.28 633.285l48.111 83.262h4.903l-49.708-86.113c-1.14.912-2.28 1.939-3.306 2.851z" fill="url(#paint19_linear)"/><path opacity=".3" d="M527.681 663.054l53.583 53.607h6.043l-57.46-57.485c-.684 1.255-1.482 2.624-2.166 3.878z" fill="url(#paint20_linear)"/><path opacity=".3" d="M515.71 697.043l33.86 19.504h8.665l-41.613-24.066c-.342 1.597-.57 3.08-.912 4.562z" fill="url(#paint21_linear)"/><path opacity=".3" d="M634.734 716.661h4.447l27.817-104.02c-1.368-.57-2.736-1.026-4.104-1.483l-28.16 105.503z" fill="url(#paint22_linear)"/><path opacity=".3" d="M647.274 716.661h5.017l48.111-83.262c-1.026-1.026-2.166-1.938-3.306-2.851l-49.822 86.113z" fill="url(#paint23_linear)"/><path d="M664.262 716.661h6.042l53.584-53.607a68.43 68.43 0 00-2.281-3.878l-57.345 57.485z" fill="url(#paint24_linear)" opacity=".3"/><path d="M693.447 716.661h8.665l33.86-19.504c-.228-1.482-.57-2.965-.912-4.448l-41.613 23.952z" fill="#084F15"/><path d="M818.742 701.378c-1.482-6.616-3.876-13.003-7.069-18.82a49.858 49.858 0 01-1.368-2.509c-3.648-6.159-8.208-11.634-13.567-16.424-.684-.571-1.368-1.255-2.166-1.825-5.7-4.677-12.084-8.555-19.039-11.292-.798-.342-1.71-.684-2.622-.912-6.955-2.51-14.479-3.878-22.231-3.992h-2.737c-7.752.114-15.277 1.596-22.231 3.992-.912.342-1.71.57-2.622.912-6.955 2.737-13.339 6.615-19.039 11.292-.684.57-1.369 1.254-2.167 1.825-5.358 4.79-9.918 10.265-13.566 16.424-.456.798-.913 1.597-1.369 2.509a70.452 70.452 0 00-7.068 18.82c-.228.912-.342 1.938-.57 2.851-.684 3.992-1.14 8.212-1.14 12.432h142.053c0-4.22-.342-8.44-1.14-12.432.114-1.027-.114-1.939-.342-2.851z" fill="url(#paint25_linear)"/><path opacity=".3" d="M747.942 645.604v71.057h2.737v-71.057h-2.737z" fill="url(#paint26_linear)"/><path opacity=".3" d="M723.203 650.508l17.671 66.039h2.85l-17.899-67.065c-.912.456-1.824.684-2.622 1.026z" fill="url(#paint27_linear)"/><path opacity=".3" d="M701.998 663.739l30.554 52.922h3.192l-31.58-54.747c-.798.57-1.482 1.14-2.166 1.825z" fill="url(#paint28_linear)"/><path opacity=".3" d="M686.949 682.558l34.088 33.989h3.877l-36.483-36.498c-.456.912-1.026 1.711-1.482 2.509z" fill="url(#paint29_linear)"/><path opacity=".3" d="M679.425 704.229l21.547 12.432h5.472l-26.449-15.284c-.228.913-.456 1.825-.57 2.852z" fill="url(#paint30_linear)"/><path opacity=".3" d="M755.011 716.661h2.85l17.671-66.039c-.798-.342-1.71-.684-2.622-.912l-17.899 66.951z" fill="url(#paint31_linear)"/><path opacity=".3" d="M762.992 716.661h3.192l30.554-52.922c-.684-.571-1.368-1.255-2.166-1.825l-31.58 54.747z" fill="url(#paint32_linear)"/><path opacity=".3" d="M773.822 716.661h3.876l34.089-33.989a49.858 49.858 0 01-1.368-2.509l-36.597 36.498z" fill="url(#paint33_linear)"/><path opacity=".3" d="M792.292 716.661h5.472l21.548-12.432c-.114-.913-.342-1.939-.57-2.852l-26.45 15.284z" fill="url(#paint34_linear)"/><path d="M1104 709H-192v95.58h1296V709z" fill="url(#paint35_linear)"/><mask id="f" style="mask-type:alpha" maskUnits="userSpaceOnUse" x="-192" y="709" width="1296" height="96"><path d="M1104 709H-192v95.58h1296V709z" fill="url(#paint36_linear)"/></mask><g mask="url(#f)"><path opacity=".7" fill-rule="evenodd" clip-rule="evenodd" d="M358.791 747.025c-8.604 9.061-17.383 15.24-26.766 14.814-2.327-.106-4.196-.585-5.595-1.473-1.429-.908-2.3-2.201-2.676-3.767-.368-1.533-.253-3.286.184-5.162.438-1.884 1.216-3.955 2.239-6.155 3.746-8.058 11.001-18.29 18.026-28.197v-.001h.001c.613-.866 1.225-1.728 1.832-2.587 3.798-5.367 7.439-10.584 10.354-15.282 2.928-4.719 5.068-8.827 5.925-11.992.429-1.583.508-2.828.285-3.757-.21-.874-.696-1.516-1.58-1.95-.934-.459-2.364-.706-4.456-.587-2.08.119-4.727.595-8.031 1.496-6.507 1.774-13.756 5.867-21.592 11.708-7.827 5.834-16.181 13.367-24.898 21.958-12.288 12.11-25.246 26.269-38.425 40.67l-.001.001-.002.002c-5.53 6.043-11.098 12.128-16.673 18.122-18.831 20.248-37.721 39.45-55.273 52.27-17.481 12.769-33.987 19.47-47.885 13.994-6.871-2.706-10.331-6.595-10.743-11.503-.399-4.762 2.125-10.131 6.254-15.737 8.288-11.256 23.687-24.3 38.638-36.827l1.608-1.346.066-.056.03-.025c6.911-5.788 13.679-11.456 19.593-16.798 6.408-5.789 11.762-11.15 15.191-15.822 1.715-2.336 2.916-4.456 3.539-6.333.621-1.872.647-3.43.125-4.724-.521-1.29-1.654-2.482-3.686-3.488-2.04-1.01-4.925-1.8-8.816-2.299-12.373-1.586-28.247 2.146-45.927 9.4-17.65 7.243-36.975 17.942-56.199 30.142-38.447 24.4-76.394 54.741-99.585 75.235l-1.324-1.498c23.249-20.546 61.28-50.955 99.837-75.425 19.278-12.235 38.712-23.001 56.512-30.304 17.771-7.292 34.041-11.188 46.94-9.534 4.006.514 7.134 1.344 9.45 2.491 2.326 1.152 3.895 2.656 4.652 4.53.755 1.871.636 3.944-.081 6.104-.715 2.153-2.046 4.464-3.824 6.886-3.557 4.845-9.037 10.318-15.463 16.123-5.943 5.368-12.738 11.059-19.641 16.84l-.002.002-.023.019-1.688 1.414c-15.019 12.583-30.198 25.459-38.312 36.478-4.073 5.531-6.206 10.388-5.871 14.385.323 3.85 2.988 7.251 9.483 9.81 12.831 5.054 28.523-1.003 45.973-13.749 17.379-12.694 36.154-31.765 54.988-52.017 5.548-5.966 11.102-12.035 16.624-18.069 13.195-14.419 26.21-28.64 38.537-40.788 8.748-8.622 17.176-16.226 25.106-22.137 7.921-5.904 15.404-10.164 22.262-12.035 3.379-.921 6.174-1.433 8.442-1.562 2.256-.129 4.08.114 5.453.788 1.423.699 2.295 1.831 2.643 3.278.335 1.393.17 3.013-.299 4.747-.94 3.467-3.218 7.787-6.156 12.523-2.951 4.756-6.625 10.019-10.421 15.384l-1.674 2.362-.104.147-.022.032c-7.066 9.966-14.214 20.049-17.879 27.931-.989 2.127-1.708 4.062-2.104 5.765-.398 1.71-.456 3.124-.187 4.243.26 1.085.833 1.928 1.803 2.544 1 .635 2.485 1.067 4.613 1.164 8.437.384 16.668-5.182 25.226-14.194 6.943-7.311 13.936-16.707 21.283-26.58h.001l.004-.007.017-.022a1698.75 1698.75 0 015.072-6.792c9.214-12.251 19.042-24.633 29.943-33.951 10.906-9.323 22.976-15.655 36.669-15.655v2c-13.037 0-24.66 6.02-35.37 15.175-10.716 9.161-20.43 21.383-29.643 33.634-1.7 2.26-3.384 4.523-5.054 6.767l-.002.002v.001c-7.351 9.878-14.436 19.398-21.47 26.806zm385.327-53.304c-1.994-3.126-5.614-4.977-11.877-4.782-12.457.39-24.354 10.452-36.015 25.755-11.615 15.244-22.767 35.373-33.813 55.338l-.153.275c-10.972 19.831-21.846 39.484-32.914 53.793-5.561 7.19-11.212 13.087-16.998 16.984-5.798 3.905-11.788 5.84-17.975 4.987-6.102-.842-10.154-3.403-12.485-7.355-2.298-3.898-2.823-8.983-2.27-14.691 1.105-11.406 6.584-25.922 12.139-40.061.438-1.116.877-2.229 1.315-3.339l.027-.068v-.001c5.13-13.018 10.047-25.492 11.587-34.963.839-5.161.632-9.202-.883-11.92-1.453-2.606-4.257-4.233-9.293-4.233-4.953 0-9.771 2.188-14.56 6.173-4.794 3.988-9.491 9.722-14.176 16.673-7.852 11.652-15.565 26.56-23.585 42.064-1.557 3.008-3.125 6.039-4.707 9.073-9.717 18.623-19.986 37.34-31.501 51.403-11.501 14.046-24.413 23.654-39.451 23.654-7.429 0-12.29-1.934-14.905-5.659-2.584-3.68-2.746-8.802-1.566-14.625 1.187-5.857 3.78-12.659 7.015-19.909 2.74-6.141 5.962-12.651 9.217-19.226l.001-.001c.59-1.193 1.182-2.387 1.771-3.583 7.719-15.64 15.117-31.27 16.611-43.369.744-6.027-.003-11.001-2.732-14.649-2.719-3.636-7.568-6.17-15.511-6.964-25.577-2.558-51.526 8.633-73.653 23.806-22.109 15.16-40.26 34.2-50.196 47.089l-1.584-1.221c10.044-13.03 28.343-32.222 50.649-47.518 22.288-15.283 48.719-26.772 74.983-24.146 8.256.826 13.735 3.506 16.914 7.756 3.168 4.236 3.889 9.818 3.115 16.092-1.544 12.505-9.131 28.465-16.802 44.01-.592 1.2-1.185 2.397-1.777 3.592v.001c-3.256 6.577-6.457 13.045-9.18 19.146-3.22 7.217-5.739 13.856-6.881 19.491-1.149 5.669-.856 10.09 1.243 13.079 2.068 2.946 6.118 4.808 13.268 4.808 14.122 0 26.522-9.022 37.904-22.921 11.367-13.882 21.551-32.425 31.274-51.062 1.574-3.015 3.136-6.034 4.688-9.035l.001-.002c8.018-15.5 15.796-30.535 23.719-42.291 4.731-7.021 9.552-12.931 14.554-17.094 5.007-4.165 10.263-6.635 15.84-6.635 5.494 0 9.12 1.816 11.04 5.259 1.857 3.332 1.967 7.947 1.11 13.215-1.577 9.697-6.575 22.376-11.675 35.31v.001l-1.367 3.471c-5.583 14.211-10.937 28.45-12.009 39.522-.536 5.53.016 10.114 2.002 13.482 1.953 3.312 5.393 5.611 11.036 6.389 5.559.767 11.06-.943 16.583-4.664 5.535-3.727 11.034-9.437 16.534-16.548 10.974-14.188 21.788-33.734 32.805-53.644l.094-.17c11.025-19.927 22.25-40.197 33.973-55.581 11.677-15.325 24.08-26.121 37.543-26.542 6.697-.209 11.126 1.788 13.625 5.705 2.436 3.818 2.872 9.227 2.234 15.47-.642 6.277-2.396 13.604-4.556 21.411-1.081 3.909-2.268 7.951-3.474 12.054l-.055.185c-1.189 4.046-2.395 8.15-3.54 12.256-2.325 8.341-4.387 16.658-5.523 24.445-1.137 7.794-1.337 14.992.018 21.114 1.35 6.097 4.233 11.102 9.27 14.604 5.06 3.518 12.403 5.596 22.812 5.596v2c-10.651 0-18.444-2.124-23.953-5.953-5.531-3.845-8.646-9.332-10.081-15.815-1.43-6.459-1.199-13.929-.045-21.835 1.154-7.913 3.244-16.327 5.576-24.693 1.145-4.109 2.352-8.214 3.537-12.246l.006-.022.059-.2c1.207-4.105 2.389-8.132 3.466-12.023 2.155-7.792 3.87-14.982 4.493-21.082.628-6.136.127-10.965-1.93-14.19zm313.052 94.372c-1.87-6.234-5.79-13.049-11.01-20.132-5.22-7.092-11.77-14.506-18.95-21.94-11.96-12.389-25.73-24.883-38.059-36.079-2.463-2.236-4.868-4.42-7.191-6.54-6.987-6.379-13.219-12.183-18.024-17.127-4.842-4.981-8.116-8.974-9.324-11.745-.611-1.4-.568-2.202-.315-2.645.25-.435.936-.922 2.655-1.093 3.411-.339 9.668.691 19.604 3.53l.549-1.924c-9.909-2.831-16.511-3.978-20.351-3.596-1.908.19-3.446.788-4.192 2.089-.741 1.293-.464 2.877.216 4.438 1.374 3.152 4.909 7.386 9.724 12.34 4.851 4.991 11.123 10.831 18.109 17.209 2.332 2.129 4.744 4.319 7.211 6.558 12.328 11.197 26.038 23.638 37.948 35.974 7.15 7.4 13.64 14.743 18.78 21.737 5.16 7.003 8.93 13.604 10.7 19.52.9 3.006 1.43 5.42 1.63 7.312.19 1.912.04 3.184-.31 3.98-.31.72-.8 1.083-1.52 1.212-.8.144-1.94-.001-3.48-.524-3.05-1.043-7.19-3.419-12.23-6.778-5.03-3.345-10.88-7.609-17.37-12.37l-2.43-1.789c-12.43-9.137-26.944-19.803-42.085-29.088-16.133-9.893-33.058-18.267-49.024-21.542-7.904-1.621-13.455-2.304-17.008-2.113-1.76.094-3.181.409-4.154 1.058-.506.337-.904.773-1.145 1.317-.241.541-.296 1.121-.224 1.701.138 1.121.761 2.339 1.643 3.598.899 1.281 2.141 2.708 3.654 4.261 3.027 3.107 7.223 6.804 12.135 10.957 2.91 2.459 6.073 5.081 9.406 7.843l.005.004c7.951 6.59 16.862 13.975 25.572 21.848 12.36 11.172 24.233 23.256 32.263 35.301 2.008 3.011 3.33 5.416 4.059 7.289.744 1.913.792 3.08.547 3.739-.199.537-.693.971-1.897 1.126-1.23.159-2.985-.017-5.271-.546-4.551-1.054-10.84-3.421-18.453-6.675-7.598-3.249-16.456-7.355-26.128-11.862l-2.411-1.124c-18.782-8.755-40.393-18.829-61.568-26.924-22.066-8.437-43.767-14.769-61.362-15.178-7.022-.163-12.275.534-15.969 2.002-3.729 1.483-5.948 3.793-6.665 6.828-.699 2.96.089 6.388 1.832 10.029 1.752 3.661 4.532 7.67 8.022 11.86 13.942 16.741 39.714 36.974 59.166 50.482l1.141-1.642c-19.428-13.492-45.01-33.597-58.77-50.12-3.436-4.126-6.103-7.991-7.755-11.443-1.662-3.472-2.235-6.396-1.689-8.707.528-2.237 2.162-4.118 5.457-5.428 3.331-1.325 8.273-2.022 15.183-1.861 17.235.401 38.667 6.624 60.695 15.046 21.106 8.069 42.66 18.116 61.456 26.878l2.393 1.115c9.666 4.504 18.553 8.624 26.186 11.888 7.619 3.257 14.05 5.687 18.788 6.784 2.359.547 4.392.786 5.977.582 1.611-.208 2.96-.915 3.517-2.413.511-1.375.229-3.137-.559-5.162-.803-2.066-2.215-4.609-4.257-7.673-8.17-12.255-20.192-24.471-32.587-35.675-8.742-7.902-17.711-15.335-25.673-21.934l-.002-.002-.004-.003c-3.323-2.754-6.47-5.363-9.353-7.8-4.909-4.15-9.041-7.793-11.994-10.825-1.477-1.516-2.638-2.857-3.449-4.014-.827-1.179-1.219-2.068-1.296-2.694-.037-.293.001-.496.067-.644.064-.146.185-.305.426-.465.519-.346 1.498-.636 3.153-.725 3.275-.176 8.608.457 16.499 2.076 15.624 3.205 32.314 11.436 48.379 21.287 15.067 9.239 29.511 19.859 41.961 29.003.81.601 1.62 1.194 2.42 1.781 6.48 4.757 12.37 9.048 17.44 12.423 5.05 3.362 9.37 5.871 12.7 7.006 1.65.565 3.18.831 4.47.6 1.38-.246 2.42-1.044 3.01-2.38.55-1.262.67-2.941.45-4.986-.21-2.065-.77-4.612-1.69-7.681z" fill="url(#paint37_linear)"/><path opacity=".1" d="M196.158 742.448c-133.23 0-155.6 44.253-390.588 44.253v69.719H1104V707.38c-285.09 0-248.395 62.204-493.968 62.204-245.572 0-298.497-27.136-413.874-27.136z" fill="url(#paint38_linear)"/></g><path opacity=".2" d="M283.507 414.869c114.082-114.082 114.122-299.085.091-413.216-114.032-114.131-298.954-114.172-413.035-.09-114.082 114.081-114.122 299.084-.091 413.215 114.032 114.132 298.954 114.172 413.035.091z" fill="url(#paint39_linear)"/><path d="M45.375 776.59A114.68 114.68 0 0033.8 745.671a71.876 71.876 0 00-2.386-4.059c-6.086-10.147-13.604-19.22-22.315-27.099-1.074-1.074-2.267-2.03-3.46-2.985a115.517 115.517 0 00-31.383-18.623c-1.432-.597-2.864-1.074-4.296-1.552-11.455-4.058-23.865-6.327-36.633-6.565h-4.535c-12.887.238-25.177 2.507-36.633 6.565-1.432.478-2.864 1.075-4.296 1.552a115.53 115.53 0 00-31.383 18.623c-1.193.955-2.386 2.03-3.46 2.985-8.711 7.879-16.348 16.952-22.314 27.099-.836 1.313-1.551 2.746-2.387 4.059a114.675 114.675 0 00-11.574 30.919c-.358 1.552-.597 3.104-.955 4.656A115.974 115.974 0 00-186 801.66H48c0-6.924-.597-13.848-1.79-20.414-.239-1.552-.477-3.104-.835-4.656z" fill="url(#paint40_linear)"/><path fill-rule="evenodd" clip-rule="evenodd" d="M-71.207 684.668V801.66h4.534V684.668h-4.534zm-40.929 8.237l29.115 108.874h4.654l-29.593-110.426c-.344.126-.696.251-1.054.378h-.001c-1.009.359-2.065.734-3.121 1.174zm15.512 108.755l-50.356-87.147.323-.287c.987-.88 2.063-1.837 3.138-2.698l52.026 90.132h-5.131zm-75.057-55.989l56.084 56.108h6.324l-60.14-60.167c-.358.657-.746 1.343-1.134 2.029-.388.687-.776 1.373-1.134 2.03zm22.911 55.989l-35.44-20.414c.198-.857.359-1.713.524-2.59.134-.712.27-1.437.431-2.185l43.554 25.189h-9.069zm89.137.119h4.654l29.116-108.874c-1.432-.597-2.864-1.074-4.296-1.552l-29.474 110.426zm18.377 0h-5.25l52.145-90.131c1.193.955 2.387 1.91 3.46 2.984l-50.355 87.147zm12.529 0h6.324l56.084-56.108a71.934 71.934 0 00-2.386-4.059l-60.022 60.167zm39.617 0H1.82l43.555-25.07c.358 1.552.716 3.104.955 4.656l-35.44 20.414z" fill="url(#paint41_linear)"/><path d="M1099 0H-186v800H999c55.23 0 100-44.772 100-100V0z" fill="url(#paint42_linear)"/></g><path opacity=".56" d="M1197.26 559.321c112.86-112.91 112.86-295.972 0-408.881-112.86-112.91-295.846-112.909-408.706 0-112.86 112.909-112.86 295.971 0 408.88 112.86 112.91 295.846 112.91 408.706.001z" fill="url(#paint43_linear)"/><path opacity=".2" d="M849.357 751.553c82.54-82.576 82.54-216.459 0-299.035-82.54-82.577-216.364-82.577-298.905 0-82.54 82.576-82.54 216.459 0 299.035 82.541 82.576 216.365 82.577 298.905 0z" fill="url(#paint44_linear)"/><path d="M439.272 820.483a75.602 75.602 0 00-7.617-20.371 47.078 47.078 0 00-1.571-2.674 78.435 78.435 0 00-14.685-17.854c-.707-.708-1.492-1.337-2.278-1.966a75.991 75.991 0 00-20.653-12.27c-.943-.393-1.885-.708-2.828-1.022-7.539-2.674-15.706-4.169-24.109-4.326h-2.984c-8.481.157-16.57 1.652-24.109 4.326-.942.314-1.885.708-2.827 1.022a76.012 76.012 0 00-20.654 12.27c-.785.629-1.57 1.337-2.277 1.966-5.733 5.191-10.759 11.169-14.686 17.854-.549.865-1.021 1.809-1.57 2.674a75.605 75.605 0 00-7.618 20.371c-.235 1.023-.392 2.045-.628 3.068A76.492 76.492 0 00287 837h154c0-4.562-.393-9.124-1.178-13.449-.157-1.023-.314-2.045-.55-3.068z" fill="#F4F6D5"/><path d="M593.307 843.259a117.82 117.82 0 00-11.871-31.746 73.446 73.446 0 00-2.448-4.168c-6.241-10.419-13.952-19.734-22.886-27.824-1.102-1.103-2.325-2.084-3.549-3.064a118.409 118.409 0 00-32.188-19.122c-1.469-.613-2.937-1.103-4.406-1.593-11.749-4.168-24.477-6.497-37.572-6.742h-4.651c-13.218.245-25.824 2.574-37.573 6.742-1.468.49-2.937 1.103-4.406 1.593a118.403 118.403 0 00-32.187 19.122c-1.224.98-2.448 2.083-3.55 3.064-8.934 8.09-16.767 17.405-22.886 27.824-.857 1.349-1.591 2.819-2.448 4.168a117.853 117.853 0 00-11.871 31.746c-.367 1.594-.612 3.187-.979 4.781A119.165 119.165 0 00356 869h240c0-7.109-.612-14.219-1.836-20.96-.245-1.594-.489-3.187-.857-4.781z" fill="#fff"/><path fill-rule="evenodd" clip-rule="evenodd" d="M743.973 515.132c-.227 5.69-.886 10.731-1.568 15.945l-.111.853c-.719 5.518-1.918 11.036-3.117 16.554l-.001.004c-2.399 11.038-5.517 21.837-9.835 32.636l-1.679 4.079-.48.96-.239.48c0 .099-.041.158-.09.226-.068.096-.15.213-.15.494-.48 1.2-1.199 2.4-2.399 3.6-.959 1.199-2.398 2.159-3.837 3.119h-.001c-1.439.72-3.118 1.2-4.557 1.44-2.878.24-5.277-.24-7.196-.72-3.838-1.2-6.476-2.88-9.115-4.799-2.638-1.68-4.796-3.599-6.955-5.519l-.001-.001c-8.47-7.767-15.324-15.996-21.695-24.914-4.792-1.704-8.768-5.802-8.768-5.802l5.475-17.147-5.475 16.907-12.233-7.439 3.598-14.638 14.152 5.039v.001l9.594 15.117-.055 1.925.296-.245c1.919 1.8 3.897 3.6 5.876 5.4a513.683 513.683 0 015.877 5.399c4.077 3.599 8.154 6.718 12.232 9.838l.001.001c.626.417 1.231.834 1.828 1.245v.001c1.463 1.008 2.875 1.981 4.409 2.833 1.679 1.051 3.543 1.733 4.947 2.209l.33-.769 1.439-3.6c3.358-9.598 5.996-19.677 7.915-29.996.516-2.707.962-5.484 1.413-8.292.389-2.42.782-4.863 1.226-7.306.719-5.039 1.439-10.558 1.679-15.358l17.27.24zm-30.315 65.366c.411.056.522-.094.332-.094-.066 0-.187.036-.332.094z" fill="url(#paint45_linear)"/><path d="M735.202 492.984c-7.196 1.92-12.473 31.916-12.473 31.916l20.148 13.678s19.189-30.236 13.673-38.395c-5.997-8.399-10.794-10.078-21.348-7.199z" fill="#FFEDBA"/><path opacity=".3" d="M735.682 499.703l-5.517 30.236 11.274 7.679-5.757-37.915z" fill="#ED6B57"/><path d="M777.045 872.976h-23.704l-1.281-40.193h23.383l1.602 40.193z" fill="#FFC3BD"/><path d="M753.088 870.804h23.943c.866 0 1.443.594 1.731 1.487l2.596 19.631c.289 2.082-1.442 3.867-3.461 3.867-8.366 0-12.405-.595-22.789-.595-6.347 0-19.905.595-28.847.595-8.654 0-9.52-9.221-5.77-9.816 16.732-3.569 23.366-8.923 28.847-13.682 1.154-.893 2.596-1.487 3.75-1.487z" fill="#14365B"/><path d="M752.06 833.869l.629 15.208h23.269l-.943-15.208H752.06z" fill="#F29994"/><path d="M749.886 842.855s-14.009-124.064-15.208-180.217c-.389-18.19 2.061-43.451 4.345-60.696h38.021l-2.503 60.696c-2.159 55.193 2.503 180.217 2.503 180.217h-27.158z" fill="url(#paint46_linear)"/><path d="M740.135 492.467s-3.056 9.689-3.802 18.18c-.822 9.361-9.802 26.116-4.593 35.893 12.172 15.752 6.107 39.829 8.395 54.021h71.96c-1.2-29.276-1.2-47.274 12.712-107.506 0 0-15.111-3.36-30.462-4.079-11.994-.48-22.068-.96-32.622 0-14.152 1.199-21.588 3.491-21.588 3.491z" fill="#FFEDBA"/><path d="M790.987 452.02c-2.159 10.559-4.078 29.756 3.118 36.716 0 0-2.879 10.558-22.308 10.558-21.587 0-10.314-10.558-10.314-10.558 11.754-2.88 11.514-11.519 9.355-19.678l20.149-17.038z" fill="url(#paint47_linear)"/><path d="M782.831 458.979l-11.753 10.079c.48 1.92.959 3.84.959 5.759 4.558-.72 10.555-5.519 11.034-10.318.24-2.16.24-4.32-.24-5.52z" fill="#F29994"/><path d="M754.413 443.37c-7.697-11.546-5.269-22.222 0-28.179h20.619c.687 9.164 2.062 28.454 2.062 32.303 0 3.848 19.702-2.75 17.869 1.374-4.582-.916-32.852 6.048-40.55-5.498z" fill="#0F264C"/><path d="M802.021 432.823c-4.078 17.037-5.517 24.476-15.831 31.676-15.591 11.038-35.5 2.159-36.699-15.838-.96-16.078 5.996-41.515 23.986-45.355 18.23-3.599 32.862 12.479 28.544 29.517z" fill="url(#paint48_linear)"/><path d="M781.025 844.732h-33.958l-2.612-10.811 38.021-1.138-1.451 11.949z" fill="#4B2A2A"/><path d="M771.079 634.397c-7.974 15.955-5.103 41.125-3.811 62.597 1.585 26.325 3.014 48.73 6.449 61.947 3.118-36.235 8.635-80.63 12.713-113.026-2.399-18.477-7.196-27.836-15.351-11.518z" fill="#EE4D47" fill-opacity=".29" style="mix-blend-mode:multiply"/><path d="M843.853 840.387l-22.812-92.336v-90.707l-6.723-54.859h-40.737c-4.78 30.417 5.818 113.701 14.327 156.972l26.41 80.93h29.535z" fill="url(#paint49_linear)"/><path d="M827.015 873.519l-6.518-26.071h22.813l3.802 26.071h-20.097z" fill="#FFC3BD"/><path d="M818.383 884.808l7.844-11.832h20.73c2.562 1.535 3.727 11.139 4.485 17.586.295 2.509-1.267 4.912-3.696 5.609l-17.597 5.049h-25.458a3.677 3.677 0 01-3.676-3.746c0-7.35 12.111-12.053 17.368-12.666z" fill="#14365B"/><path fill-rule="evenodd" clip-rule="evenodd" d="M843.864 851.25l-.554-3.802h-22.813l.951 3.802h22.416z" fill="#F29994"/><path d="M848.376 847.991h-33.957l-2.612-10.811 38.02-1.138-1.451 11.949z" fill="#4B2A2A"/><circle r="20.619" transform="matrix(1 0 0 -1 812.146 428.25)" fill="#0F264C"/><path d="M774.965 432.801c.254-1.435-.28-2.73-1.193-2.892-.913-.161-1.859.871-2.114 2.307-.254 1.435.28 2.73 1.194 2.892.913.162 1.859-.871 2.113-2.307zM759.084 430.183c-.24 1.44-1.199 2.4-2.159 2.16-.959-.24-1.439-1.44-1.199-2.88s1.2-2.4 2.159-2.16c.959.24 1.439 1.44 1.199 2.88z" fill="#0F264C"/><path d="M758.365 427.543l-3.118-1.68c-.24 0 1.199 2.88 3.118 1.68z" fill="#0F264C"/><path d="M762.922 433.303s-3.358 5.519-6.716 8.158c1.439 2.16 4.797 1.92 4.797 1.92l1.919-10.078z" fill="#ED847E"/><path d="M769.124 451.488c-1.059 0-2.118 0-3.53-.345-.353 0-.706-.345-.353-.689 0-.345.353-.69.706-.345 9.177 1.724 14.472-3.794 14.472-3.794.353-.345.706-.345.706 0 .353.345.353.69 0 .69 0 0-4.236 4.483-12.001 4.483z" fill="#0F264C"/><path d="M811.39 417.576c7.994 19.055-8.426 28.801-17.636 31.292l8.818-17.281-1.764-9.341c-8.033-4.982-21.985-15.132-13.52-15.88 10.581-.934 21.162 4.204 24.102 11.21z" fill="#D3D86C"/><path d="M774.436 402.107c-7.916 4.559 11.513 47.513 25.905 41.514 14.392-5.999 9.595-29.996 2.639-35.995-7.196-6.239-17.511-11.999-28.544-5.519z" fill="#0F264C"/><path d="M808.708 417.253c9.347 28.041-9.851 42.383-20.618 46.048l10.309-25.429-2.062-13.746c-9.393-7.331-25.704-22.268-15.808-23.368 12.372-1.374 24.743 6.186 28.179 16.495z" fill="#0F264C"/><path d="M769.879 399.947s-9.595 1.44-15.831 13.198c-6.477 11.999 30.223-11.518 24.945-13.198-5.037-1.68-9.114 0-9.114 0z" fill="#0F264C"/><path d="M802.741 445.781c-1.44 3.36-4.078 5.759-6.956 6.959-4.078 1.68-6.717-1.92-5.997-6.239.72-3.84 3.598-9.119 8.155-9.119 4.318 0 6.477 4.319 4.798 8.399z" fill="url(#paint50_linear)"/><path fill-rule="evenodd" clip-rule="evenodd" d="M832.482 511.773c4.078 9.598 7.196 19.197 10.075 29.036 2.878 9.839 5.277 19.917 6.476 30.476.24 2.64.48 5.279.72 8.159v2.16c0 .034.004.103.011.201.042.587.16 2.233-.251 3.878-.24.96-.72 2.16-1.439 3.12-.72 1.2-1.679 2.16-2.639 2.879-2.159 1.44-4.078 1.92-5.517 2.16-.994.166-1.873.103-2.638.048a13.57 13.57 0 00-.96-.048c-.45-.112-.9-.172-1.325-.229-.481-.064-.931-.123-1.313-.251-1.679-.48-3.119-.96-4.318-1.44-2.638-1.199-5.037-2.399-7.436-3.599-9.115-5.279-17.27-11.279-24.945-17.998l.121-.179c-3.261-1.659-5.839-4.762-7.271-6.779l-11.08-12.239 7.196-13.439 12.233 8.399v.001l5.855 17.808 1.223.614c7.604 3.817 15.346 7.703 22.905 10.854a39.263 39.263 0 004.441 1.659 60.47 60.47 0 01-.363-2.619c-.72-4.559-1.919-9.117-3.118-13.675l-.001-.004a407.836 407.836 0 00-1.919-6.959c-.659-2.339-1.319-4.679-1.919-6.959-2.878-9.119-6.236-18.478-9.594-27.356l16.79-7.679z" fill="#FFC3BD"/><path d="M779.473 423.704c-.24 0-.48 0-.72-.24-2.638-2.64-5.517-2.16-5.756-2.16-.48 0-.96-.24-.96-.72s.24-.96.72-.96c.24 0 4.077-.72 7.196 2.64.239.24.239.96 0 1.2-.24.24-.24.24-.48.24zM753.328 421.544c-.24 0-.48 0-.48-.24-.24-.24-.24-.96 0-1.2 3.118-3.359 6.956-2.639 7.196-2.639.48 0 .719.48.719.959 0 .48-.479.72-.959.72-.24 0-3.118-.48-5.757 2.16-.24.24-.48.24-.719.24z" fill="#0F264C"/><path d="M824.807 492.815c7.196 2.16 15.832 27.117 15.832 27.117l-28.065 19.917s-10.314-20.637-7.196-29.996c3.358-9.599 11.274-19.438 19.429-17.038z" fill="#FFEDBA"/><path d="M741.432 872.976c-2.975 0-5.951-.434-7.651-2.171-.85-.868-1.275-2.171-1.275-3.908 0-.868.425-1.737 1.275-2.171 3.826-2.171 16.153 4.342 17.853 5.211.426 0 .425.434.425.868s-.425.434-.425.434c-2.975 1.303-6.801 1.737-10.202 1.737zm-5.526-6.513c-.425 0-.85 0-1.275.434-.425 0-.425.435-.425.869 0 .868 0 1.736.85 2.605 1.701 1.737 7.227 2.171 14.028.868-4.676-2.605-10.202-4.776-13.178-4.776z" fill="#9FC6FF"/><path d="M751.206 871.89c-4.261-1.58-11.505-7.901-11.079-11.061 0-.79.853-1.58 2.983-1.975 1.705 0 2.983.395 4.262 1.185 3.835 3.16 4.687 11.061 4.687 11.061 0 .395 0 .395-.426.79h-.427zm-7.67-11.851h-.426c-1.278 0-1.278.79-1.278.79-.426 1.975 4.687 7.111 8.522 9.086-.426-2.37-1.278-7.111-3.835-9.086-.852-.395-1.704-.79-2.983-.79zM821.406 876.141c-2.332-1.714-4.414-3.767-4.746-6.108-.166-1.17.251-2.436 1.251-3.797.5-.68 1.333-1.116 2.25-.967 4.248.502 10.158 12.705 10.991 14.365.333.245.083.585-.167.925-.25.341-.583.096-.583.096-3.082-.693-6.331-2.556-8.996-4.514zm-.58-8.287c-.333-.244-.666-.489-1.249-.394-.333-.245-.584.096-.834.436-.5.681-1 1.361-.833 2.531.332 2.341 4.413 5.863 10.493 8.759-2.164-4.734-5.245-9.618-7.577-11.332z" fill="#9FC6FF"/><path d="M829.692 880.919c-2.43-3.693-4.467-12.818-2.313-15.049.455-.619 1.578-.747 3.475.17 1.336.982 2.11 2.027 2.657 3.383 1.186 4.685-2.696 11.367-2.696 11.367-.228.31-.228.31-.789.374l-.334-.245zm.813-13.705l-.334-.245c-1.002-.736-1.457-.117-1.457-.117-1.471 1.302-.421 8.271 1.447 12.028 1.031-2.103 3.093-6.309 2.227-9.329-.44-.8-.881-1.601-1.883-2.337z" fill="#9FC6FF"/><path d="M813.054 596.242l1.919 6.479c.24.48-.24.96-1.2.96h-74.118c-.719 0-1.199-.24-1.199-.72l-.72-6.479c0-.48.48-.72 1.2-.72h72.919c.719-.24 1.199 0 1.199.48z" fill="#F18069"/><path d="M803.459 604.401h1.919c.48 0 .72-.24.72-.48l-.96-8.399c0-.24-.479-.48-.719-.48H802.5c-.48 0-.72.24-.72.48l.96 8.399c0 .24.24.48.719.48zM745.173 604.401h1.919c.48 0 .72-.24.72-.48l-.96-8.399c0-.24-.48-.48-.719-.48h-1.919c-.48 0-.72.24-.72.48l.959 8.399c0 .24.48.48.72.48zM774.196 604.401h1.919c.479 0 .719-.24.719-.48l-.959-8.399c0-.24-.48-.48-.72-.48h-1.919c-.48 0-.719.24-.719.48l.959 8.399c0 .24.48.48.72.48z" fill="#6A2828"/><path d="M774.196 430.183l-3.118-1.68c0 .24 1.199 3.12 3.118 1.68z" fill="#0F264C"/><path d="M606.379 428.326h-18.105l-2.452-10.943s7.167 4.151 8.864 1.321c1.697-2.83 1.32-1.698 3.018-1.321 1.697.377 1.697-1.887 3.771-.566 2.264 1.509 5.658 8.679 4.904 11.509z" fill="#6B1912"/><path d="M587.709 877.938l22.254-1.887-1.132-27.546-22.442 2.075 1.32 27.358z" fill="#D88D6C"/><path d="M629.199 874.165s-14.71-6.793-17.162-11.698c0 0-4.338-15.849-10.938-7.547 0 0-6.79 5.471-16.408 1.132l-1.131 29.999 66.573-.189c-1.698-4.528-3.206-9.622-20.934-11.697z" fill="url(#paint51_linear)"/><path d="M583.56 886.24l-.377 4.717 67.138-.189c0-1.887.566-2.83-.377-4.717l-66.384.189z" fill="#C73E39"/><path d="M490.206 874.165l22.254 3.773 5.846-26.792-22.065-3.773-6.035 26.792z" fill="#D88D6C"/><path d="M533.016 874.165s-14.71-6.793-17.162-11.698c0 0 3.395-12.453-4.526-6.227 0 0-13.579 5.095-19.236-1.132l-4.527 31.132 66.573-.189c-2.074-4.717-3.583-9.811-21.122-11.886z" fill="url(#paint52_linear)"/><path d="M487.377 886.24l-.377 4.717 67.139-.189c0-1.887.566-2.83-.377-4.717l-66.385.189z" fill="#C73E39"/><path d="M613.734 618.322s3.961 113.393.377 242.258c0 0-10.749 10.188-31.117 3.396 0 0 .188-143.393-5.281-200.372 0 0-25.649 108.299-58.087 202.07 0 0-21.688 4.151-29.42-8.113 0 0 43.754-151.883 50.166-239.239h73.362z" fill="url(#paint53_linear)"/><path d="M613.734 618.322h-73.363c-.565 6.603-1.131 13.584-2.074 20.754 43.753.189 66.95-10.943 75.625-16.038 0-3.207-.188-4.716-.188-4.716z" fill="#402B2B" fill-opacity=".45" style="mix-blend-mode:multiply"/><path d="M653.716 539.456c-20.179-35.66-36.021-47.735-36.021-47.735-8.675 4.905-2.075 38.489-2.075 38.489 5.47 10.755 9.241 20.377 17.351 29.811l20.745-20.565z" fill="#D1402C"/><path d="M617.694 491.721s-.943 21.697-3.771 126.035c0 0-25.649 13.018-76.758 3.962 0 0-.188-31.32-7.166-59.055 0 0-13.013-52.263-6.412-67.546 0 0 41.679-25.849 94.107-3.396z" fill="url(#paint54_linear)"/><path d="M578.09 471.042l.377 13.509s-3.206 4.717-10.938 5.283c-7.732.377-11.504-3.962-11.504-3.962l-.754-20.113c9.618 4.151 19.047 5.849 22.819 5.283z" fill="url(#paint55_linear)"/><path d="M577.336 465.495l.754 14.905c-3.771.566-13.201-1.132-22.631-5.283l-.565-9.622h22.442z" fill="url(#paint56_linear)" style="mix-blend-mode:multiply"/><path d="M526.227 524.55s11.127 25.094 15.088 36.415c3.96 11.131 3.96 55.47 24.705 63.96 0 0-22.065-1.32-29.043-3.207 0 0-.377-33.396-7.166-59.055 0 0-4.715-26.981-6.601-39.245l3.017 1.132z" fill="#EE4D47" fill-opacity=".29" style="mix-blend-mode:multiply"/><path d="M540.938 432.666c.377.188.754 6.226.754 6.226l1.509 12.641 6.978 5.472 3.96 1.698s5.846-2.453 5.092-4.717c-.754-2.076-4.526-31.886-5.281-31.886-.754 0-6.789 4.339-6.789 4.339l-6.223 6.227zM596.195 421.345c1.697 0-.943 20.754-.943 20.754l-3.017-8.301-2.075-10 6.035-2.453z" fill="#402B2B"/><path d="M593.366 425.496l3.206 26.603s1.132 22.452-17.35 23.773c-18.482 1.132-31.118-17.169-31.118-17.169s-2.263 2.641-4.715-1.887c-2.263-4.528-.754-10.566 2.452-11.132 3.395-.377 4.904 1.51 5.281 4.34.377 2.83.754 4.905.754 4.905l2.829-.377-2.075-21.886s4.338-8.491 9.241-10.189c4.904-1.698 9.241 5.094 9.241 5.094s4.527.944 8.864 0c4.338-.943 7.167-2.075 7.167-2.075s2.64.755 6.223 0z" fill="url(#paint57_linear)"/><path d="M579.976 465.684c-6.223.377-7.166-6.793-7.166-6.793s14.332-1.698 14.71-1.886c0 0 1.131 8.113-7.544 8.679z" fill="#893D43"/><path d="M573.375 461.156c-.565-1.321-.754-2.265-.754-2.265s14.333-1.698 14.71-1.886c0 0 .189.943 0 2.452l-13.956 1.699z" fill="#FFFEFF"/><path d="M573.942 418.704v-19.245c-11.504.566-23.386 2.83-29.232 10-6.978 8.49-3.017 28.112-3.017 28.112s8.486-.943 9.995-3.773c1.509-2.83 15.842-6.793 26.78-6.227 10.939.566 16.219-.566 21.688-5.283 1.132-.943 2.075-2.264 2.829-3.773h-29.043v.189z" fill="#402B2B"/><path d="M540.372 430.401s8.109-2.641 21.688-3.773c22.819-9.622 32.626-7.924 32.626-7.924s-.188-7.359-2.263-12.453c-2.074-5.094-16.03-12.264-27.723-11.132-11.693 1.132-23.763 9.811-25.649 18.113-1.508 6.415 1.321 17.169 1.321 17.169z" fill="url(#paint58_linear)"/><path d="M554.139 427.571c2.451-11.697 19.99-17.546 32.438-17.358 12.258.189 20.933 10.377 22.253 17.358.566 2.83-1.697 3.208-2.451.755-.566-1.698-1.698-9.811-13.013-8.868-11.316.944-10.75 11.132-16.408 12.076-5.28.943-11.315-2.831-22.819-3.963z" fill="url(#paint59_linear)"/><path d="M592.046 430.213v-1.321c-.566 0-4.903-.566-10.184.566l.189 2.076c4.338-1.321 9.995-1.321 9.995-1.321zM560.174 434.93c3.395-1.887 9.807-2.83 9.807-3.019l-.754-1.887c-.189 0-6.035 1.132-9.807 3.585l.754 1.321z" fill="#402B2B"/><path d="M579.033 441.345s.566 3.962 2.075 5.094c1.509 1.132 4.149 2.075 4.526 3.019.377.754-.377 2.264-2.075 2.83-1.697.566-1.885 1.132-1.885 1.132s3.394.377 5.092-1.698c1.697-2.076-.189-3.774-1.886-4.717-1.698-.943-2.452-1.321-3.206-1.887-.943-.566-2.641-3.773-2.641-3.773z" fill="#D87C60"/><path d="M570.924 443.42c0 1.887-1.321 3.585-3.018 3.585-1.697 0-3.017-1.509-3.017-3.585 0-1.887 1.32-3.585 3.017-3.585 1.697 0 3.018 1.51 3.018 3.585zM591.669 440.967c0 1.887-1.32 3.585-3.018 3.585-1.697 0-3.017-1.509-3.017-3.585 0-1.886 1.32-3.584 3.017-3.584 1.698.188 3.018 1.698 3.018 3.584z" fill="#402B2B"/><path d="M684.079 491.532h-116.55v89.998h116.55v-89.998z" fill="#8C5E5E"/><path d="M684.267 491.532h-42.433v89.998h42.433v-89.998z" fill="#694646"/><path d="M669.746 491.532h-10.938v12.453h10.938v-12.453zM607.134 491.532h-10.939v12.453h10.939v-12.453z" fill="#A3774A"/><path d="M684.268 557.757s-6.035 3.962-7.732 5.66c-1.698 1.698-4.715 17.924-1.698 19.622 3.018 1.698 8.864 0 10.75.378 2.075.377 8.109-3.396 8.109-6.415s-3.771-23.018-4.714-23.396c-.943-.377-4.715-2.83-4.715-2.83v6.981z" fill="#F4A984"/><path d="M608.453 556.436h-36.398v17.736h36.398v-17.736z" fill="#fff"/><path fill-rule="evenodd" clip-rule="evenodd" d="M536.222 579.455c-13.767-20-15.653-80.565-15.653-80.565 18.86 2.453 31.495 27.736 31.495 27.924l2.829 36.226 48.131 7.712 2.601-2.429s11.127-5.66 20.179-4.717c0 0 4.149.755 3.206 3.208-.377 1.32.378 2.169 1.132 3.018.754.849 1.509 1.698 1.132 3.019-.319 1.114-.033 1.96.248 2.792.386 1.14.762 2.255-.437 4 0 0 1.509 2.264-.189 4.34l-.243.298c-1.791 2.195-5.286 6.477-6.546 6.117-.474-.136-1.578-.32-2.818-.526-2.215-.369-4.861-.809-5.103-1.172-.377-.566-.754-1.698 1.132-2.83 0 0-2.075.566-4.715.188-2.64-.188-6.412-2.264-6.412-2.264l-.701-.584c-52.899 4.341-69.268-3.755-69.268-3.755z" fill="url(#paint60_linear)"/><path d="M557.345 554.361l-5.281-27.735s-9.618-29.056-28.477-31.509c0 0-13.579 8.49 3.206 66.225l30.552-6.981z" fill="url(#paint61_linear)"/></g><defs><linearGradient id="paint0_linear" x1="706.272" y1="1119.08" x2="-279.489" y2="306.262" gradientUnits="userSpaceOnUse"><stop stop-color="#FFEDBA"/><stop offset="1" stop-color="#EE4D47"/></linearGradient><linearGradient id="paint1_linear" x1="607" y1="990" x2="-249.525" y2="258.836" gradientUnits="userSpaceOnUse"><stop stop-color="#FFEDBA"/><stop offset="1" stop-color="#EE4D47"/></linearGradient><linearGradient id="paint2_linear" x1="679" y1="-212" x2="679" y2="892" gradientUnits="userSpaceOnUse"><stop stop-color="#F4A984"/><stop offset="1" stop-color="#F4A984" stop-opacity="0"/></linearGradient><linearGradient id="paint3_linear" x1="912.949" y1="447.562" x2="912.949" y2="727.313" gradientUnits="userSpaceOnUse"><stop offset=".241" stop-color="#2CA77F"/><stop offset="1" stop-color="#1B8877"/></linearGradient><linearGradient id="paint4_linear" x1="912.949" y1="447.562" x2="912.949" y2="727.313" gradientUnits="userSpaceOnUse"><stop offset=".241" stop-color="#2CA77F"/><stop offset="1" stop-color="#1B8877"/></linearGradient><linearGradient id="paint5_linear" x1="912.949" y1="447.562" x2="912.949" y2="727.313" gradientUnits="userSpaceOnUse"><stop offset=".241" stop-color="#2CA77F"/><stop offset="1" stop-color="#1B8877"/></linearGradient><linearGradient id="paint6_linear" x1="919.843" y1="458.726" x2="919.843" y2="712.866" gradientUnits="userSpaceOnUse"><stop stop-color="#fff"/><stop offset="1" stop-color="#fff" stop-opacity="0"/></linearGradient><linearGradient id="paint7_linear" x1="1030.82" y1="527.679" x2="1030.82" y2="721.403" gradientUnits="userSpaceOnUse"><stop offset=".422" stop-color="#2CA77F"/><stop offset="1" stop-color="#1B8877"/></linearGradient><linearGradient id="paint8_linear" x1="1030.82" y1="527.679" x2="1030.82" y2="721.403" gradientUnits="userSpaceOnUse"><stop offset=".422" stop-color="#2CA77F"/><stop offset="1" stop-color="#1B8877"/></linearGradient><linearGradient id="paint9_linear" x1="1029.84" y1="557.23" x2="1029.84" y2="715.493" gradientUnits="userSpaceOnUse"><stop stop-color="#fff"/><stop offset="1" stop-color="#fff" stop-opacity="0"/></linearGradient><linearGradient id="paint10_linear" x1="724.478" y1="476.457" x2="724.478" y2="768.803" gradientUnits="userSpaceOnUse"><stop offset=".422" stop-color="#2CA77F"/><stop offset="1" stop-color="#1B8877"/></linearGradient><linearGradient id="paint11_linear" x1="724.478" y1="476.457" x2="724.478" y2="768.803" gradientUnits="userSpaceOnUse"><stop offset=".422" stop-color="#2CA77F"/><stop offset="1" stop-color="#1B8877"/></linearGradient><linearGradient id="paint12_linear" x1="716.269" y1="534.897" x2="716.269" y2="742.254" gradientUnits="userSpaceOnUse"><stop stop-color="#fff"/><stop offset="1" stop-color="#fff" stop-opacity="0"/></linearGradient><linearGradient id="paint13_linear" x1="898.158" y1="531.011" x2="898.158" y2="590.03" gradientUnits="userSpaceOnUse"><stop stop-color="#D3D86C"/><stop offset="1" stop-color="#82A637"/></linearGradient><linearGradient id="paint14_linear" x1="804.594" y1="403.877" x2="804.594" y2="511.918" gradientUnits="userSpaceOnUse"><stop stop-color="#D3D86C"/><stop offset="1" stop-color="#82A637"/></linearGradient><linearGradient id="paint15_linear" x1="1065.88" y1="653.604" x2="1065.88" y2="671.714" gradientUnits="userSpaceOnUse"><stop stop-color="#D3D86C"/><stop offset="1" stop-color="#82A637"/></linearGradient><linearGradient id="paint16_linear" x1="625.784" y1="568.394" x2="625.784" y2="716.547" gradientUnits="userSpaceOnUse"><stop stop-color="#D3D86C"/><stop offset="1" stop-color="#82A637"/></linearGradient><linearGradient id="paint17_linear" x1="625.842" y1="604.771" x2="625.842" y2="716.547" gradientUnits="userSpaceOnUse"><stop stop-color="#084F15" stop-opacity="0"/><stop offset="1" stop-color="#084F15"/></linearGradient><linearGradient id="paint18_linear" x1="600.702" y1="611.158" x2="600.702" y2="716.661" gradientUnits="userSpaceOnUse"><stop stop-color="#084F15" stop-opacity="0"/><stop offset="1" stop-color="#084F15"/></linearGradient><linearGradient id="paint19_linear" x1="577.787" y1="630.434" x2="577.787" y2="716.547" gradientUnits="userSpaceOnUse"><stop stop-color="#084F15" stop-opacity="0"/><stop offset="1" stop-color="#084F15"/></linearGradient><linearGradient id="paint20_linear" x1="557.494" y1="659.176" x2="557.494" y2="716.661" gradientUnits="userSpaceOnUse"><stop stop-color="#084F15" stop-opacity="0"/><stop offset="1" stop-color="#084F15"/></linearGradient><linearGradient id="paint21_linear" x1="536.972" y1="692.481" x2="536.972" y2="716.547" gradientUnits="userSpaceOnUse"><stop stop-color="#084F15" stop-opacity="0"/><stop offset="1" stop-color="#084F15"/></linearGradient><linearGradient id="paint22_linear" x1="650.866" y1="611.158" x2="650.866" y2="716.661" gradientUnits="userSpaceOnUse"><stop stop-color="#084F15" stop-opacity="0"/><stop offset="1" stop-color="#084F15"/></linearGradient><linearGradient id="paint23_linear" x1="673.838" y1="630.548" x2="673.838" y2="716.661" gradientUnits="userSpaceOnUse"><stop stop-color="#084F15" stop-opacity="0"/><stop offset="1" stop-color="#084F15"/></linearGradient><linearGradient id="paint24_linear" x1="694.075" y1="659.176" x2="694.075" y2="716.661" gradientUnits="userSpaceOnUse"><stop stop-color="#084F15" stop-opacity="0"/><stop offset="1" stop-color="#084F15"/></linearGradient><linearGradient id="paint25_linear" x1="749.197" y1="622.382" x2="749.197" y2="716.661" gradientUnits="userSpaceOnUse"><stop stop-color="#D3D86C"/><stop offset="1" stop-color="#82A637"/></linearGradient><linearGradient id="paint26_linear" x1="749.31" y1="645.604" x2="749.31" y2="716.661" gradientUnits="userSpaceOnUse"><stop stop-color="#084F15" stop-opacity="0"/><stop offset="1" stop-color="#084F15"/></linearGradient><linearGradient id="paint27_linear" x1="733.464" y1="649.482" x2="733.464" y2="716.547" gradientUnits="userSpaceOnUse"><stop stop-color="#084F15" stop-opacity="0"/><stop offset="1" stop-color="#084F15"/></linearGradient><linearGradient id="paint28_linear" x1="718.871" y1="661.914" x2="718.871" y2="716.661" gradientUnits="userSpaceOnUse"><stop stop-color="#084F15" stop-opacity="0"/><stop offset="1" stop-color="#084F15"/></linearGradient><linearGradient id="paint29_linear" x1="705.931" y1="680.049" x2="705.931" y2="716.547" gradientUnits="userSpaceOnUse"><stop stop-color="#084F15" stop-opacity="0"/><stop offset="1" stop-color="#084F15"/></linearGradient><linearGradient id="paint30_linear" x1="692.935" y1="701.377" x2="692.935" y2="716.661" gradientUnits="userSpaceOnUse"><stop stop-color="#084F15" stop-opacity="0"/><stop offset="1" stop-color="#084F15"/></linearGradient><linearGradient id="paint31_linear" x1="765.271" y1="649.71" x2="765.271" y2="716.661" gradientUnits="userSpaceOnUse"><stop stop-color="#084F15" stop-opacity="0"/><stop offset="1" stop-color="#084F15"/></linearGradient><linearGradient id="paint32_linear" x1="779.865" y1="661.914" x2="779.865" y2="716.661" gradientUnits="userSpaceOnUse"><stop stop-color="#084F15" stop-opacity="0"/><stop offset="1" stop-color="#084F15"/></linearGradient><linearGradient id="paint33_linear" x1="792.804" y1="680.163" x2="792.804" y2="716.661" gradientUnits="userSpaceOnUse"><stop stop-color="#084F15" stop-opacity="0"/><stop offset="1" stop-color="#084F15"/></linearGradient><linearGradient id="paint34_linear" x1="805.802" y1="701.377" x2="805.802" y2="716.661" gradientUnits="userSpaceOnUse"><stop stop-color="#084F15" stop-opacity="0"/><stop offset="1" stop-color="#084F15"/></linearGradient><linearGradient id="paint35_linear" x1="133.869" y1="428.786" x2="133.869" y2="897.717" gradientUnits="userSpaceOnUse"><stop offset=".278" stop-color="#EEEF99"/><stop offset=".77" stop-color="#B9D079"/></linearGradient><linearGradient id="paint36_linear" x1="133.869" y1="428.786" x2="133.869" y2="897.717" gradientUnits="userSpaceOnUse"><stop offset=".278" stop-color="#EEEF99"/><stop offset=".77" stop-color="#B9D079"/></linearGradient><linearGradient id="paint37_linear" x1="530.755" y1="713.737" x2="530.755" y2="926.053" gradientUnits="userSpaceOnUse"><stop stop-color="#fff"/><stop offset="1" stop-color="#fff" stop-opacity="0"/></linearGradient><linearGradient id="paint38_linear" x1="454.785" y1="650.774" x2="454.785" y2="860.992" gradientUnits="userSpaceOnUse"><stop offset=".164" stop-color="#82A637"/><stop offset=".891" stop-color="#1B8877"/></linearGradient><linearGradient id="paint39_linear" x1="-129.416" y1="-96.468" x2="-129.338" y2="259.265" gradientUnits="userSpaceOnUse"><stop stop-color="#fff"/><stop offset="1" stop-color="#fff" stop-opacity="0"/></linearGradient><linearGradient id="paint40_linear" x1="-69" y1="646.593" x2="-69" y2="801.66" gradientUnits="userSpaceOnUse"><stop stop-color="#D3D86C"/><stop offset="1" stop-color="#82A637"/></linearGradient><linearGradient id="paint41_linear" x1="24.075" y1="684.397" x2="24.075" y2="955.894" gradientUnits="userSpaceOnUse"><stop stop-color="#084F15" stop-opacity="0"/><stop offset="1" stop-color="#084F15"/></linearGradient><linearGradient id="paint42_linear" x1="706.272" y1="464" x2="706.272" y2="-228" gradientUnits="userSpaceOnUse"><stop stop-color="#FFEDBA" stop-opacity="0"/><stop offset="1" stop-color="#EB2A24"/></linearGradient><linearGradient id="paint43_linear" x1="788.554" y1="53.438" x2="788.708" y2="405.438" gradientUnits="userSpaceOnUse"><stop stop-color="#fff"/><stop offset="1" stop-color="#fff" stop-opacity="0"/></linearGradient><linearGradient id="paint44_linear" x1="550.452" y1="381.575" x2="550.565" y2="639.011" gradientUnits="userSpaceOnUse"><stop stop-color="#fff"/><stop offset="1" stop-color="#fff" stop-opacity="0"/></linearGradient><linearGradient id="paint45_linear" x1="748.207" y1="585.806" x2="742.873" y2="530.842" gradientUnits="userSpaceOnUse"><stop stop-color="#FFB3B6"/><stop offset="1" stop-color="#FFC8C1"/></linearGradient><linearGradient id="paint46_linear" x1="753.717" y1="549.521" x2="753.717" y2="849.377" gradientUnits="userSpaceOnUse"><stop stop-color="#F4A984"/><stop offset="1" stop-color="#EE4D47"/></linearGradient><linearGradient id="paint47_linear" x1="779.217" y1="493.311" x2="779.437" y2="429.729" gradientUnits="userSpaceOnUse"><stop stop-color="#FFB3B6"/><stop offset="1" stop-color="#FFC8C1"/></linearGradient><linearGradient id="paint48_linear" x1="805.187" y1="461.282" x2="798.862" y2="416.416" gradientUnits="userSpaceOnUse"><stop stop-color="#FFB3B6"/><stop offset="1" stop-color="#FFC8C1"/></linearGradient><linearGradient id="paint49_linear" x1="809.26" y1="551.311" x2="809.26" y2="844.038" gradientUnits="userSpaceOnUse"><stop stop-color="#F4A984"/><stop offset="1" stop-color="#EE4D47"/></linearGradient><linearGradient id="paint50_linear" x1="803.925" y1="451.249" x2="802.53" y2="440.582" gradientUnits="userSpaceOnUse"><stop stop-color="#FFB3B6"/><stop offset="1" stop-color="#FFC8C1"/></linearGradient><linearGradient id="paint51_linear" x1="616.846" y1="858.311" x2="616.846" y2="886.97" gradientUnits="userSpaceOnUse"><stop stop-color="#F4A984"/><stop offset="1" stop-color="#EE4D47"/></linearGradient><linearGradient id="paint52_linear" x1="520.852" y1="847.991" x2="520.852" y2="887.109" gradientUnits="userSpaceOnUse"><stop stop-color="#F4A984"/><stop offset="1" stop-color="#EE4D47"/></linearGradient><linearGradient id="paint53_linear" x1="552.909" y1="548.17" x2="552.909" y2="866.351" gradientUnits="userSpaceOnUse"><stop stop-color="#822626"/><stop offset=".943" stop-color="#402B2B"/></linearGradient><linearGradient id="paint54_linear" x1="569.707" y1="449.597" x2="569.707" y2="628.82" gradientUnits="userSpaceOnUse"><stop stop-color="#F4A984"/><stop offset="1" stop-color="#EE4D47"/></linearGradient><linearGradient id="paint55_linear" x1="559.141" y1="483.578" x2="578.225" y2="491.809" gradientUnits="userSpaceOnUse"><stop stop-color="#FFB3B6"/><stop offset="1" stop-color="#FFC8C1"/></linearGradient><linearGradient id="paint56_linear" x1="558.764" y1="474.111" x2="577.956" y2="482.239" gradientUnits="userSpaceOnUse"><stop stop-color="#FFB3B6" stop-opacity=".31"/><stop offset="1" stop-color="#FFC8C1"/></linearGradient><linearGradient id="paint57_linear" x1="599.03" y1="469.412" x2="594.948" y2="432.934" gradientUnits="userSpaceOnUse"><stop stop-color="#FFB3B6"/><stop offset="1" stop-color="#FFC8C1"/></linearGradient><linearGradient id="paint58_linear" x1="566.647" y1="375.99" x2="566.647" y2="430.848" gradientUnits="userSpaceOnUse"><stop stop-color="#F4A984"/><stop offset="1" stop-color="#EE4D47"/></linearGradient><linearGradient id="paint59_linear" x1="565.214" y1="404.777" x2="565.214" y2="461.808" gradientUnits="userSpaceOnUse"><stop stop-color="#F4A984"/><stop offset="1" stop-color="#EE4D47"/></linearGradient><linearGradient id="paint60_linear" x1="539.143" y1="551.429" x2="636.911" y2="584.018" gradientUnits="userSpaceOnUse"><stop stop-color="#FFB3B6"/><stop offset="1" stop-color="#FFC8C1"/></linearGradient><linearGradient id="paint61_linear" x1="537.873" y1="475.93" x2="537.873" y2="543.824" gradientUnits="userSpaceOnUse"><stop stop-color="#F4A984"/><stop offset="1" stop-color="#EE4D47"/></linearGradient><clipPath id="clip0"><path fill="#fff" transform="translate(1002.92 613.706)" d="M0 0h126.085v112.294H0z"/></clipPath></defs></svg>