<svg width="400" height="1080" fill="none" xmlns="http://www.w3.org/2000/svg"><mask id="a" style="mask-type:alpha" maskUnits="userSpaceOnUse" x="0" y="0" width="400" height="1080"><path fill="#C4C4C4" d="M0 0h400v1080H0z"/></mask><g mask="url(#a)"><path d="M633-8H-652v800H533c55.229 0 100-44.772 100-100V-8z" fill="url(#paint0_linear)"/><mask id="b" style="mask-type:alpha" maskUnits="userSpaceOnUse" x="-652" y="-8" width="1285" height="800"><path d="M633-8H-652v800H533c55.229 0 100-44.772 100-100V-8z" fill="url(#paint1_linear)"/></mask><g mask="url(#b)"><path d="M673.57 336.525h-10.831a4.06 4.06 0 00-4.061 4.061v244.278a5.584 5.584 0 01-11.169 0V428.796c0-5.523-4.477-10-10-10h-10.461c-5.523 0-10 4.477-10 10v9.794c0 5.523-4.477 10-10 10h-65.98a7.618 7.618 0 00-7.618 7.617v4.234a3.384 3.384 0 01-3.384 3.384 3.385 3.385 0 00-3.385 3.385v54.343a8.291 8.291 0 01-8.292 8.292 8.293 8.293 0 00-8.292 8.292v36.217c0 5.523-4.477 10-10 10h-.984c-5.523 0-10 4.477-10 10v52.975a3.723 3.723 0 01-7.446 0V340.248a3.046 3.046 0 00-3.046-3.046 3.046 3.046 0 01-3.046-3.046v-26.919a5.246 5.246 0 00-5.246-5.246 5.246 5.246 0 01-5.246-5.246v-26.072a3.554 3.554 0 00-3.554-3.554 3.554 3.554 0 01-3.554-3.554v-21.318c0-5.523-4.477-10-10-10h-25.352c-5.523 0-10 4.477-10 10v21.318a3.554 3.554 0 01-3.554 3.554 3.554 3.554 0 00-3.554 3.554v26.072a5.246 5.246 0 01-5.246 5.246 5.246 5.246 0 00-5.246 5.246v27.088a2.538 2.538 0 01-2.538 2.538 2.54 2.54 0 00-2.539 2.539v209.236a5.923 5.923 0 01-5.923 5.923 5.923 5.923 0 00-5.923 5.923v83.291a7.277 7.277 0 01-7.276 7.277h-6.6a.678.678 0 01-.677-.678.677.677 0 00-.677-.677h-2.2a1.186 1.186 0 010-2.37h1.184a1.693 1.693 0 000-3.385h-1.014a1.355 1.355 0 010-2.709h1.014a1.692 1.692 0 100-3.385h-1.184a1.185 1.185 0 110-2.37h1.184a1.693 1.693 0 000-3.386h-1.184a1.186 1.186 0 010-2.37h1.184a1.693 1.693 0 000-3.386h-1.184a1.186 1.186 0 010-2.37h1.184a1.693 1.693 0 000-3.385h-1.184a1.185 1.185 0 110-2.37h1.184a1.693 1.693 0 000-3.386h-1.184a1.186 1.186 0 010-2.37h1.184a1.692 1.692 0 100-3.385h-1.184a1.185 1.185 0 110-2.37h1.184a1.693 1.693 0 000-3.386h-1.184a1.186 1.186 0 010-2.37h1.184a1.693 1.693 0 000-3.386h-1.184a1.186 1.186 0 010-2.37h1.184a1.693 1.693 0 000-3.385h-.338a2.031 2.031 0 01-2.031-2.031v-.678c0-1.122.91-2.031 2.031-2.031h.338a1.693 1.693 0 000-3.386h-1.184a1.186 1.186 0 010-2.37h1.184a1.692 1.692 0 100-3.385h-1.184a1.185 1.185 0 110-2.37h1.184a1.693 1.693 0 000-3.386h-1.184a1.186 1.186 0 010-2.37h1.184a1.693 1.693 0 000-3.386h-1.184a1.186 1.186 0 010-2.37h1.184a1.693 1.693 0 000-3.385h-1.184a1.185 1.185 0 110-2.37h1.184a1.693 1.693 0 000-3.386h-1.184a1.186 1.186 0 010-2.37h1.184a1.692 1.692 0 100-3.385h-1.184a1.185 1.185 0 110-2.37h1.184a1.693 1.693 0 000-3.386h-1.184a1.186 1.186 0 010-2.37h1.184a1.693 1.693 0 000-3.386h-1.184a1.186 1.186 0 010-2.37h1.184a1.693 1.693 0 000-3.385h-1.184a1.185 1.185 0 110-2.37h1.184a1.693 1.693 0 000-3.386h-1.184a1.186 1.186 0 010-2.37h1.184a1.692 1.692 0 100-3.385h-1.184a1.185 1.185 0 110-2.37h1.184a1.693 1.693 0 000-3.386h-.338a2.031 2.031 0 01-2.031-2.031v-1.355c0-1.122.91-2.031 2.031-2.031h.338a1.693 1.693 0 000-3.386h-1.184a1.186 1.186 0 010-2.37h1.184a1.693 1.693 0 100-3.385h-1.184a1.185 1.185 0 110-2.37h1.184a1.693 1.693 0 000-3.386h-1.184a1.186 1.186 0 010-2.37h1.184a1.693 1.693 0 000-3.386h-.338a2.031 2.031 0 01-2.031-2.03v-2.202c0-.841-.682-1.523-1.523-1.523a1.523 1.523 0 01-1.523-1.523v-2.201a3.724 3.724 0 00-3.724-3.725h-.337a4.062 4.062 0 01-4.062-4.061v-10.837a3.046 3.046 0 00-3.046-3.046 3.046 3.046 0 01-3.046-3.046v-11.585a10 10 0 00-7.867-9.77l-10.748-2.345a5.678 5.678 0 01-4.4-5.532v-31.542a1.185 1.185 0 00-2.369 0v31.901a3.047 3.047 0 01-3.723 2.972 3.048 3.048 0 00-3.723 2.972v23.437a2.538 2.538 0 01-2.538 2.538 2.538 2.538 0 00-2.538 2.539v11.344a4.062 4.062 0 01-4.062 4.061h-.845a3.216 3.216 0 00-3.216 3.217v1.693c0 .841-.682 1.523-1.523 1.523-.841 0-1.523.682-1.523 1.523v1.355a2.879 2.879 0 01-2.878 2.878h-29.768c-5.522 0-10 4.477-10 10v17.58c0 5.523-4.477 10-10 10H215.83a9.995 9.995 0 00-3.63.683l-30.403 11.844a2.693 2.693 0 00-1.692 2.5v11.721a2.708 2.708 0 002.708 2.708h.676a2.03 2.03 0 110 4.062h-1.352a2.031 2.031 0 100 4.063h1.352a2.031 2.031 0 010 4.063h-1.352a2.032 2.032 0 000 4.063h1.352a2.03 2.03 0 110 4.062h-1.352a2.031 2.031 0 100 4.063h1.352a2.03 2.03 0 110 4.063h-1.352a2.032 2.032 0 000 4.063h1.86a1.523 1.523 0 010 3.047h-30.778a10 10 0 01-9.377-6.525l-8.052-21.73c-1.401-3.779-6.749-3.773-8.14.01-1.696 4.612-8.822 3.289-8.812-1.625.007-3.361.007-6.721.007-10.081v-14.22c0-13.542 0-27.085-.338-40.627 0-5.756-.339-11.85-.339-17.606-.338-12.527-.677-25.054-1.354-37.919-.338-6.094-.338-12.188-.677-18.283-.676-11.849-1.015-23.36-1.692-35.21 0-1.355-.338-2.709-.338-4.063-.677-10.496-1.354-20.653-2.031-31.148-1.354-18.96-3.046-37.919-4.738-56.879a181.81 181.81 0 00-.473-5.289c-.528-5.22-4.946-9.269-10.192-9.269h-63.42c-4.855 0-9.175 3.61-9.175 8.464l-1.015 12.188c-.339 3.386-.677 7.11-1.015 10.496-.677 6.432-1.016 12.865-1.693 19.298-.338 3.047-.338 5.756-.677 8.803-.338 5.417-.677 10.834-1.353 16.251-.339 2.37-.339 4.74-.339 6.771-.338 7.11-1.015 14.22-1.354 20.991 0 2.37-.338 4.74-.338 7.11-.339 7.448-.677 14.558-1.016 22.007 0 1.693-.338 3.047-.338 4.74-.338 6.771-.677 13.881-1.015 20.652v4.063c-.339 7.787-.677 15.574-.677 23.361v4.74c-.339 8.125-.339 16.251-.677 24.038v1.016c0 8.125-.338 16.251-.338 24.038v38.09a7.277 7.277 0 01-7.277 7.277 7.277 7.277 0 00-7.277 7.277v81.261a8.63 8.63 0 01-8.63 8.63h-7.785a.846.846 0 110-1.692h.677c.841 0 1.523-.682 1.523-1.523v-.678c0-.842-.682-1.523-1.523-1.523a1.523 1.523 0 01-1.523-1.524v-1.355c0-.841.682-1.523 1.523-1.523.841 0 1.523-.682 1.523-1.523v-.678c0-.841-.682-1.523-1.523-1.523a1.523 1.523 0 01-1.523-1.523v-1.694c0-.841.682-1.523 1.523-1.523.841 0 1.523-.682 1.523-1.523v-.678c0-.841-.682-1.523-1.523-1.523a1.523 1.523 0 01-1.523-1.523v-1.694c0-.841.682-1.523 1.523-1.523.841 0 1.523-.682 1.523-1.523v-.678c0-.841-.682-1.523-1.523-1.523a1.523 1.523 0 01-1.523-1.523v-1.694c0-.841.682-1.523 1.523-1.523.841 0 1.523-.682 1.523-1.523v-.678c0-.842-.682-1.523-1.523-1.523a1.523 1.523 0 01-1.523-1.524v-1.693c0-.841.682-1.523 1.523-1.523.841 0 1.523-.682 1.523-1.523v-.679c0-.841-.682-1.523-1.523-1.523a1.522 1.522 0 01-1.523-1.523v-1.693c0-.842.682-1.523 1.523-1.523.841 0 1.523-.682 1.523-1.524v-.678c0-.841-.682-1.523-1.523-1.523a1.523 1.523 0 01-1.523-1.523v-1.694c0-.841.682-1.523 1.523-1.523.841 0 1.523-.681 1.523-1.523v-.678c0-.841-.682-1.523-1.523-1.523a1.523 1.523 0 01-1.523-1.523v-1.694c0-.841.682-1.523 1.523-1.523.841 0 1.523-.682 1.523-1.523v-.678c0-.841-.682-1.523-1.523-1.523a1.523 1.523 0 01-1.523-1.523V585.2c0-.841.682-1.523 1.523-1.523.841 0 1.523-.682 1.523-1.523v-.678c0-.841-.682-1.523-1.523-1.523a1.523 1.523 0 01-1.523-1.523v-1.694c0-.841.682-1.523 1.523-1.523.841 0 1.523-.682 1.523-1.523v-2.032c0-.842-.682-1.523-1.523-1.523a1.523 1.523 0 01-1.523-1.524v-1.693c0-.841.682-1.523 1.523-1.523.841 0 1.523-.682 1.523-1.523v-.678c0-.842-.682-1.524-1.523-1.524a1.522 1.522 0 01-1.523-1.523v-2.032c0-.841.682-1.523 1.523-1.523.841 0 1.523-.682 1.523-1.523v-.678c0-.841-.682-1.523-1.523-1.523a1.523 1.523 0 01-1.523-1.523v-1.694c0-.841.682-1.523 1.523-1.523.841 0 1.523-.682 1.523-1.523v-.678c0-.841-.682-1.523-1.523-1.523a1.523 1.523 0 01-1.523-1.523v-1.694c0-.841.682-1.523 1.523-1.523.841 0 1.523-.682 1.523-1.523v-.678c0-.842-.682-1.524-1.523-1.524a1.522 1.522 0 01-1.523-1.523v-1.693c0-.842.682-1.523 1.523-1.523.841 0 1.523-.682 1.523-1.523v-.679c0-.841-.682-1.523-1.523-1.523a1.523 1.523 0 01-1.523-1.523v-1.693c0-.842.682-1.524 1.523-1.524.841 0 1.523-.681 1.523-1.523v-.678c0-.841-.682-1.523-1.523-1.523a1.523 1.523 0 01-1.523-1.523v-1.694c0-.841.682-1.523 1.523-1.523.841 0 1.523-.682 1.523-1.523v-.678c0-.841-.682-1.523-1.523-1.523a1.523 1.523 0 01-1.523-1.523v-1.694c0-.841.682-1.523 1.523-1.523.841 0 1.523-.682 1.523-1.523v-.678c0-.841-.682-1.523-1.523-1.523a1.523 1.523 0 01-1.523-1.523v-1.694c0-.841.682-1.523 1.523-1.523.841 0 1.523-.682 1.523-1.523v-2.032c0-.842-.682-1.523-1.523-1.523a1.523 1.523 0 01-1.523-1.523v-1.694c0-.841.682-1.523 1.523-1.523.841 0 1.523-.682 1.523-1.523v-.678c0-.842-.682-1.524-1.523-1.524a1.522 1.522 0 01-1.523-1.523v-1.693c0-.842.682-1.523 1.523-1.523.841 0 1.523-.682 1.523-1.524v-.678c0-.841-.682-1.523-1.523-1.523a1.523 1.523 0 01-1.523-1.523v-1.693c0-.842.682-1.524 1.523-1.524.841 0 1.523-.681 1.523-1.523v-.678c0-.841-.682-1.523-1.523-1.523a1.523 1.523 0 01-1.523-1.523v-5.418c0-.841.682-1.523 1.523-1.523.841 0 1.523-.682 1.523-1.523v-1.016a2.539 2.539 0 00-2.54-2.539h-4.905a2.37 2.37 0 01-2.37-2.37v-.558c0-1.001.811-1.812 1.812-1.812 1.49 0 2.344-1.697 1.456-2.893l-12.142-16.36a7.658 7.658 0 00-6.147-3.093h-.207a7.448 7.448 0 01-7.449-7.448c0-.748-.677-1.622-.677-2.37v-19.468a1.184 1.184 0 00-2.369 0v19.521c0 .719-.677 1.598-.677 2.317a7.448 7.448 0 01-7.448 7.448h-.207a7.656 7.656 0 00-6.148 3.094l-12.812 17.263c-.61.822-.023 1.989 1 1.989.689 0 1.247.558 1.247 1.246v1.124a2.37 2.37 0 01-2.37 2.37h-4.906a2.539 2.539 0 00-2.54 2.539v.678c0 1.028.834 1.861 1.862 1.861s1.862.834 1.862 1.862v4.741a1.861 1.861 0 01-1.862 1.861 1.862 1.862 0 000 3.724c1.028 0 1.862.834 1.862 1.862v1.017a1.861 1.861 0 01-1.862 1.861 1.862 1.862 0 000 3.725c1.028 0 1.862.833 1.862 1.861v1.017a1.861 1.861 0 01-1.862 1.861 1.862 1.862 0 000 3.725c1.028 0 1.862.833 1.862 1.861v1.017a1.862 1.862 0 01-1.862 1.862 1.862 1.862 0 000 3.724c1.028 0 1.862.833 1.862 1.861v1.017a1.862 1.862 0 01-1.862 1.862 1.862 1.862 0 000 3.724c1.028 0 1.862.833 1.862 1.861v1.017a1.862 1.862 0 01-1.862 1.862 1.862 1.862 0 000 3.724c1.028 0 1.862.833 1.862 1.862v1.016a1.861 1.861 0 01-1.862 1.862 1.862 1.862 0 000 3.724c1.028 0 1.862.834 1.862 1.862v1.017a1.861 1.861 0 01-1.862 1.861 1.862 1.862 0 000 3.724c1.028 0 1.862.834 1.862 1.862v1.017a1.861 1.861 0 01-1.862 1.861 1.862 1.862 0 000 3.724c1.028 0 1.862.834 1.862 1.862v1.017a1.861 1.861 0 01-1.862 1.861 1.862 1.862 0 000 3.725c1.028 0 1.862.833 1.862 1.861v1.017a1.861 1.861 0 01-1.862 1.861 1.862 1.862 0 000 3.725c1.028 0 1.862.833 1.862 1.861v1.017a1.862 1.862 0 01-1.862 1.862 1.862 1.862 0 000 3.724c1.028 0 1.862.833 1.862 1.861v1.017a1.862 1.862 0 01-1.862 1.862 1.862 1.862 0 000 3.724c1.028 0 1.862.833 1.862 1.861v1.017a1.862 1.862 0 01-1.862 1.862 1.862 1.862 0 000 3.724h1.354a.508.508 0 010 1.016h-17.767a4.402 4.402 0 01-4.402-4.402V340.926l-.173-7.291a10 10 0 00-6.711-9.206l-10.079-3.507c-3.291-1.145-6.728 1.298-6.728 4.783v1.546a3.52 3.52 0 11-7.036-.071l.444-21.96a10 10 0 00-7.572-9.903l-21.387-5.348c-6.009-1.503-11.925 2.763-12.397 8.939l-3.159 41.341-.338 4.74-.339 3.724-.338 4.74-.339 3.724-.338 4.74-.339 3.724-.338 4.74-.338 3.724-.339 4.74-.338 3.725-.339 4.739-.338 3.725-.339 4.74-.338 3.724-.339 4.74-.338 3.724-.339 4.74-.338 3.724-.338 4.74-.339 3.724-.338 4.74-.339 3.724-.019.264a10 10 0 01-3.876 7.213l-1.745 1.342a9.915 9.915 0 00-3.837 7.094l-.338 3.724-.338 4.74-.339 3.724-.338 4.74-.339 3.724-.338 4.74-.339 3.724-.338 4.402c0 .935-.758 1.693-1.693 1.693h-27.906c-5.523 0-10 4.477-10 10v38.585a5.246 5.246 0 01-5.246 5.246 5.246 5.246 0 00-5.246 5.246v104.113a7.107 7.107 0 11-14.215 0V231.569a2.707 2.707 0 00-2.708-2.708 2.707 2.707 0 01-2.707-2.708v-37.061c0-5.523-4.478-10-10-10h-57.506c-5.523 0-10 4.477-10 10v37.4a2.708 2.708 0 01-2.708 2.708 2.707 2.707 0 00-2.707 2.707v180.289a4.908 4.908 0 01-4.908 4.907h-3.892c-.561 0-1.016.455-1.016 1.016v.339a.677.677 0 01-.677.677.676.676 0 00-.676.676v3.725c0 .374.303.677.676.677.374 0 .677.303.677.677v.339a.677.677 0 01-.677.677.677.677 0 00-.676.677v3.724c0 .374.303.677.676.677.374 0 .677.303.677.677V432a.677.677 0 01-.677.677.677.677 0 00-.676.677v3.725c0 .374.303.677.676.677.374 0 .677.303.677.676v.34a.677.677 0 01-.677.676.677.677 0 00-.676.677v3.725c0 .374.303.677.676.677.374 0 .677.303.677.677v.339a.677.677 0 01-.677.677.677.677 0 00-.676.677v3.724c0 .374.303.677.676.677.374 0 .677.303.677.677v.339a.677.677 0 01-.677.677.677.677 0 00-.676.677v3.725c0 .373.303.677.676.677.374 0 .677.303.677.676v.339a.677.677 0 01-.677.677.677.677 0 00-.676.677v3.725c0 .374.303.677.676.677.374 0 .677.303.677.677v.339a.677.677 0 01-.677.677.677.677 0 00-.676.677v3.724c0 .374.303.677.676.677.374 0 .677.303.677.677v.339a.677.677 0 01-.677.677.677.677 0 00-.676.677v3.725c0 .373.303.676.676.676.374 0 .677.303.677.677v.339a.677.677 0 01-.677.677.677.677 0 00-.676.677v3.725c0 .374.303.677.676.677.374 0 .677.303.677.677v.339a.677.677 0 01-.677.677.676.676 0 00-.676.676v3.725c0 .374.303.677.676.677.374 0 .677.303.677.677v.339a.677.677 0 01-.677.677.677.677 0 00-.676.677v3.724c0 .374.303.677.676.677.374 0 .677.303.677.677v.339a.677.677 0 01-.677.677.677.677 0 00-.676.677v3.725c0 .374.303.677.676.677.374 0 .677.303.677.677v.339a.677.677 0 01-.677.676.677.677 0 00-.676.677v3.725c0 .374.303.677.676.677.374 0 .677.303.677.677v.339a.677.677 0 01-.677.677.677.677 0 00-.676.677v3.724c0 .374.303.677.676.677.374 0 .677.303.677.677v7.11a.677.677 0 01-.677.677.677.677 0 00-.676.677v3.725c0 .374.303.677.676.677.374 0 .677.303.677.677v.339a.677.677 0 01-.677.677.677.677 0 00-.676.677v.846c0 .842-.683 1.524-1.524 1.524h-11.153c-5.523 0-10-4.477-10-10v-91.388c0-5.523-4.477-10-10-10h-39.568c-5.522 0-10 4.477-10 10v53.145a8.63 8.63 0 01-8.63 8.631h-6.599a2.032 2.032 0 01-2.032-2.032 2.03 2.03 0 00-2.031-2.031h-1.523a3.554 3.554 0 01-3.553-3.554V219.042a2.707 2.707 0 00-2.708-2.708 2.708 2.708 0 01-2.708-2.708V140c0-5.523-4.477-10-10-10h-73.751c-5.523 0-10 4.477-10 10v73.627a2.707 2.707 0 01-2.708 2.707 2.707 2.707 0 00-2.707 2.708v358.205a6.43 6.43 0 01-12.861 0V448.771c0-5.523-4.478-10-10-10h-2.677c-5.523 0-10-4.477-10-10v-50.604a3.723 3.723 0 00-3.723-3.723 3.723 3.723 0 01-3.723-3.723v-15.394c0-5.522-4.477-10-10-10h-85.597c-5.523 0-10 4.478-10 10v15.394a3.723 3.723 0 01-3.723 3.723 3.723 3.723 0 00-3.723 3.723v220.225c0 5.523-4.477 10-10 10h-4.369c-5.523 0-10-4.477-10-10V467.054c0-5.523-4.477-10-10-10h-69.69c-5.523 0-10 4.477-10 10v75.66c0 5.421-4.394 9.815-9.815 9.815-5.421 0-9.815 4.395-9.815 9.815v77.198a5.754 5.754 0 11-11.508 0V373.427a2.369 2.369 0 00-2.369-2.369h-1.353a1.016 1.016 0 010-2.031h1.353a2.369 2.369 0 002.369-2.369v-2.033a2.368 2.368 0 00-2.369-2.369h-1.353a1.016 1.016 0 010-2.032h1.353a2.368 2.368 0 002.369-2.369v-2.033a2.369 2.369 0 00-2.369-2.369h-1.353a1.015 1.015 0 110-2.031h1.353a2.369 2.369 0 002.369-2.37v-2.033a2.369 2.369 0 00-2.369-2.369h-1.692a.677.677 0 110-1.354h1.861a2.54 2.54 0 002.539-2.538v-1.695a2.538 2.538 0 00-2.539-2.538h-1.522a1.016 1.016 0 010-2.032h1.522a2.538 2.538 0 002.539-2.538v-1.695a2.538 2.538 0 00-2.539-2.538h-1.522a1.015 1.015 0 110-2.031h1.522a2.54 2.54 0 002.539-2.539v-1.694a2.54 2.54 0 00-2.539-2.539h-1.522a1.016 1.016 0 010-2.031h1.522a2.54 2.54 0 002.539-2.539v-17.942c0-3.287-1.651-6.326-4.117-8.499-10.139-8.93-24.356-28.008-24.652-54.307v-1.525a2.877 2.877 0 00-2.877-2.876h-1.014a1.861 1.861 0 00-1.862 1.862 1.862 1.862 0 01-1.862 1.862h-2.2a4.062 4.062 0 01-4.061-4.062v-53.326a1.523 1.523 0 00-3.046 0v56.88a.846.846 0 11-1.693 0V231.4a1.862 1.862 0 00-1.862-1.862h-2.368a1.862 1.862 0 00-1.862 1.862 1.861 1.861 0 01-1.862 1.862h-7.106a1.861 1.861 0 01-1.862-1.862 1.862 1.862 0 00-1.862-1.862h-1.184a3.046 3.046 0 00-3.046 3.046v.678c0 26.679-7.36 45.995-15.926 55.092-2.292 2.434-4.043 5.488-4.043 8.831v13.439c0 .094.076.17.169.17.094 0 .169.076.169.169v3.556a3.046 3.046 0 003.046 3.046h2.031a1.015 1.015 0 110 2.031h-2.031a3.047 3.047 0 00-3.046 3.047v.679a3.046 3.046 0 003.046 3.046h2.031a1.016 1.016 0 010 2.031h-2.2a3.215 3.215 0 00-3.215 3.215v.341a3.214 3.214 0 003.215 3.215h2.538a.678.678 0 110 1.355h-2.538a3.214 3.214 0 00-3.215 3.215v.341a3.215 3.215 0 003.215 3.215h2.2a1.015 1.015 0 110 2.031h-2.2a3.215 3.215 0 00-3.215 3.216v.34a3.215 3.215 0 003.215 3.216h2.2a1.016 1.016 0 010 2.031h-2.2a3.215 3.215 0 00-3.215 3.215v.341a3.214 3.214 0 003.215 3.215h2.2a1.016 1.016 0 010 2.032h-2.2a3.214 3.214 0 00-3.215 3.215v.341a3.214 3.214 0 003.215 3.215h2.2a1.015 1.015 0 110 2.031h-2.369a3.386 3.386 0 00-3.385 3.385v133.399c0 5.234-4.242 9.477-9.476 9.477-5.234 0-9.477 4.242-9.477 9.476v57.392a5.246 5.246 0 01-5.246 5.246 5.246 5.246 0 00-5.246 5.246v52.837c0 2.152-2.429 3.281-4.582 3.2a2.954 2.954 0 01-.35-.031c-.12-.017-.25-.034-.37-.052a7.952 7.952 0 01-6.88-7.881V521.134a9.996 9.996 0 00-5.97-9.152l-2.18-.96c-.21-.09-.43-.136-.65-.136h-.51c-1.4 0-2.54-1.137-2.54-2.54v-1.354a1.186 1.186 0 00-2.37 0c0 .654-.53 1.185-1.18 1.185h-.15c-.57 0-1.04.466-1.04 1.041 0 .555-.43 1.012-.99 1.04l-3.86.193a1.83 1.83 0 01-1.92-1.823c0-.691-.39-1.323-1-1.633l-.92-.457a3.46 3.46 0 00-1.66-.366l-19.8.591c-1.11.033-2 .946-2 2.061a2.06 2.06 0 01-2.06 2.062h-.31c-1.31 0-2.37 1.06-2.37 2.369v22.503c0 5.523-4.48 10-10 10h-17.57c-5.52 0-10-4.477-10-10V377.49a4.4 4.4 0 00-4.4-4.4 4.4 4.4 0 01-4.4-4.4v-29.275c0-5.523-4.47-10-10-10h-15.04a5.759 5.759 0 01-5.76-5.756 5.75 5.75 0 00-5.75-5.755h-3.89c-5.14 0-9.31-4.169-9.31-9.311s-4.17-9.31-9.31-9.31h-57.52c-5.52 0-10 4.477-10 10v10.132c0 5.523-4.47 10-10 10h-18.58c-5.52 0-10 4.477-10 10v291.818c0 5.523-4.48 10-10 10h-.99c-5.52 0-10 4.477-10 10v9.64c0 5.421-4.39 9.815-9.81 9.815-5.42 0-9.82-4.394-9.82-9.815v-73.967c0-5.523-4.47-10-10-10h-10.46c-5.52 0-10-4.477-10-10v-20.431a.62.62 0 00-.33-.548.61.61 0 01-.34-.548v-3.545a6.36 6.36 0 00-1.33-3.887l-4.7-6.076a9.984 9.984 0 01-2.1-6.121v-5.98c0-.919-.36-1.801-1.01-2.452a3.471 3.471 0 01-1.02-2.451v-14.646a.501.501 0 00-.5-.508.51.51 0 00-.51.508v14.885c0 .766-.31 1.501-.85 2.043a2.892 2.892 0 00-.84 2.043v7.502c0 2.051-.64 4.053-1.81 5.733l-4.22 6.033a5.919 5.919 0 00-1.08 3.425v1.975c0 .763-.38 1.475-1.02 1.898a2.286 2.286 0 00-1.01 1.897v.869c0 1.225-.65 2.359-1.69 2.989l-.42.251a2.635 2.635 0 00-1.28 2.253c0 .961-.52 1.846-1.37 2.306l-.49.269a3.566 3.566 0 00-1.86 3.136v31.029c0 3.829-3.3 6.826-7.11 6.463a6.094 6.094 0 01-6.09-6.092V529.35c0-5.523-4.48-10-10-10h-21.63c-5.52 0-10 4.477-10 10v27.737c0 5.523-4.48 10-10 10h-6.4c-5.52 0-10 4.478-10 10v20.303a3.214 3.214 0 01-3.21 3.215c-1.78 0-3.22 1.44-3.22 3.216v37.921a2.54 2.54 0 01-5.08 0v-16.084a3.38 3.38 0 00-3.38-3.384 3.39 3.39 0 01-3.39-3.385V447.078c0-5.522-4.47-10-10-10h-47.87c-42.31 0-76.49 29.794-76.49 72.115v23.856c0 5.523-4.48 10-10 10h-3.88c-12.18 0-22 20.991-22 32.503v39.769c0 5.522-4.47 10-10 10h-15.87c-5.53 0-10-4.478-10-10v-37.556c0-5.523-4.48-10-10-10h-4.03c-5.53 0-10 4.477-10 10v87a5.247 5.247 0 01-5.25 5.246c-2.9 0-5.25-2.348-5.25-5.246v-48.756a2.87 2.87 0 00-2.87-2.877 2.879 2.879 0 01-2.88-2.877v-32.49c0-5.523-4.48-10-10-10h-1.32c-5.52 0-10-4.478-10-10V522.24c0-5.523-4.48-10-10-10H-1778c-5.52 0-10 4.477-10 10V724c0 5.523 4.48 10 10 10H692c5.523 0 10-4.477 10-10V346.525c0-5.523-4.477-10-10-10h-18.43zM293.149 528.322c0 .654-.531 1.185-1.185 1.185h-2.2a.338.338 0 01-.338-.339v-.846c0-.655.53-1.185 1.185-1.185h1.353c.654 0 1.185.53 1.185 1.185zm0-5.756c0 .655-.531 1.185-1.185 1.185h-1.353a1.185 1.185 0 110-2.37h1.353c.654 0 1.185.531 1.185 1.185zm0-6.094c0 .654-.531 1.185-1.185 1.185h-1.353a1.185 1.185 0 110-2.37h1.353c.654 0 1.185.531 1.185 1.185zm0-6.094c0 .654-.531 1.185-1.185 1.185h-1.353a1.184 1.184 0 110-2.37h1.353c.654 0 1.185.53 1.185 1.185zm0-6.094c0 .654-.531 1.185-1.185 1.185h-1.353a1.184 1.184 0 110-2.37h1.353c.654 0 1.185.53 1.185 1.185zm0-6.095c0 .655-.531 1.185-1.185 1.185h-1.353a1.184 1.184 0 110-2.369h1.353c.654 0 1.185.53 1.185 1.184zm0-5.755c0 .654-.531 1.185-1.185 1.185h-1.353a1.184 1.184 0 110-2.37h1.353c.654 0 1.185.53 1.185 1.185z" fill="url(#paint2_linear)"/><path d="M446.886 487.501c-58.773 0-106.322 100.894-106.322 225.245h212.769c0-124.477-47.674-225.245-106.447-225.245z" fill="url(#paint3_linear)"/><path d="M446.886 487.501c-58.773 0-106.322 100.894-106.322 225.245h212.769c0-124.477-47.674-225.245-106.447-225.245z" fill="url(#paint4_linear)"/><mask id="c" style="mask-type:alpha" maskUnits="userSpaceOnUse" x="340" y="487" width="214" height="226"><path d="M446.886 487.501c-58.773 0-106.322 100.894-106.322 225.245h212.769c0-124.477-47.674-225.245-106.447-225.245z" fill="url(#paint5_linear)"/></mask><g mask="url(#c)"><path opacity=".2" d="M357.247 507.899c33.689-15.346 101.724-40.448 104.354-18.087 3.286 27.952-191.452 147.981-124.896 122.495 66.556-25.485 124.074-95.365 138.864-70.702 14.791 24.664-129.826 126.606-81.346 121.674 48.479-4.933 108.462-118.385 127.361-100.298 18.898 18.086-124.075 143.87-92.029 154.557 32.046 10.688 119.966-167.711 155.298-171.822" stroke="url(#paint6_linear)" stroke-width="2"/></g><path d="M258.478 468.457c-68.167 0-123.458 108.79-123.458 242.976h246.916c-.126-134.186-55.291-242.976-123.458-242.976z" fill="url(#paint7_linear)"/><mask id="d" style="mask-type:alpha" maskUnits="userSpaceOnUse" x="135" y="468" width="247" height="244"><path d="M258.478 468.457c-68.167 0-123.458 108.79-123.458 242.976h246.916c-.126-134.186-55.291-242.976-123.458-242.976z" fill="url(#paint8_linear)"/></mask><g mask="url(#d)"><path opacity=".2" d="M145.526 517.485c13.012-15.356 42.242-42.717 55.068-29.316 16.033 16.752-18.123 74.684 4.183 81.664 22.306 6.98 53.673-102.603 80.859-92.133 27.185 10.469-117.107 180.079-66.918 186.361 50.188 6.282 73.191-145.18 94.8-134.711 21.609 10.47-48.794 92.134-24.397 115.865 24.397 23.732 36.945-87.945 56.462-75.382 19.518 12.564 5.577 75.382-13.244 117.959" stroke="url(#paint9_linear)" stroke-width="2"/></g><path opacity=".2" d="M354.355 711.433h27.581c-.126-134.186-55.291-242.976-123.458-242.976-4.662 0-9.264.509-13.791 1.5 61.665 13.499 109.55 116.466 109.668 241.476z" fill="#C9D983"/><path d="M347.418 471.744h-3.648v241.231h3.648V471.744z" fill="#0C5E59"/><path d="M370.995 450.951c-8.906 0-17.302 6.381-23.154 12.252 3.944-5.615 9.414-12.38 13.612-13.784 7.124-2.297 13.104-1.149 13.104-1.149s-6.743-9.444-16.666-4.977c-4.452 1.914-8.142 8.168-10.813 14.167 1.527-5.616 2.544-12.253 1.654-18.379-2.417-15.316-19.592-16.593-19.592-16.593s9.542 13.274 11.323 28.973c.254 2.042.381 4.084.509 5.999-1.527-9.062-5.089-19.911-13.74-25.654-21.499-14.295-34.984 10.976-34.984 10.976s12.34-7.658 28.496.511c12.722 6.381 18.192 20.293 19.973 25.781-2.163-4.211-10.941-19.91-25.189-22.335-21.372-3.574-26.842 23.612-26.842 23.612s12.212-9.828 27.351-9.19c11.704.511 20.228 5.361 24.426 9.19-2.163-.638-7.124-1.787-12.849-1.787-18.955-.255-22.899 25.144-22.899 25.144l36.002-22.081c-1.527 2.936-4.707 9.062-6.488 13.402-2.417 5.871-.89 18.889-.89 18.889s5.851-9.955 7.505-16.464c1.654-6.254 1.272-12.764 1.018-15.827l24.426 26.42s5.979-16.082-12.34-23.867c-2.418-1.021-4.58-1.915-6.234-2.553 4.453.638 9.796 2.425 15.266 5.999 10.686 6.892 17.429 16.337 17.429 16.337s6.615-19.528-9.669-27.186c-5.343-2.553-11.449-2.17-16.665-1.021 3.944-2.297 9.032-3.957 15.266-3.191 14.757 1.787 18.828 12.381 18.828 12.381s4.198-24.123-17.174-23.995z" fill="url(#paint10_linear)"/><path d="M269.06 684.595a109.558 109.558 0 00-11.059-29.541 69.01 69.01 0 00-2.28-3.878c-5.814-9.694-12.997-18.363-21.319-25.891-1.026-1.026-2.166-1.939-3.306-2.851a110.343 110.343 0 00-29.984-17.793c-1.368-.57-2.736-1.026-4.105-1.483-10.944-3.878-22.801-6.045-35-6.273h-4.332c-12.313.228-24.056 2.395-35 6.273-1.368.457-2.736 1.027-4.105 1.483a110.332 110.332 0 00-29.983 17.793c-1.14.912-2.28 1.939-3.307 2.851-8.322 7.528-15.619 16.197-21.319 25.891-.798 1.255-1.482 2.624-2.28 3.878a109.581 109.581 0 00-11.059 29.541c-.342 1.483-.57 2.966-.912 4.448A110.789 110.789 0 0048 708.547h223.568c0-6.615-.57-13.231-1.71-19.504-.228-1.482-.456-2.965-.798-4.448z" fill="url(#paint11_linear)"/><path opacity=".3" d="M157.676 596.771v111.776h4.332V596.771h-4.332z" fill="url(#paint12_linear)"/><path opacity=".3" d="M118.57 604.641l27.818 104.02h4.446l-28.273-105.503c-1.255.457-2.623.913-3.991 1.483z" fill="url(#paint13_linear)"/><path opacity=".3" d="M85.28 625.285l48.111 83.262h4.903l-49.708-86.113c-1.14.912-2.28 1.939-3.306 2.851z" fill="url(#paint14_linear)"/><path opacity=".3" d="M61.68 655.054l53.584 53.607h6.043l-57.46-57.485c-.684 1.255-1.482 2.624-2.166 3.878z" fill="url(#paint15_linear)"/><path opacity=".3" d="M49.71 689.043l33.86 19.504h8.665l-41.613-24.066c-.342 1.597-.57 3.08-.912 4.562z" fill="url(#paint16_linear)"/><path opacity=".3" d="M168.734 708.661h4.447l27.817-104.02c-1.368-.57-2.736-1.026-4.104-1.483l-28.16 105.503z" fill="url(#paint17_linear)"/><path opacity=".3" d="M181.274 708.661h5.017l48.111-83.262c-1.026-1.026-2.166-1.938-3.306-2.851l-49.822 86.113z" fill="url(#paint18_linear)"/><path d="M198.262 708.661h6.042l53.584-53.607a68.43 68.43 0 00-2.281-3.878l-57.345 57.485z" fill="url(#paint19_linear)" opacity=".3"/><path d="M227.447 708.661h8.665l33.86-19.504c-.228-1.482-.57-2.965-.912-4.448l-41.613 23.952z" fill="#084F15"/><path d="M352.742 693.378c-1.482-6.616-3.876-13.003-7.069-18.82a49.858 49.858 0 01-1.368-2.509c-3.648-6.159-8.208-11.634-13.567-16.424-.684-.571-1.368-1.255-2.166-1.825-5.7-4.677-12.084-8.555-19.039-11.292-.798-.342-1.71-.684-2.622-.912-6.955-2.51-14.479-3.878-22.231-3.992h-2.737c-7.752.114-15.277 1.596-22.231 3.992-.912.342-1.71.57-2.622.912-6.955 2.737-13.339 6.615-19.039 11.292-.684.57-1.369 1.254-2.167 1.825-5.358 4.79-9.918 10.265-13.566 16.424-.456.798-.913 1.597-1.369 2.509a70.452 70.452 0 00-7.068 18.82c-.228.912-.342 1.938-.57 2.851-.684 3.992-1.14 8.212-1.14 12.432h142.053c0-4.22-.342-8.44-1.14-12.432.114-1.027-.114-1.939-.342-2.851z" fill="url(#paint20_linear)"/><path opacity=".3" d="M281.942 637.604v71.057h2.737v-71.057h-2.737z" fill="url(#paint21_linear)"/><path opacity=".3" d="M257.203 642.508l17.671 66.039h2.85l-17.899-67.065c-.912.456-1.824.684-2.622 1.026z" fill="url(#paint22_linear)"/><path opacity=".3" d="M235.998 655.739l30.554 52.922h3.192l-31.58-54.747c-.798.57-1.482 1.14-2.166 1.825z" fill="url(#paint23_linear)"/><path opacity=".3" d="M220.949 674.558l34.088 33.989h3.877l-36.483-36.498c-.456.912-1.026 1.711-1.482 2.509z" fill="url(#paint24_linear)"/><path opacity=".3" d="M213.425 696.229l21.547 12.432h5.472l-26.449-15.284c-.228.913-.456 1.825-.57 2.852z" fill="url(#paint25_linear)"/><path opacity=".3" d="M289.011 708.661h2.85l17.671-66.039c-.798-.342-1.71-.684-2.622-.912l-17.899 66.951z" fill="url(#paint26_linear)"/><path opacity=".3" d="M296.992 708.661h3.192l30.554-52.922c-.684-.571-1.368-1.255-2.166-1.825l-31.58 54.747z" fill="url(#paint27_linear)"/><path opacity=".3" d="M307.822 708.661h3.876l34.089-33.989a49.858 49.858 0 01-1.368-2.509l-36.597 36.498z" fill="url(#paint28_linear)"/><path opacity=".3" d="M326.292 708.661h5.472l21.548-12.432c-.114-.913-.342-1.939-.57-2.852l-26.45 15.284z" fill="url(#paint29_linear)"/><path d="M638 701H-658v95.58H638V701z" fill="url(#paint30_linear)"/><mask id="e" style="mask-type:alpha" maskUnits="userSpaceOnUse" x="-658" y="701" width="1296" height="96"><path d="M638 701H-658v95.58H638V701z" fill="url(#paint31_linear)"/></mask><g mask="url(#e)"><path opacity=".7" fill-rule="evenodd" clip-rule="evenodd" d="M-107.209 739.025c-8.604 9.061-17.383 15.24-26.766 14.814-2.327-.106-4.196-.585-5.595-1.473-1.429-.908-2.3-2.201-2.676-3.767-.368-1.533-.253-3.286.184-5.162.438-1.884 1.216-3.955 2.239-6.155 3.746-8.058 11.001-18.29 18.026-28.197v-.001h.001c.613-.866 1.225-1.728 1.832-2.587 3.798-5.367 7.439-10.584 10.354-15.282 2.928-4.719 5.068-8.827 5.925-11.992.429-1.583.508-2.828.285-3.757-.21-.874-.696-1.516-1.58-1.95-.934-.459-2.364-.706-4.456-.587-2.08.119-4.727.595-8.031 1.496-6.507 1.774-13.756 5.867-21.592 11.708-7.827 5.834-16.181 13.367-24.898 21.958-12.288 12.11-25.246 26.269-38.425 40.67l-.001.001-.002.002c-5.53 6.043-11.098 12.128-16.673 18.122-18.831 20.248-37.721 39.45-55.273 52.27-17.481 12.769-33.987 19.47-47.885 13.994-6.871-2.706-10.331-6.595-10.743-11.503-.399-4.762 2.125-10.131 6.254-15.737 8.288-11.256 23.687-24.3 38.638-36.827l1.608-1.346.066-.056.03-.025c6.911-5.788 13.679-11.456 19.593-16.798 6.408-5.789 11.762-11.15 15.191-15.822 1.715-2.336 2.916-4.456 3.539-6.333.621-1.872.647-3.43.125-4.724-.521-1.29-1.654-2.482-3.686-3.488-2.04-1.01-4.925-1.8-8.816-2.299-12.373-1.586-28.247 2.146-45.927 9.4-17.65 7.243-36.975 17.942-56.199 30.142-38.447 24.4-76.394 54.741-99.585 75.235l-1.324-1.498c23.249-20.546 61.28-50.955 99.837-75.425 19.278-12.235 38.712-23.001 56.512-30.304 17.771-7.292 34.041-11.188 46.94-9.534 4.006.514 7.134 1.344 9.45 2.491 2.326 1.152 3.895 2.656 4.652 4.53.755 1.871.636 3.944-.081 6.104-.715 2.153-2.046 4.464-3.824 6.886-3.557 4.845-9.037 10.318-15.463 16.123-5.943 5.368-12.738 11.059-19.641 16.84l-.002.002-.023.019-1.688 1.414c-15.019 12.583-30.198 25.459-38.312 36.478-4.073 5.531-6.206 10.388-5.871 14.385.323 3.85 2.988 7.251 9.483 9.81 12.831 5.054 28.523-1.003 45.973-13.749 17.379-12.694 36.154-31.765 54.988-52.017 5.548-5.966 11.102-12.035 16.624-18.069 13.195-14.419 26.21-28.64 38.537-40.788 8.748-8.622 17.176-16.226 25.106-22.137 7.921-5.904 15.404-10.164 22.262-12.035 3.379-.921 6.174-1.433 8.442-1.562 2.256-.129 4.08.114 5.453.788 1.423.699 2.295 1.831 2.643 3.278.335 1.393.17 3.013-.299 4.747-.94 3.467-3.218 7.787-6.156 12.523-2.951 4.756-6.625 10.019-10.421 15.384l-1.674 2.362-.104.147-.022.032c-7.066 9.966-14.214 20.049-17.879 27.931-.989 2.127-1.708 4.062-2.104 5.765-.398 1.71-.456 3.124-.187 4.243.26 1.085.833 1.928 1.803 2.544 1 .635 2.485 1.067 4.613 1.164 8.437.384 16.668-5.182 25.226-14.194 6.943-7.311 13.936-16.707 21.283-26.58l.005-.007.017-.022a1679.97 1679.97 0 015.072-6.792c9.214-12.251 19.042-24.633 29.943-33.951 10.906-9.323 22.976-15.655 36.669-15.655v2c-13.037 0-24.66 6.02-35.37 15.175-10.716 9.161-20.43 21.383-29.643 33.634-1.7 2.26-3.384 4.523-5.054 6.767l-.002.002v.001c-7.351 9.878-14.436 19.398-21.47 26.806zm385.327-53.304c-1.994-3.126-5.614-4.977-11.877-4.782-12.457.39-24.354 10.452-36.015 25.755-11.615 15.244-22.767 35.373-33.813 55.338l-.153.275c-10.972 19.831-21.846 39.484-32.914 53.793-5.561 7.19-11.212 13.087-16.998 16.984-5.798 3.905-11.788 5.84-17.975 4.987-6.102-.842-10.154-3.403-12.485-7.355-2.298-3.898-2.823-8.983-2.27-14.691 1.105-11.406 6.584-25.922 12.139-40.061.438-1.116.877-2.229 1.315-3.339l.027-.068v-.001c5.13-13.018 10.047-25.492 11.587-34.963.839-5.161.632-9.202-.883-11.92-1.453-2.606-4.257-4.233-9.293-4.233-4.953 0-9.771 2.188-14.56 6.173-4.794 3.988-9.491 9.722-14.176 16.673-7.852 11.652-15.564 26.56-23.585 42.064-1.557 3.008-3.125 6.039-4.707 9.073-9.717 18.623-19.986 37.34-31.5 51.403C28.48 860.872 15.567 870.48.53 870.48c-7.43 0-12.29-1.934-14.905-5.659-2.584-3.68-2.746-8.802-1.566-14.625 1.187-5.857 3.78-12.659 7.015-19.909 2.74-6.141 5.962-12.651 9.217-19.226v-.001c.591-1.193 1.183-2.387 1.772-3.583 7.72-15.64 15.117-31.27 16.61-43.369.745-6.027-.002-11.001-2.731-14.649-2.72-3.636-7.568-6.17-15.511-6.964-25.577-2.558-51.526 8.633-73.653 23.806-22.109 15.16-40.26 34.2-50.196 47.089l-1.584-1.221c10.044-13.03 28.343-32.222 50.649-47.518 22.288-15.283 48.72-26.772 74.983-24.146 8.256.826 13.735 3.506 16.914 7.756 3.168 4.236 3.89 9.818 3.115 16.092-1.544 12.505-9.13 28.465-16.802 44.01-.592 1.2-1.185 2.397-1.777 3.592v.001c-3.256 6.577-6.457 13.045-9.18 19.146-3.22 7.217-5.74 13.856-6.881 19.491-1.149 5.669-.855 10.09 1.243 13.079 2.068 2.946 6.118 4.808 13.268 4.808 14.122 0 26.522-9.022 37.904-22.921 11.367-13.882 21.551-32.425 31.275-51.062 1.573-3.015 3.135-6.034 4.687-9.035v-.002c8.02-15.5 15.797-30.535 23.72-42.291 4.731-7.021 9.552-12.931 14.554-17.094 5.007-4.165 10.263-6.635 15.84-6.635 5.494 0 9.12 1.816 11.04 5.259 1.857 3.332 1.967 7.947 1.11 13.215-1.577 9.697-6.575 22.376-11.675 35.31v.001l-1.367 3.471c-5.583 14.211-10.937 28.45-12.009 39.522-.536 5.53.016 10.114 2.002 13.482 1.953 3.312 5.393 5.611 11.036 6.389 5.559.767 11.06-.943 16.583-4.664 5.535-3.727 11.034-9.437 16.534-16.548 10.974-14.188 21.788-33.734 32.805-53.644l.094-.17c11.025-19.927 22.25-40.197 33.973-55.581 11.677-15.325 24.08-26.121 37.543-26.542 6.697-.209 11.126 1.788 13.625 5.705 2.436 3.818 2.872 9.227 2.234 15.47-.642 6.277-2.396 13.604-4.556 21.411-1.081 3.909-2.268 7.951-3.474 12.054l-.055.185c-1.189 4.046-2.395 8.15-3.54 12.256-2.325 8.341-4.387 16.658-5.523 24.445-1.137 7.794-1.337 14.992.018 21.114 1.35 6.097 4.233 11.102 9.27 14.604 5.06 3.518 12.403 5.596 22.812 5.596v2c-10.651 0-18.444-2.124-23.953-5.953-5.531-3.845-8.646-9.332-10.081-15.815-1.43-6.459-1.199-13.929-.045-21.835 1.154-7.913 3.244-16.327 5.576-24.693 1.145-4.109 2.352-8.214 3.537-12.246l.006-.022.059-.2c1.207-4.105 2.389-8.132 3.466-12.023 2.155-7.792 3.87-14.982 4.493-21.082.628-6.136.127-10.965-1.93-14.19zm313.05 94.372c-1.87-6.234-5.793-13.049-11.005-20.132-5.219-7.092-11.77-14.506-18.95-21.94-11.966-12.389-25.729-24.883-38.062-36.079-2.463-2.236-4.868-4.42-7.191-6.54-6.987-6.379-13.219-12.183-18.024-17.127-4.842-4.981-8.116-8.974-9.324-11.745-.611-1.4-.568-2.202-.315-2.645.25-.435.936-.922 2.655-1.093 3.411-.339 9.668.691 19.604 3.53l.549-1.924c-9.909-2.831-16.511-3.978-20.351-3.596-1.908.19-3.446.788-4.192 2.089-.741 1.293-.464 2.877.216 4.438 1.374 3.152 4.909 7.386 9.724 12.34 4.851 4.991 11.123 10.831 18.109 17.209 2.332 2.129 4.744 4.319 7.211 6.558 12.333 11.197 26.037 23.638 37.952 35.974 7.147 7.4 13.632 14.743 18.778 21.737 5.154 7.003 8.926 13.604 10.701 19.52.902 3.006 1.427 5.42 1.622 7.312.198 1.912.045 3.184-.302 3.98-.315.72-.798 1.083-1.521 1.212-.802.144-1.946-.001-3.48-.524-3.055-1.043-7.187-3.419-12.235-6.778-5.028-3.345-10.882-7.609-17.365-12.37l-2.435-1.789c-12.429-9.137-26.941-19.803-42.082-29.088-16.133-9.893-33.058-18.267-49.024-21.542-7.904-1.621-13.455-2.304-17.008-2.113-1.76.094-3.181.409-4.154 1.058-.506.337-.904.773-1.145 1.317-.241.541-.296 1.121-.224 1.701.138 1.121.761 2.339 1.643 3.598.899 1.281 2.141 2.708 3.654 4.261 3.027 3.107 7.223 6.804 12.135 10.957 2.91 2.459 6.073 5.081 9.406 7.843l.005.004c7.951 6.59 16.862 13.975 25.572 21.848 12.36 11.172 24.233 23.256 32.263 35.301 2.008 3.011 3.33 5.416 4.059 7.289.744 1.913.792 3.08.547 3.739-.199.537-.693.971-1.897 1.126-1.23.159-2.985-.017-5.271-.546-4.551-1.054-10.84-3.421-18.453-6.675-7.598-3.249-16.456-7.355-26.128-11.862l-2.411-1.124c-18.782-8.755-40.393-18.829-61.568-26.924-22.066-8.437-43.767-14.769-61.362-15.178-7.022-.163-12.275.534-15.969 2.002-3.729 1.483-5.948 3.793-6.665 6.828-.699 2.96.089 6.388 1.832 10.029 1.752 3.661 4.532 7.67 8.022 11.86 13.942 16.741 39.714 36.974 59.166 50.482l1.141-1.642c-19.428-13.492-45.01-33.597-58.77-50.12-3.436-4.126-6.103-7.991-7.755-11.443-1.662-3.472-2.235-6.396-1.689-8.707.528-2.237 2.162-4.118 5.457-5.428 3.331-1.325 8.273-2.022 15.183-1.861 17.235.401 38.667 6.624 60.695 15.046 21.106 8.069 42.66 18.116 61.456 26.878l2.393 1.115c9.666 4.504 18.553 8.624 26.186 11.888 7.619 3.257 14.05 5.687 18.788 6.784 2.359.547 4.392.786 5.977.582 1.611-.208 2.96-.915 3.517-2.413.511-1.375.229-3.137-.559-5.162-.803-2.066-2.215-4.609-4.257-7.673-8.17-12.255-20.192-24.471-32.587-35.675-8.742-7.902-17.711-15.335-25.673-21.934l-.002-.002-.004-.003c-3.323-2.754-6.47-5.363-9.353-7.8-4.909-4.15-9.041-7.793-11.994-10.825-1.477-1.516-2.638-2.857-3.449-4.014-.827-1.179-1.219-2.068-1.296-2.694-.037-.293.001-.496.067-.644.064-.146.185-.305.426-.465.519-.346 1.498-.636 3.153-.725 3.275-.176 8.608.457 16.499 2.076 15.624 3.205 32.314 11.436 48.379 21.287 15.067 9.239 29.516 19.859 41.956 29.003l2.424 1.781c6.477 4.757 12.368 9.048 17.44 12.423 5.052 3.362 9.374 5.871 12.697 7.006 1.656.565 3.183.831 4.478.6 1.375-.246 2.417-1.044 3.001-2.38.551-1.262.671-2.941.46-4.986-.213-2.065-.776-4.612-1.697-7.681z" fill="url(#paint32_linear)"/><path opacity=".1" d="M-269.842 734.448c-133.23 0-155.6 44.253-390.588 44.253v69.719H638V699.38c-285.09 0-248.395 62.204-493.968 62.204-245.572 0-298.497-27.136-413.874-27.136z" fill="url(#paint33_linear)"/></g><path opacity=".2" d="M-182.493 406.869c114.082-114.082 114.122-299.085.091-413.216-114.032-114.131-298.954-114.172-413.035-.09-114.082 114.081-114.122 299.084-.091 413.215 114.032 114.132 298.954 114.172 413.035.091z" fill="url(#paint34_linear)"/><path d="M633-8H-652v800H533c55.229 0 100-44.772 100-100V-8z" fill="url(#paint35_linear)"/></g><path opacity=".56" d="M731.256 551.321c112.859-112.91 112.859-295.972 0-408.881-112.86-112.91-295.842-112.909-408.702 0-112.86 112.909-112.86 295.971 0 408.88 112.86 112.91 295.842 112.91 408.702.001z" fill="url(#paint36_linear)"/><path opacity=".2" d="M383.357 743.553c82.54-82.576 82.54-216.459 0-299.035-82.54-82.577-216.364-82.577-298.905 0-82.54 82.576-82.54 216.459 0 299.035 82.541 82.576 216.365 82.577 298.905 0z" fill="url(#paint37_linear)"/><path d="M127.307 835.259a117.82 117.82 0 00-11.871-31.746 73.446 73.446 0 00-2.448-4.168c-6.241-10.419-13.952-19.734-22.886-27.824-1.102-1.103-2.325-2.084-3.55-3.064a118.409 118.409 0 00-32.187-19.122c-1.469-.613-2.937-1.103-4.406-1.593-11.749-4.168-24.477-6.497-37.573-6.742h-4.65c-13.218.245-25.824 2.574-37.573 6.742-1.468.49-2.937 1.103-4.406 1.593a118.409 118.409 0 00-32.187 19.122c-1.224.98-2.448 2.083-3.55 3.064-8.934 8.09-16.767 17.405-22.886 27.824-.857 1.349-1.59 2.819-2.448 4.168a117.84 117.84 0 00-11.871 31.746c-.367 1.594-.612 3.187-.979 4.781A119.165 119.165 0 00-110 861h240c0-7.109-.612-14.219-1.836-20.96-.245-1.594-.489-3.187-.857-4.781z" fill="#fff"/></g><defs><linearGradient id="paint0_linear" x1="240.272" y1="1111.08" x2="-745.489" y2="298.262" gradientUnits="userSpaceOnUse"><stop stop-color="#FFEDBA"/><stop offset="1" stop-color="#EE4D47"/></linearGradient><linearGradient id="paint1_linear" x1="141" y1="982" x2="-715.525" y2="250.836" gradientUnits="userSpaceOnUse"><stop stop-color="#FFEDBA"/><stop offset="1" stop-color="#EE4D47"/></linearGradient><linearGradient id="paint2_linear" x1="213" y1="-220" x2="213" y2="884" gradientUnits="userSpaceOnUse"><stop stop-color="#F4A984"/><stop offset="1" stop-color="#F4A984" stop-opacity="0"/></linearGradient><linearGradient id="paint3_linear" x1="446.949" y1="439.562" x2="446.949" y2="719.313" gradientUnits="userSpaceOnUse"><stop offset=".241" stop-color="#2CA77F"/><stop offset="1" stop-color="#1B8877"/></linearGradient><linearGradient id="paint4_linear" x1="446.949" y1="439.562" x2="446.949" y2="719.313" gradientUnits="userSpaceOnUse"><stop offset=".241" stop-color="#2CA77F"/><stop offset="1" stop-color="#1B8877"/></linearGradient><linearGradient id="paint5_linear" x1="446.949" y1="439.562" x2="446.949" y2="719.313" gradientUnits="userSpaceOnUse"><stop offset=".241" stop-color="#2CA77F"/><stop offset="1" stop-color="#1B8877"/></linearGradient><linearGradient id="paint6_linear" x1="453.843" y1="450.726" x2="453.843" y2="704.866" gradientUnits="userSpaceOnUse"><stop stop-color="#fff"/><stop offset="1" stop-color="#fff" stop-opacity="0"/></linearGradient><linearGradient id="paint7_linear" x1="258.478" y1="468.457" x2="258.478" y2="760.803" gradientUnits="userSpaceOnUse"><stop offset=".422" stop-color="#2CA77F"/><stop offset="1" stop-color="#1B8877"/></linearGradient><linearGradient id="paint8_linear" x1="258.478" y1="468.457" x2="258.478" y2="760.803" gradientUnits="userSpaceOnUse"><stop offset=".422" stop-color="#2CA77F"/><stop offset="1" stop-color="#1B8877"/></linearGradient><linearGradient id="paint9_linear" x1="250.269" y1="526.897" x2="250.269" y2="734.254" gradientUnits="userSpaceOnUse"><stop stop-color="#fff"/><stop offset="1" stop-color="#fff" stop-opacity="0"/></linearGradient><linearGradient id="paint10_linear" x1="338.594" y1="395.877" x2="338.594" y2="503.918" gradientUnits="userSpaceOnUse"><stop stop-color="#D3D86C"/><stop offset="1" stop-color="#82A637"/></linearGradient><linearGradient id="paint11_linear" x1="159.784" y1="560.394" x2="159.784" y2="708.547" gradientUnits="userSpaceOnUse"><stop stop-color="#D3D86C"/><stop offset="1" stop-color="#82A637"/></linearGradient><linearGradient id="paint12_linear" x1="159.842" y1="596.771" x2="159.842" y2="708.547" gradientUnits="userSpaceOnUse"><stop stop-color="#084F15" stop-opacity="0"/><stop offset="1" stop-color="#084F15"/></linearGradient><linearGradient id="paint13_linear" x1="134.702" y1="603.158" x2="134.702" y2="708.661" gradientUnits="userSpaceOnUse"><stop stop-color="#084F15" stop-opacity="0"/><stop offset="1" stop-color="#084F15"/></linearGradient><linearGradient id="paint14_linear" x1="111.787" y1="622.434" x2="111.787" y2="708.547" gradientUnits="userSpaceOnUse"><stop stop-color="#084F15" stop-opacity="0"/><stop offset="1" stop-color="#084F15"/></linearGradient><linearGradient id="paint15_linear" x1="91.494" y1="651.176" x2="91.494" y2="708.661" gradientUnits="userSpaceOnUse"><stop stop-color="#084F15" stop-opacity="0"/><stop offset="1" stop-color="#084F15"/></linearGradient><linearGradient id="paint16_linear" x1="70.972" y1="684.481" x2="70.972" y2="708.547" gradientUnits="userSpaceOnUse"><stop stop-color="#084F15" stop-opacity="0"/><stop offset="1" stop-color="#084F15"/></linearGradient><linearGradient id="paint17_linear" x1="184.866" y1="603.158" x2="184.866" y2="708.661" gradientUnits="userSpaceOnUse"><stop stop-color="#084F15" stop-opacity="0"/><stop offset="1" stop-color="#084F15"/></linearGradient><linearGradient id="paint18_linear" x1="207.838" y1="622.548" x2="207.838" y2="708.661" gradientUnits="userSpaceOnUse"><stop stop-color="#084F15" stop-opacity="0"/><stop offset="1" stop-color="#084F15"/></linearGradient><linearGradient id="paint19_linear" x1="228.075" y1="651.176" x2="228.075" y2="708.661" gradientUnits="userSpaceOnUse"><stop stop-color="#084F15" stop-opacity="0"/><stop offset="1" stop-color="#084F15"/></linearGradient><linearGradient id="paint20_linear" x1="283.197" y1="614.382" x2="283.197" y2="708.661" gradientUnits="userSpaceOnUse"><stop stop-color="#D3D86C"/><stop offset="1" stop-color="#82A637"/></linearGradient><linearGradient id="paint21_linear" x1="283.31" y1="637.604" x2="283.31" y2="708.661" gradientUnits="userSpaceOnUse"><stop stop-color="#084F15" stop-opacity="0"/><stop offset="1" stop-color="#084F15"/></linearGradient><linearGradient id="paint22_linear" x1="267.464" y1="641.482" x2="267.464" y2="708.547" gradientUnits="userSpaceOnUse"><stop stop-color="#084F15" stop-opacity="0"/><stop offset="1" stop-color="#084F15"/></linearGradient><linearGradient id="paint23_linear" x1="252.871" y1="653.914" x2="252.871" y2="708.661" gradientUnits="userSpaceOnUse"><stop stop-color="#084F15" stop-opacity="0"/><stop offset="1" stop-color="#084F15"/></linearGradient><linearGradient id="paint24_linear" x1="239.931" y1="672.049" x2="239.931" y2="708.547" gradientUnits="userSpaceOnUse"><stop stop-color="#084F15" stop-opacity="0"/><stop offset="1" stop-color="#084F15"/></linearGradient><linearGradient id="paint25_linear" x1="226.935" y1="693.377" x2="226.935" y2="708.661" gradientUnits="userSpaceOnUse"><stop stop-color="#084F15" stop-opacity="0"/><stop offset="1" stop-color="#084F15"/></linearGradient><linearGradient id="paint26_linear" x1="299.271" y1="641.71" x2="299.271" y2="708.661" gradientUnits="userSpaceOnUse"><stop stop-color="#084F15" stop-opacity="0"/><stop offset="1" stop-color="#084F15"/></linearGradient><linearGradient id="paint27_linear" x1="313.865" y1="653.914" x2="313.865" y2="708.661" gradientUnits="userSpaceOnUse"><stop stop-color="#084F15" stop-opacity="0"/><stop offset="1" stop-color="#084F15"/></linearGradient><linearGradient id="paint28_linear" x1="326.804" y1="672.163" x2="326.804" y2="708.661" gradientUnits="userSpaceOnUse"><stop stop-color="#084F15" stop-opacity="0"/><stop offset="1" stop-color="#084F15"/></linearGradient><linearGradient id="paint29_linear" x1="339.802" y1="693.377" x2="339.802" y2="708.661" gradientUnits="userSpaceOnUse"><stop stop-color="#084F15" stop-opacity="0"/><stop offset="1" stop-color="#084F15"/></linearGradient><linearGradient id="paint30_linear" x1="-332.131" y1="420.786" x2="-332.131" y2="889.717" gradientUnits="userSpaceOnUse"><stop offset=".278" stop-color="#EEEF99"/><stop offset=".77" stop-color="#B9D079"/></linearGradient><linearGradient id="paint31_linear" x1="-332.131" y1="420.786" x2="-332.131" y2="889.717" gradientUnits="userSpaceOnUse"><stop offset=".278" stop-color="#EEEF99"/><stop offset=".77" stop-color="#B9D079"/></linearGradient><linearGradient id="paint32_linear" x1="64.755" y1="705.737" x2="64.755" y2="918.053" gradientUnits="userSpaceOnUse"><stop stop-color="#fff"/><stop offset="1" stop-color="#fff" stop-opacity="0"/></linearGradient><linearGradient id="paint33_linear" x1="-11.215" y1="642.774" x2="-11.215" y2="852.992" gradientUnits="userSpaceOnUse"><stop offset=".164" stop-color="#82A637"/><stop offset=".891" stop-color="#1B8877"/></linearGradient><linearGradient id="paint34_linear" x1="-595.416" y1="-104.468" x2="-595.338" y2="251.265" gradientUnits="userSpaceOnUse"><stop stop-color="#fff"/><stop offset="1" stop-color="#fff" stop-opacity="0"/></linearGradient><linearGradient id="paint35_linear" x1="240.272" y1="456" x2="240.272" y2="-236" gradientUnits="userSpaceOnUse"><stop stop-color="#FFEDBA" stop-opacity="0"/><stop offset="1" stop-color="#EB2A24"/></linearGradient><linearGradient id="paint36_linear" x1="322.554" y1="45.438" x2="322.708" y2="397.438" gradientUnits="userSpaceOnUse"><stop stop-color="#fff"/><stop offset="1" stop-color="#fff" stop-opacity="0"/></linearGradient><linearGradient id="paint37_linear" x1="84.452" y1="373.575" x2="84.565" y2="631.011" gradientUnits="userSpaceOnUse"><stop stop-color="#fff"/><stop offset="1" stop-color="#fff" stop-opacity="0"/></linearGradient></defs></svg>