<svg width="1920" height="1080" fill="none" xmlns="http://www.w3.org/2000/svg"><path d="M1920 0H0v820.85h1820c55.23 0 100-44.771 100-100V0z" fill="url(#paint0_linear)"/><path d="M1546.14 359.273h-6.8a2.55 2.55 0 00-2.55 2.551v251.267a3.507 3.507 0 01-3.51 3.507c-1.94 0-3.51-1.57-3.51-3.507V452.213c0-5.283-4.28-9.566-9.56-9.566a9.565 9.565 0 00-9.57 9.566v10.626c0 5.523-4.48 10-10 10h-34.79a7.723 7.723 0 00-7.72 7.72v5.594c0 1.174-.95 2.126-2.12 2.126-1.18 0-2.13.952-2.13 2.126v59.57a5.207 5.207 0 01-5.21 5.208 5.214 5.214 0 00-5.21 5.209v43.44a6.59 6.59 0 01-6.59 6.591 6.59 6.59 0 00-6.59 6.59v58.662a2.334 2.334 0 01-2.34 2.338 2.332 2.332 0 01-2.33-2.338V361.873c0-1.057-.86-1.914-1.92-1.914-1.05 0-1.91-.856-1.91-1.913v-30.474c0-1.82-1.48-3.295-3.3-3.295a3.29 3.29 0 01-3.29-3.295V291.17c0-1.233-1-2.232-2.23-2.232-1.24 0-2.24-1-2.24-2.232v-23.108c0-5.522-4.47-10-10-10h-8.48c-5.52 0-10 4.478-10 10v23.108c0 1.232-1 2.232-2.23 2.232-1.24 0-2.24.999-2.24 2.232v29.812a3.29 3.29 0 01-3.29 3.295c-1.82 0-3.3 1.475-3.3 3.295v30.45a1.59 1.59 0 01-1.59 1.594c-.88 0-1.59.714-1.59 1.595V576.51c0 2.054-1.67 3.72-3.73 3.72a3.723 3.723 0 00-3.72 3.72v89.493c0 2.524-2.04 4.57-4.57 4.57h-3.88a.689.689 0 01-.69-.686.68.68 0 00-.68-.686h-.67c-.66 0-1.2-.538-1.2-1.201s.54-1.201 1.2-1.201h.08c.7 0 1.27-.571 1.27-1.275v-.88c0-.705-.57-1.276-1.27-1.276-.71 0-1.28-.571-1.28-1.275v-.194c0-.704.57-1.276 1.28-1.276.7 0 1.27-.571 1.27-1.275v-.88c0-.704-.57-1.276-1.27-1.276h-.08c-.66 0-1.2-.537-1.2-1.2 0-.664.54-1.201 1.2-1.201h.08c.7 0 1.27-.571 1.27-1.276v-.88c0-.704-.57-1.275-1.27-1.275h-.08c-.66 0-1.2-.538-1.2-1.201s.54-1.201 1.2-1.201h.08c.7 0 1.27-.571 1.27-1.276v-.879c0-.705-.57-1.276-1.27-1.276h-.08c-.66 0-1.2-.538-1.2-1.201s.54-1.201 1.2-1.201h.08c.7 0 1.27-.571 1.27-1.275v-.88c0-.705-.57-1.276-1.27-1.276h-.08a1.202 1.202 0 010-2.401h.08c.7 0 1.27-.571 1.27-1.276v-.88c0-.704-.57-1.275-1.27-1.275h-.08c-.66 0-1.2-.538-1.2-1.201s.54-1.201 1.2-1.201h.08c.7 0 1.27-.571 1.27-1.276v-.88c0-.704-.57-1.275-1.27-1.275h-.08c-.66 0-1.2-.538-1.2-1.201s.54-1.201 1.2-1.201h.08c.7 0 1.27-.571 1.27-1.275v-.88c0-.705-.57-1.276-1.27-1.276h-.08a1.202 1.202 0 010-2.401h.08c.7 0 1.27-.572 1.27-1.276v-.88c0-.704-.57-1.275-1.27-1.275h-.08a1.202 1.202 0 010-2.402h.08c.7 0 1.27-.571 1.27-1.276v-.88c0-.704-.57-1.275-1.27-1.275-.71 0-1.28-.571-1.28-1.276v-2.252c0-.705.57-1.276 1.28-1.276.7 0 1.27-.571 1.27-1.275v-.88c0-.705-.57-1.276-1.27-1.276h-.08c-.66 0-1.2-.537-1.2-1.2 0-.664.54-1.201 1.2-1.201h.08c.7 0 1.27-.571 1.27-1.276v-.88c0-.704-.57-1.275-1.27-1.275h-.08c-.66 0-1.2-.538-1.2-1.201s.54-1.201 1.2-1.201h.08c.7 0 1.27-.571 1.27-1.276v-.879c0-.705-.57-1.276-1.27-1.276h-.08c-.66 0-1.2-.538-1.2-1.201s.54-1.201 1.2-1.201h.08c.7 0 1.27-.571 1.27-1.275v-.88c0-.705-.57-1.276-1.27-1.276h-.08a1.202 1.202 0 010-2.401h.08c.7 0 1.27-.572 1.27-1.276v-.88c0-.704-.57-1.275-1.27-1.275h-.08c-.66 0-1.2-.538-1.2-1.201s.54-1.201 1.2-1.201h.08c.7 0 1.27-.571 1.27-1.276v-.88c0-.704-.57-1.275-1.27-1.275h-.08c-.66 0-1.2-.538-1.2-1.201s.54-1.201 1.2-1.201h.08c.7 0 1.27-.571 1.27-1.275v-.88c0-.705-.57-1.276-1.27-1.276h-.08c-.66 0-1.2-.537-1.2-1.201 0-.663.54-1.201 1.2-1.201h.08c.7 0 1.27-.571 1.27-1.275v-.88c0-.704-.57-1.276-1.27-1.276h-.08c-.66 0-1.2-.537-1.2-1.2 0-.664.54-1.201 1.2-1.201h.08c.7 0 1.27-.571 1.27-1.276v-.88c0-.704-.57-1.275-1.27-1.275h-.08c-.66 0-1.2-.538-1.2-1.201s.54-1.201 1.2-1.201h.08c.7 0 1.27-.571 1.27-1.276v-.879c0-.705-.57-1.276-1.27-1.276h-.08c-.66 0-1.2-.538-1.2-1.201s.54-1.201 1.2-1.201h.08c.7 0 1.27-.571 1.27-1.275v-.88c0-.705-.57-1.276-1.27-1.276h-.08c-.66 0-1.2-.537-1.2-1.2 0-.664.54-1.201 1.2-1.201h.08c.7 0 1.27-.571 1.27-1.276v-.88c0-.704-.57-1.275-1.27-1.275h-.08c-.66 0-1.2-.538-1.2-1.201s.54-1.201 1.2-1.201h.08c.7 0 1.27-.571 1.27-1.276v-.879c0-.705-.57-1.276-1.27-1.276-.71 0-1.28-.571-1.28-1.276v-2.938c0-.705.57-1.276 1.28-1.276.7 0 1.27-.571 1.27-1.275v-.88c0-.705-.57-1.276-1.27-1.276h-.08c-.66 0-1.2-.537-1.2-1.2 0-.664.54-1.201 1.2-1.201h.08c.7 0 1.27-.571 1.27-1.276v-.88c0-.704-.57-1.275-1.27-1.275h-.08c-.66 0-1.2-.538-1.2-1.201s.54-1.201 1.2-1.201h.08c.7 0 1.27-.571 1.27-1.276v-.88c0-.704-.57-1.275-1.27-1.275h-.08c-.66 0-1.2-.538-1.2-1.201s.54-1.201 1.2-1.201h.08c.7 0 1.27-.571 1.27-1.275v-.88c0-.705-.57-1.276-1.27-1.276-.71 0-1.28-.571-1.28-1.275v-3.601a.956.956 0 00-.95-.956.959.959 0 01-.96-.957v-4.041a2.55 2.55 0 00-2.55-2.551 2.55 2.55 0 01-2.55-2.551v-13.72c0-1.056-.86-1.913-1.92-1.913-1.05 0-1.91-.857-1.91-1.913v-13.994c0-4.243-2.68-8.023-6.68-9.432l-5.01-1.766a4.253 4.253 0 01-2.77-3.978v-34.048a.741.741 0 10-1.48 0v34.163a1.742 1.742 0 01-2.34 1.633 1.74 1.74 0 00-2.34 1.633v26.108c0 .88-.71 1.594-1.59 1.594-.89 0-1.6.714-1.6 1.594v14.039a2.55 2.55 0 01-2.55 2.551 2.55 2.55 0 00-2.55 2.551v3.012c0 .528-.43.956-.96.956a.95.95 0 00-.95.957v1.96a2.92 2.92 0 01-2.92 2.916h-13.87c-5.52 0-10 4.477-10 10v18.084c0 5.523-4.48 10-10 10h-10.08c-1.88 0-3.73.532-5.32 1.534l-17.76 11.161a2.326 2.326 0 00-1.06 1.951v13.503a1.7 1.7 0 001.7 1.701c.94 0 1.7.761 1.7 1.7v.716a1.7 1.7 0 01-1.7 1.701 1.7 1.7 0 00-1.7 1.701v.716c0 .939.76 1.7 1.7 1.7s1.7.762 1.7 1.701v.716a1.7 1.7 0 01-1.7 1.7 1.7 1.7 0 00-1.7 1.701v.716a1.7 1.7 0 001.7 1.701c.94 0 1.7.761 1.7 1.7v.716a1.7 1.7 0 01-1.7 1.701 1.7 1.7 0 00-1.7 1.7v.716a1.7 1.7 0 001.7 1.701c.94 0 1.7.761 1.7 1.701v.716a1.7 1.7 0 01-1.7 1.7 1.7 1.7 0 00-1.7 1.701v.716c0 .939.76 1.7 1.7 1.7h.16c.85 0 1.54.692 1.54 1.544 0 .853-.69 1.544-1.54 1.544h-16.82a7.91 7.91 0 01-7.71-6.134l-5.12-22.318c-.64-2.759-4.57-2.756-5.2.005-.71 3.122-5.5 2.561-5.49-.641v-11.398-14.41c0-13.724 0-27.448-.21-41.172 0-5.832-.21-12.008-.21-17.841-.21-12.695-.43-25.389-.85-38.427-.21-6.176-.22-12.352-.43-18.528-.42-12.008-.64-23.674-1.06-35.682 0-1.372-.21-2.745-.21-4.117-.43-10.636-.85-20.929-1.28-31.565-.85-19.214-1.91-38.428-2.97-57.641a336.57 336.57 0 00-.29-5.203c-.34-5.341-4.78-9.551-10.13-9.551h-32.87c-4.84 0-9.01 3.73-9.01 8.578-.21 4.117-.43 8.234-.64 12.352-.21 3.431-.42 7.205-.64 10.636-.42 6.519-.63 13.037-1.06 19.556-.21 3.088-.21 5.833-.42 8.921-.22 5.49-.43 10.979-.86 16.469-.21 2.401-.21 4.803-.21 6.862-.21 7.205-.64 14.41-.85 21.272 0 2.402-.21 4.803-.21 7.205-.21 7.548-.43 14.753-.64 22.302 0 1.715-.21 3.087-.21 4.803l-.64 20.929v4.117c-.21 7.892-.42 15.783-.42 23.674v4.804c-.22 8.234-.22 16.468-.43 24.36v1.029c0 8.234-.21 16.469-.21 24.36v41.405a4.573 4.573 0 01-4.57 4.571 4.566 4.566 0 00-4.57 4.57v88.478a5.423 5.423 0 01-5.42 5.421h-4.57a.853.853 0 01-.85-.857c0-.474.38-.858.85-.858h.1c.53 0 .96-.429.96-.957v-1.861a.958.958 0 00-.96-.956.95.95 0 01-.95-.957v-2.547a.95.95 0 01.95-.957c.53 0 .96-.428.96-.956v-1.861a.959.959 0 00-.96-.957.95.95 0 01-.95-.956v-2.89a.95.95 0 01.95-.957c.53 0 .96-.428.96-.957v-1.861a.958.958 0 00-.96-.956.95.95 0 01-.95-.957v-2.89a.95.95 0 01.95-.957c.53 0 .96-.428.96-.956v-1.861a.959.959 0 00-.96-.957.95.95 0 01-.95-.956v-2.89a.95.95 0 01.95-.957c.53 0 .96-.428.96-.957v-1.861a.958.958 0 00-.96-.956.95.95 0 01-.95-.957v-2.89a.95.95 0 01.95-.957c.53 0 .96-.428.96-.956v-1.861a.959.959 0 00-.96-.957.95.95 0 01-.95-.956v-2.89a.95.95 0 01.95-.957c.53 0 .96-.428.96-.957v-1.861a.958.958 0 00-.96-.956.95.95 0 01-.95-.957v-2.89a.95.95 0 01.95-.957c.53 0 .96-.428.96-.956v-1.861a.959.959 0 00-.96-.957.95.95 0 01-.95-.956v-2.89a.95.95 0 01.95-.957c.53 0 .96-.428.96-.957v-1.861a.958.958 0 00-.96-.956.95.95 0 01-.95-.957v-2.89a.95.95 0 01.95-.957c.53 0 .96-.428.96-.956v-1.861a.959.959 0 00-.96-.957.95.95 0 01-.95-.956v-2.89a.95.95 0 01.95-.957c.53 0 .96-.428.96-.957v-3.233a.959.959 0 00-.96-.957.95.95 0 01-.95-.956v-2.89a.95.95 0 01.95-.957c.53 0 .96-.428.96-.957v-1.86a.958.958 0 00-.96-.957.95.95 0 01-.95-.957v-3.233a.95.95 0 01.95-.957c.53 0 .96-.428.96-.956v-1.861a.959.959 0 00-.96-.957.95.95 0 01-.95-.956v-2.89a.95.95 0 01.95-.957c.53 0 .96-.428.96-.957v-1.861a.958.958 0 00-.96-.956.95.95 0 01-.95-.957v-2.89a.95.95 0 01.95-.957c.53 0 .96-.428.96-.956v-1.861a.959.959 0 00-.96-.957.95.95 0 01-.95-.956v-2.89a.95.95 0 01.95-.957c.53 0 .96-.428.96-.957v-1.861a.958.958 0 00-.96-.956.95.95 0 01-.95-.957v-2.89a.95.95 0 01.95-.957c.53 0 .96-.428.96-.956v-1.861a.959.959 0 00-.96-.957.95.95 0 01-.95-.956v-2.89a.95.95 0 01.95-.957c.53 0 .96-.428.96-.957v-1.861a.958.958 0 00-.96-.956.95.95 0 01-.95-.957v-2.89a.95.95 0 01.95-.957c.53 0 .96-.428.96-.956v-1.861a.959.959 0 00-.96-.957.95.95 0 01-.95-.956v-2.89a.95.95 0 01.95-.957c.53 0 .96-.428.96-.957v-3.233a.959.959 0 00-.96-.957.95.95 0 01-.95-.956v-2.89a.95.95 0 01.95-.957c.53 0 .96-.428.96-.957v-1.86a.958.958 0 00-.96-.957.95.95 0 01-.95-.957v-2.89a.95.95 0 01.95-.957c.53 0 .96-.428.96-.956v-1.861a.959.959 0 00-.96-.957.95.95 0 01-.95-.956v-2.89a.95.95 0 01.95-.957c.53 0 .96-.428.96-.957v-1.861a.958.958 0 00-.96-.956.95.95 0 01-.95-.957v-6.664a.95.95 0 01.95-.957c.53 0 .96-.428.96-.956v-1.617a2.571 2.571 0 00-2.57-2.573h-1.19a2.406 2.406 0 01-2.41-2.402v-1.073c0-.734.6-1.329 1.33-1.329a1.33 1.33 0 001.21-1.883l-8.37-18.197a4.403 4.403 0 00-4-2.564 4.405 4.405 0 01-4.41-4.406v-3.142c0-.663-.43-1.567-.43-2.229V420.06a.741.741 0 10-1.48 0v20.392c0 .644-.43 1.551-.43 2.195v3.142a4.403 4.403 0 01-4.4 4.406 4.418 4.418 0 00-4.01 2.564l-8.64 18.786a.914.914 0 00.83 1.294c.51 0 .92.409.92.914v1.488a2.406 2.406 0 01-2.41 2.402h-1.19a2.571 2.571 0 00-2.57 2.573v1.404c0 .646.52 1.169 1.17 1.169.65 0 1.17.524 1.17 1.17v6.239c0 .645-.52 1.169-1.17 1.169-.65 0-1.17.523-1.17 1.169v1.436c0 .645.52 1.169 1.17 1.169.65 0 1.17.523 1.17 1.169v2.465c0 .646-.52 1.169-1.17 1.169-.65 0-1.17.524-1.17 1.17v1.435c0 .646.52 1.169 1.17 1.169.65 0 1.17.524 1.17 1.17v2.465c0 .645-.52 1.169-1.17 1.169-.65 0-1.17.523-1.17 1.169v1.436c0 .645.52 1.169 1.17 1.169.65 0 1.17.523 1.17 1.169v2.465c0 .646-.52 1.169-1.17 1.169-.65 0-1.17.524-1.17 1.17v1.435c0 .646.52 1.169 1.17 1.169.65 0 1.17.524 1.17 1.17v2.465c0 .645-.52 1.169-1.17 1.169-.65 0-1.17.523-1.17 1.169v1.436c0 .645.52 1.169 1.17 1.169.65 0 1.17.523 1.17 1.169v2.465c0 .646-.52 1.169-1.17 1.169-.65 0-1.17.524-1.17 1.17v1.435c0 .646.52 1.169 1.17 1.169.65 0 1.17.524 1.17 1.17v2.465c0 .645-.52 1.169-1.17 1.169-.65 0-1.17.523-1.17 1.169v1.436c0 .645.52 1.169 1.17 1.169.65 0 1.17.523 1.17 1.169v2.465c0 .646-.52 1.169-1.17 1.169-.65 0-1.17.524-1.17 1.17v1.435c0 .646.52 1.169 1.17 1.169.65 0 1.17.524 1.17 1.17v2.465c0 .645-.52 1.169-1.17 1.169-.65 0-1.17.523-1.17 1.169v1.436c0 .645.52 1.169 1.17 1.169.65 0 1.17.523 1.17 1.169v2.465c0 .646-.52 1.169-1.17 1.169-.65 0-1.17.524-1.17 1.17v1.435c0 .646.52 1.169 1.17 1.169.65 0 1.17.524 1.17 1.17v2.465c0 .645-.52 1.169-1.17 1.169-.65 0-1.17.523-1.17 1.169v1.436c0 .645.52 1.169 1.17 1.169.65 0 1.17.523 1.17 1.169v2.465c0 .646-.52 1.169-1.17 1.169-.65 0-1.17.524-1.17 1.17v1.435c0 .646.52 1.17 1.17 1.17.65 0 1.17.523 1.17 1.169v2.465c0 .645-.52 1.169-1.17 1.169-.65 0-1.17.523-1.17 1.169v1.436c0 .646.52 1.169 1.17 1.169.65 0 1.17.523 1.17 1.169v2.465c0 .646-.52 1.169-1.17 1.169-.65 0-1.17.524-1.17 1.17v1.435c0 .646.52 1.17 1.17 1.17h.65c.29 0 .52.23.52.514 0 .284-.23.515-.52.515h-9.26a4.456 4.456 0 01-4.46-4.46V363.734l-.15-10.172a7.387 7.387 0 00-3.76-6.314l-4.18-2.345c-3.04-1.707-6.8.49-6.8 3.977v2.342a2.215 2.215 0 11-4.43-.027l.31-24.882a9.997 9.997 0 00-6.26-9.399l-6.1-2.462c-6.39-2.577-13.41 1.922-13.73 8.8l-1.89 39.795-.21 4.804-.21 3.774-.21 4.803-.22 3.774-.21 4.804-.21 3.774-.21 4.803-.22 3.774-.21 4.804-.21 3.774-.21 4.803-.22 3.774-.21 4.804-.21 3.774-.21 4.803-.22 3.774-.21 4.804-.21 3.774-.22 4.803-.21 3.774-.21 4.804-.21 3.774-.07 1.527a10.017 10.017 0 01-2.2 5.831l-1.43 1.768a10.019 10.019 0 00-2.198 5.797l-.057 1.203-.213 3.774-.212 4.803-.213 3.774-.213 4.804-.212 3.774-.213 4.803-.212 3.774-.213 4.461c0 .947-.768 1.715-1.716 1.715h-13.157c-5.523 0-10 4.477-10 10v41.258a3.295 3.295 0 01-3.295 3.295 3.295 3.295 0 00-3.295 3.295v110.267a4.463 4.463 0 11-8.928 0V251.868c0-.939-.762-1.701-1.701-1.701a1.7 1.7 0 01-1.701-1.7v-38.735c0-5.523-4.477-10-10-10h-28.682c-5.523 0-10 4.477-10 10v39.078a1.7 1.7 0 01-1.701 1.7c-.939 0-1.701.762-1.701 1.701v185.638a3.082 3.082 0 01-3.082 3.082h-2.053a1.03 1.03 0 00-1.03 1.029v.605c0 .234-.19.425-.425.425a.425.425 0 00-.425.425v4.296c0 .235.19.425.425.425s.425.191.425.425v.866c0 .234-.19.425-.425.425a.425.425 0 00-.425.425v4.296c0 .235.19.425.425.425s.425.191.425.425v.866c0 .234-.19.425-.425.425a.425.425 0 00-.425.425v4.296c0 .235.19.425.425.425s.425.191.425.425v.866c0 .234-.19.425-.425.425a.425.425 0 00-.425.425v4.296c0 .235.19.425.425.425s.425.191.425.425v.866c0 .234-.19.425-.425.425a.425.425 0 00-.425.425v4.296c0 .235.19.425.425.425s.425.191.425.425v.866c0 .234-.19.425-.425.425a.425.425 0 00-.425.425v4.296c0 .235.19.425.425.425s.425.191.425.425v.866c0 .234-.19.425-.425.425a.425.425 0 00-.425.425v4.296c0 .235.19.425.425.425s.425.191.425.425v.866c0 .234-.19.425-.425.425a.425.425 0 00-.425.425v4.296c0 .235.19.425.425.425s.425.191.425.425v.866c0 .234-.19.425-.425.425a.425.425 0 00-.425.425v4.296c0 .235.19.425.425.425s.425.191.425.425v.866c0 .234-.19.425-.425.425a.425.425 0 00-.425.425v4.296c0 .235.19.425.425.425s.425.191.425.425v.866c0 .234-.19.425-.425.425a.425.425 0 00-.425.425v4.296c0 .235.19.425.425.425s.425.191.425.425v.866c0 .234-.19.425-.425.425a.425.425 0 00-.425.425v4.296c0 .235.19.425.425.425s.425.191.425.425v.866c0 .234-.19.425-.425.425a.425.425 0 00-.425.425v4.296c0 .235.19.425.425.425s.425.191.425.425v.866c0 .234-.19.425-.425.425a.425.425 0 00-.425.425v4.296c0 .235.19.425.425.425s.425.191.425.425v.866c0 .234-.19.425-.425.425a.425.425 0 00-.425.425v4.296c0 .235.19.425.425.425s.425.191.425.425v7.728c0 .234-.19.425-.425.425a.425.425 0 00-.425.425v4.296c0 .235.19.425.425.425s.425.191.425.425v.866c0 .234-.19.425-.425.425a.425.425 0 00-.425.425v1.119c0 .852-.691 1.544-1.544 1.544h-5.578a7.122 7.122 0 01-7.121-7.122v-95.758c0-5.523-4.477-10-10-10h-17.416c-5.522 0-10 4.477-10 10v57.316a5.42 5.42 0 01-5.421 5.421h-3.362a2.06 2.06 0 01-2.059-2.059 2.057 2.057 0 00-2.058-2.058h-.174c-1.232 0-2.232-1-2.232-2.232V239.173a1.7 1.7 0 00-1.7-1.7 1.7 1.7 0 01-1.701-1.701v-75.79c0-5.523-4.477-10-10-10h-38.887c-5.523 0-10 4.477-10 10v75.79a1.7 1.7 0 01-1.7 1.701 1.7 1.7 0 00-1.701 1.7v366.524a4.039 4.039 0 11-8.078 0V470.011a7.122 7.122 0 00-7.122-7.122 7.122 7.122 0 01-7.122-7.121v-55.729a2.339 2.339 0 00-2.338-2.339 2.338 2.338 0 01-2.339-2.338v-17.168c0-5.523-4.477-10-10-10h-46.327c-5.522 0-10 4.477-10 10v17.168a2.338 2.338 0 01-2.338 2.338 2.339 2.339 0 00-2.338 2.339V627.13a7.654 7.654 0 01-15.307 0V491.417c0-5.523-4.477-10-10-10h-36.335c-5.523 0-10 4.477-10 10v80.589a6.165 6.165 0 01-6.165 6.165 6.165 6.165 0 00-6.165 6.165v84.231a3.614 3.614 0 11-7.228 0V395.758c0-.822-.666-1.489-1.488-1.489h-.459a1.029 1.029 0 110-2.058h.459c.822 0 1.488-.666 1.488-1.488v-3.886c0-.822-.666-1.488-1.488-1.488h-.459a1.029 1.029 0 110-2.059h.459c.822 0 1.488-.666 1.488-1.488v-3.886c0-.821-.666-1.488-1.488-1.488h-.459a1.029 1.029 0 110-2.058h.459c.822 0 1.488-.667 1.488-1.488v-3.886c0-.822-.666-1.488-1.488-1.488h-.802a.686.686 0 110-1.373h.908c.881 0 1.594-.714 1.594-1.594v-3.673c0-.881-.713-1.595-1.594-1.595h-.565a1.028 1.028 0 110-2.058h.565c.881 0 1.594-.714 1.594-1.595v-3.673c0-.88-.713-1.594-1.594-1.594h-.565a1.029 1.029 0 110-2.059h.565c.881 0 1.594-.714 1.594-1.594v-3.674c0-.88-.713-1.594-1.594-1.594h-.565a1.029 1.029 0 110-2.059h.565c.881 0 1.594-.713 1.594-1.594V317.13c0-2.467-.94-4.821-2.375-6.828-6.38-8.92-15.507-28.385-15.694-55.331v-2.654a1.807 1.807 0 10-3.614 0v.081a1.887 1.887 0 01-1.887 1.887h-.664a2.552 2.552 0 01-2.552-2.551v-56.192a.957.957 0 00-1.913 0v58.554a.532.532 0 11-1.063 0v-1.355a1.887 1.887 0 00-1.887-1.887h-.052a1.887 1.887 0 00-1.887 1.887 1.887 1.887 0 01-1.887 1.887h-3.029a1.887 1.887 0 01-1.887-1.887 1.898 1.898 0 00-1.9-1.887 1.924 1.924 0 00-1.927 1.913v1.861c0 27.4-4.748 47.137-10.221 56.197-1.306 2.161-2.321 4.563-2.321 7.089v15.177c0 .059.047.107.106.107s.106.047.106.106v4.842c0 1.057.857 1.914 1.914 1.914h.884a1.03 1.03 0 010 2.058h-.884a1.914 1.914 0 00-1.914 1.914v3.035c0 1.057.857 1.913 1.914 1.913h.884a1.03 1.03 0 010 2.059h-.991a2.02 2.02 0 00-2.019 2.019v2.823a2.02 2.02 0 002.019 2.02h1.334a.686.686 0 110 1.372h-1.334a2.02 2.02 0 00-2.019 2.02v2.823a2.02 2.02 0 002.019 2.019h.991a1.03 1.03 0 010 2.059h-.991a2.02 2.02 0 00-2.019 2.019v2.823a2.02 2.02 0 002.019 2.02h.991a1.029 1.029 0 110 2.058h-.991a2.02 2.02 0 00-2.019 2.02v2.823a2.02 2.02 0 002.019 2.019h.991a1.03 1.03 0 010 2.059h-.991a2.02 2.02 0 00-2.019 2.02v2.822a2.02 2.02 0 002.019 2.02h.991a1.03 1.03 0 010 2.059h-1.097a2.126 2.126 0 00-2.126 2.126v140.141a5.952 5.952 0 01-5.952 5.952 5.952 5.952 0 00-5.953 5.952v63.833a3.295 3.295 0 01-3.295 3.295 3.295 3.295 0 00-3.295 3.295v57.175c0 1.252-1.608 1.725-2.857 1.636a1.598 1.598 0 01-.276-.041 97.025 97.025 0 00-.427-.096 5.208 5.208 0 01-4.093-5.087V543.773a7.803 7.803 0 00-3.285-6.362l-1.856-1.318a.668.668 0 00-.386-.123 1.913 1.913 0 01-1.913-1.913v-2.49a.745.745 0 00-1.489 0v.914a.744.744 0 01-.744.744.744.744 0 00-.744.744v.327a1.07 1.07 0 01-.984 1.067l-1.131.091a1.977 1.977 0 01-2.136-1.97 1.98 1.98 0 00-.736-1.539l-.211-.17a2.547 2.547 0 00-1.722-.562l-11.269.543a2.108 2.108 0 00-2.006 2.106v.62c0 .822-.667 1.488-1.489 1.488-.821 0-1.488.666-1.488 1.488v23.851c0 5.523-4.477 10-10 10h-3.597c-5.523 0-10-4.477-10-10V399.092a2.763 2.763 0 00-2.763-2.764 2.763 2.763 0 01-2.764-2.764v-31.823c0-5.342-4.331-9.673-9.673-9.673h-3.84a5.832 5.832 0 01-5.832-5.833 5.833 5.833 0 00-5.833-5.832h-.12a5.952 5.952 0 01-5.952-5.953v-3.483c0-5.21-4.225-9.435-9.435-9.435h-28.822c-5.523 0-10 4.477-10 10v10.536c0 5.523-4.478 10-10 10h-4.235c-5.523 0-10 4.477-10 10v299.405a6.59 6.59 0 01-6.59 6.59 6.591 6.591 0 00-6.591 6.591v17.094a6.165 6.165 0 11-12.33 0v-79.307c0-5.284-4.283-9.567-9.566-9.567a9.566 9.566 0 01-9.566-9.566v-21.383a.572.572 0 00-.213-.444.571.571 0 01-.213-.445v-3.912c0-1.31-.294-2.604-.861-3.786l-3.257-6.79a9.994 9.994 0 01-.984-4.325v-7.494c0-.792-.221-1.567-.638-2.24a4.262 4.262 0 01-.637-2.24v-15.283a.318.318 0 00-.638 0v15.484c0 .66-.184 1.307-.531 1.867a3.54 3.54 0 00-.532 1.867v8.924a9.995 9.995 0 01-.826 3.979l-2.931 6.758a8.582 8.582 0 00-.707 3.41v2.431c0 .602-.228 1.182-.638 1.623a2.384 2.384 0 00-.638 1.623v1.701a3.49 3.49 0 01-1.063 2.509 3.494 3.494 0 00-1.063 2.509v.05c0 .991-.426 1.933-1.169 2.587a3.449 3.449 0 00-1.169 2.587v35.033c0 2.229-1.993 3.932-4.196 3.594a3.48 3.48 0 00-.54-.042 3.555 3.555 0 01-3.555-3.555v-65.358c0-5.522-4.477-10-10-10h-6.148c-5.523 0-10 4.478-10 10v30.087a8.291 8.291 0 01-8.291 8.291 8.29 8.29 0 00-8.291 8.29v23.657a2.02 2.02 0 01-2.019 2.019 2.02 2.02 0 00-2.02 2.02v40.646a1.595 1.595 0 01-3.189 0v-18.581a2.126 2.126 0 00-2.126-2.126 2.126 2.126 0 01-2.126-2.126v-175.55c0-5.523-4.477-10-10-10h-26.352c-26.573 0-48.044 30.193-48.044 73.08v25.594a8.716 8.716 0 01-8.717 8.716c-7.653 0-13.818 21.273-13.818 32.938v40.436c0 5.523-4.477 10-10 10h-2.534c-5.523 0-10-4.477-10-10v-40.78a7.547 7.547 0 10-15.094 0v92.774a3.295 3.295 0 11-6.59 0v-52.539c0-.998-.809-1.807-1.807-1.807a1.807 1.807 0 01-1.807-1.807v-37.472a6.696 6.696 0 00-6.696-6.696 6.697 6.697 0 01-6.697-6.697v-39.572c0-5.523-4.477-10-10-10H10c-5.523 0-10 4.477-10 10v204.731c0 5.523 4.477 10 10 10h1544c5.52 0 10-4.477 10-10v-382.8c0-5.523-4.48-10-10-10h-7.86zM1307.2 553.64c0 .663-.54 1.2-1.21 1.2h-.92a.209.209 0 01-.21-.212v-1.02c0-.646.52-1.169 1.17-1.169.64 0 1.17.523 1.17 1.169v.032zm0-5.802c0 .646-.53 1.17-1.17 1.17-.65 0-1.17-.524-1.17-1.17v-.063c0-.646.52-1.169 1.17-1.169.64 0 1.17.523 1.17 1.169v.063zm0-6.175c0 .645-.53 1.169-1.17 1.169-.65 0-1.17-.524-1.17-1.169v-.064c0-.645.52-1.169 1.17-1.169.64 0 1.17.524 1.17 1.169v.064zm0-6.176c0 .646-.53 1.169-1.17 1.169-.65 0-1.17-.523-1.17-1.169v-.063c0-.646.52-1.17 1.17-1.17.64 0 1.17.524 1.17 1.17v.063zm0-6.176c0 .646-.53 1.169-1.17 1.169-.65 0-1.17-.523-1.17-1.169v-.063c0-.646.52-1.169 1.17-1.169.64 0 1.17.523 1.17 1.169v.063zm0-6.176c0 .646-.53 1.169-1.17 1.169-.65 0-1.17-.523-1.17-1.169v-.063c0-.646.52-1.169 1.17-1.169.64 0 1.17.523 1.17 1.169v.063zm0-5.833c0 .646-.53 1.17-1.17 1.17-.65 0-1.17-.524-1.17-1.17v-.063c0-.645.52-1.169 1.17-1.169.64 0 1.17.524 1.17 1.169v.063z" fill="url(#paint1_linear)"/><path d="M1308.89 512.272c-58.78 0-106.33 102.245-106.33 228.263h212.77c0-126.146-47.67-228.263-106.44-228.263z" fill="url(#paint2_linear)"/><path d="M1308.89 512.272c-58.78 0-106.33 102.245-106.33 228.263h212.77c0-126.146-47.67-228.263-106.44-228.263z" fill="url(#paint3_linear)"/><mask id="a" style="mask-type:alpha" maskUnits="userSpaceOnUse" x="1202" y="512" width="214" height="229"><path d="M1308.89 512.272c-58.78 0-106.33 102.245-106.33 228.263h212.77c0-126.146-47.67-228.263-106.44-228.263z" fill="url(#paint4_linear)"/></mask><g mask="url(#a)"><path opacity=".2" d="M1219.25 532.943c33.68-15.552 101.72-40.99 104.35-18.329 3.29 28.326-191.45 149.963-124.9 124.136 66.56-25.827 124.08-96.643 138.87-71.649 14.79 24.994-129.83 128.302-81.35 123.303 48.48-4.999 108.46-119.97 127.36-101.642 18.9 18.329-124.07 145.798-92.03 156.629 32.05 10.83 119.97-169.959 155.3-174.124" stroke="url(#paint5_linear)" stroke-width="2"/></g><path opacity=".3" d="M1401.54 740.535h13.79c0-126.146-47.67-228.263-106.44-228.263-2.32 0-4.62.159-6.9.471 55.56 7.618 99.55 106.62 99.55 227.792z" fill="#C9D983"/><path d="M1426.82 574.162c-43 0-77.81 74.822-77.81 167.038h155.63c-.12-92.216-34.93-167.038-77.82-167.038z" fill="url(#paint6_linear)"/><mask id="b" style="mask-type:alpha" maskUnits="userSpaceOnUse" x="1349" y="574" width="156" height="168"><path d="M1426.82 574.162c-43 0-77.81 74.822-77.81 167.038h155.63c-.12-92.216-34.93-167.038-77.82-167.038z" fill="url(#paint7_linear)"/></mask><g mask="url(#b)"><path opacity=".2" d="M1402.37 536.229c-30.53 50.398-79.45 140.852-30.86 99.494 60.74-51.697 118.59-35.115 94.49 0-24.11 35.116-94.49 16.583-87.74 53.649 5.4 29.653 83.88-14.306 122.44-39.993" stroke="url(#paint8_linear)" stroke-width="2"/></g><path opacity=".3" fill-rule="evenodd" clip-rule="evenodd" d="M1488.22 741.2h16.42c-.12-92.216-34.93-167.038-77.82-167.038-2.77 0-5.51.312-8.22.921 39.04 8.813 69.51 79.855 69.62 166.117z" fill="#C9D983"/><path d="M1120.48 492.973c-68.17 0-123.46 110.247-123.46 246.231h246.92c-.13-135.984-55.3-246.231-123.46-246.231z" fill="url(#paint9_linear)"/><mask id="c" style="mask-type:alpha" maskUnits="userSpaceOnUse" x="997" y="492" width="247" height="248"><path d="M1120.48 492.973c-68.17 0-123.46 110.247-123.46 246.231h246.92c-.13-135.984-55.3-246.231-123.46-246.231z" fill="url(#paint10_linear)"/></mask><g mask="url(#c)"><path opacity=".2" d="M1007.53 542.657c13.01-15.561 42.24-43.288 55.06-29.708 16.04 16.976-18.12 75.685 4.19 82.758 22.3 7.073 53.67-103.978 80.85-93.368 27.19 10.61-117.1 182.492-66.91 188.858 50.19 6.366 73.19-147.125 94.8-136.515 21.61 10.61-48.8 93.368-24.4 117.417 24.4 24.049 36.94-89.124 56.46-76.392 19.52 12.732 5.58 76.392-13.24 119.539" stroke="url(#paint11_linear)" stroke-width="2"/></g><path opacity=".2" d="M1216.35 739.204h27.59c-.13-135.984-55.3-246.231-123.46-246.231-4.66 0-9.27.515-13.79 1.52 61.66 13.679 109.55 118.026 109.66 244.711z" fill="#C9D983"/><path d="M1296.41 588.302h-2.29v149.683h2.29V588.302z" fill="#0C5E59"/><path d="M1311.91 578.824c-4.9 0-9.46 3.583-12.65 6.82 2.16-3.121 5.13-6.935 7.41-7.629 3.99-1.271 7.18-.693 7.18-.693s-3.65-5.202-9.12-2.774c-2.4 1.04-4.45 4.507-5.93 7.859.8-3.12 1.48-6.819.91-10.171-1.37-8.553-10.71-9.247-10.71-9.247s5.24 7.398 6.15 16.066c.12 1.156.23 2.312.34 3.352-.79-4.97-2.73-10.98-7.52-14.217-11.86-7.975-19.27 6.011-19.27 6.011s6.73-4.277 15.62.231c7.07 3.583 10.03 11.212 10.95 14.333-1.14-2.312-6.05-11.097-13.8-12.368-11.74-1.965-14.71 13.061-14.71 13.061s6.73-5.432 15.05-5.086c6.5.347 11.06 3.006 13.34 5.086-1.25-.347-3.87-.925-7.07-1.04-10.37-.116-12.54 13.986-12.54 13.986l19.73-12.252c-.92 1.618-2.63 5.085-3.54 7.397-1.37 3.236-.45 10.518-.45 10.518s3.19-5.548 4.1-9.131c.91-3.468.68-7.051.57-8.784l13.34 14.679s3.3-8.9-6.84-13.177c-1.37-.578-2.51-1.04-3.42-1.387 2.39.347 5.36 1.387 8.43 3.352 5.82 3.814 9.58 9.131 9.58 9.131s3.65-10.749-5.24-15.141c-2.97-1.387-6.27-1.272-9.12-.578 2.16-1.272 5.01-2.196 8.32-1.734 8.09 1.04 10.37 6.82 10.37 6.82s2.28-13.293-9.46-13.293z" fill="url(#paint12_linear)"/><path d="M1209.42 496.304h-3.65v244.462h3.65V496.304z" fill="#0C5E59"/><path d="M1232.99 475.232c-8.9 0-17.3 6.467-23.15 12.417 3.94-5.691 9.42-12.546 13.61-13.969 7.13-2.328 13.11-1.164 13.11-1.164s-6.75-9.572-16.67-5.045c-4.45 1.94-8.14 8.278-10.81 14.357 1.52-5.691 2.54-12.417 1.65-18.625-2.42-15.521-19.59-16.815-19.59-16.815s9.54 13.452 11.32 29.361c.26 2.07.38 4.139.51 6.079-1.53-9.183-5.09-20.177-13.74-25.997-21.5-14.487-34.98 11.123-34.98 11.123s12.34-7.761 28.49.517c12.73 6.467 18.2 20.566 19.98 26.128-2.17-4.269-10.94-20.178-25.19-22.635-21.37-3.622-26.84 23.928-26.84 23.928s12.21-9.959 27.35-9.313c11.7.518 20.22 5.433 24.42 9.313-2.16-.647-7.12-1.811-12.85-1.811-18.95-.259-22.9 25.481-22.9 25.481l36.01-22.377c-1.53 2.975-4.71 9.184-6.49 13.581-2.42 5.95-.89 19.143-.89 19.143s5.85-10.089 7.5-16.685c1.66-6.338 1.28-12.934 1.02-16.039l24.43 26.774s5.98-16.297-12.34-24.187c-2.42-1.034-4.58-1.94-6.24-2.587 4.46.647 9.8 2.458 15.27 6.08 10.69 6.984 17.43 16.555 17.43 16.555s6.61-19.789-9.67-27.55c-5.34-2.586-11.45-2.198-16.67-1.034 3.95-2.328 9.04-4.01 15.27-3.234 14.76 1.811 18.83 12.546 18.83 12.546s4.2-24.445-17.18-24.316z" fill="url(#paint13_linear)"/><g clip-path="url(#clip0)"><path d="M1525 691.317h-126.08v54.384H1525v-54.384z" fill="#F9F8EF"/><path fill-rule="evenodd" clip-rule="evenodd" d="M1462.66 677.14v.125c1-2.835 3-7.349 6.37-14.083 6.69-12.889 14.15-22.792 14.15-22.792s-3.27 11.003-9.95 23.892c-5.91 11.538-9.15 16.191-10.57 16.895v.659c1.71-2.291 5.48-6.219 12.12-12.367 11.04-10.06 21.93-17.29 21.93-17.29s-7 9.274-18.04 19.49c-6.47 5.905-10.76 9.447-13.43 11.264 2.72-1.714 6.96-4.063 13.12-7.177 13.68-6.916 26.12-11.16 26.12-11.16s-9.64 7.073-23.32 13.989c-10.42 5.387-16.06 7.675-18.5 8.111v.473c2.19-1.234 7.8-3.216 18.5-6.226 15.08-4.244 28.29-6.13 28.29-6.13s-11.5 5.187-26.58 9.431c-4.92 1.383-8.84 2.399-11.92 3.108 3.12-.526 7.14-1.094 12.23-1.694 16.01-2.043 29.38-1.886 29.38-1.886s-12.59 3.458-28.6 5.344c-12.9 1.646-19.24 1.864-21.3 1.395v.334h-1.56v-.225c-.28.085-.68.155-1.24.225h-4.51c-3.42-.157-8.55-.471-15.7-1.414-16.02-2.044-28.61-5.344-28.61-5.344s13.37-.158 29.39 1.886c4.81.566 8.66 1.09 11.7 1.572-2.99-.702-6.75-1.681-11.39-2.987-15.24-4.244-26.59-9.431-26.59-9.431s13.22 1.886 28.3 6.13c10.96 3.085 16.58 5.09 18.65 6.317v-.555c-2.35-.401-8.01-2.737-18.65-8.119-13.68-6.916-23.32-13.989-23.32-13.989s12.43 4.243 26.12 11.159c5.78 2.922 9.86 5.171 12.6 6.853-2.73-1.9-6.9-5.368-12.92-10.939-11.03-10.217-18.03-19.491-18.03-19.491s10.88 7.073 21.92 17.29c4.75 4.394 8.03 7.655 10.14 9.994-1.81-2.385-4.63-7.101-8.74-15.024-6.68-12.888-9.95-23.891-9.95-23.891s7.62 9.902 14.15 22.791c3.76 7.434 5.82 12.201 6.68 14.965v-1.476c-.83-1.952-1.4-7.589-1.4-18.833 0-14.461 2.18-26.249 2.18-26.249s2.18 11.788 2.18 26.249c0 11.241-.57 16.878-1.4 18.831zm-1.56 4.603c-.23-.019-.53-.196-.91-.553.36.433.66.823.91 1.171v-.618zm0 2.982c-.38-.101-.87-.319-1.48-.669.59.402 1.08.76 1.48 1.077v-.408zm1.56-.028c.42-.331.95-.703 1.58-1.121-.65.393-1.17.65-1.58.785v.336zm-1.56 4.291c-.5.035-1.2 0-2.14-.116.99.258 1.69.498 2.14.72v-.604zm1.56.354c.58-.273 1.51-.575 2.84-.902-1.27.192-2.2.267-2.84.242v.66zm-9.18 1.503h-29.07c4.51-.314 9.95-.471 15.7-.471 5.6 0 10.11.157 13.37.471zm16.64 0h29.07c-4.51-.314-9.95-.628-15.7-.471-5.75.157-10.11.314-13.37.471z" fill="url(#paint14_linear)"/></g><path d="M1131.06 712.006A111.83 111.83 0 001120 682.07a65.988 65.988 0 00-2.28-3.93c-5.81-9.825-13-18.609-21.32-26.238-1.02-1.04-2.16-1.965-3.3-2.89a110.096 110.096 0 00-29.99-18.031c-1.37-.578-2.73-1.04-4.1-1.502-10.95-3.93-22.8-6.126-35-6.358h-4.34c-12.31.232-24.051 2.428-34.995 6.358-1.368.462-2.736 1.04-4.105 1.502a110.028 110.028 0 00-29.983 18.031c-1.14.925-2.281 1.965-3.307 2.89-8.322 7.629-15.619 16.413-21.319 26.238-.798 1.271-1.482 2.658-2.28 3.93a111.964 111.964 0 00-11.059 29.936c-.342 1.503-.57 3.005-.912 4.508a113.735 113.735 0 00-1.71 19.765h223.57c0-6.704-.57-13.408-1.71-19.765-.23-1.503-.46-3.005-.8-4.508z" fill="url(#paint15_linear)"/><path opacity=".3" d="M1019.68 623.006v113.273h4.33V623.006h-4.33z" fill="url(#paint16_linear)"/><path opacity=".3" d="M980.57 630.981l27.82 105.414h4.44l-28.269-106.916c-1.255.462-2.623.924-3.991 1.502z" fill="url(#paint17_linear)"/><path opacity=".3" d="M947.28 651.902l48.111 84.377h4.899l-49.704-87.267c-1.14.925-2.28 1.965-3.306 2.89z" fill="url(#paint18_linear)"/><path opacity=".3" d="M923.681 682.07l53.583 54.325h6.043l-57.46-58.255c-.684 1.271-1.482 2.658-2.166 3.93z" fill="url(#paint19_linear)"/><path opacity=".3" d="M911.71 716.514l33.86 19.765h8.665l-41.613-24.388c-.342 1.618-.57 3.12-.912 4.623z" fill="url(#paint20_linear)"/><path opacity=".3" d="M1030.73 736.395h4.45L1063 630.981c-1.37-.578-2.74-1.04-4.11-1.502l-28.16 106.916z" fill="url(#paint21_linear)"/><path opacity=".3" d="M1043.27 736.394h5.02l48.11-84.376c-1.02-1.041-2.16-1.965-3.3-2.89l-49.83 87.266z" fill="url(#paint22_linear)"/><path d="M1060.26 736.395h6.04l53.59-54.325a71.953 71.953 0 00-2.28-3.93l-57.35 58.255z" fill="url(#paint23_linear)" opacity=".3"/><path d="M1089.45 736.395h8.66l33.86-19.765c-.23-1.503-.57-3.006-.91-4.508l-41.61 24.273z" fill="#084F15"/><path d="M1214.74 720.906c-1.48-6.704-3.87-13.176-7.07-19.071-.45-.809-.91-1.619-1.36-2.543-3.65-6.242-8.21-11.79-13.57-16.644-.69-.578-1.37-1.272-2.17-1.85-5.7-4.739-12.08-8.669-19.04-11.443-.79-.346-1.71-.693-2.62-.924-6.95-2.543-14.48-3.93-22.23-4.046h-2.74c-7.75.116-15.27 1.618-22.23 4.046-.91.346-1.71.578-2.62.924-6.95 2.774-13.34 6.704-19.04 11.443-.68.578-1.37 1.272-2.17 1.85-5.35 4.854-9.91 10.402-13.56 16.644-.46.809-.91 1.618-1.37 2.543a72.005 72.005 0 00-7.07 19.071c-.23.925-.34 1.965-.57 2.89-.68 4.045-1.14 8.322-1.14 12.599h142.05c0-4.277-.34-8.554-1.14-12.599.12-1.04-.11-1.965-.34-2.89z" fill="url(#paint24_linear)"/><path opacity=".3" d="M1143.94 664.385v72.01h2.74v-72.01h-2.74z" fill="url(#paint25_linear)"/><path opacity=".3" d="M1119.2 669.355l17.67 66.924h2.85l-17.89-67.964c-.92.462-1.83.694-2.63 1.04z" fill="url(#paint26_linear)"/><path opacity=".3" d="M1098 682.763l30.55 53.631h3.19l-31.58-55.48a16.99 16.99 0 00-2.16 1.849z" fill="url(#paint27_linear)"/><path opacity=".3" d="M1082.95 701.835l34.09 34.444h3.87l-36.48-36.987c-.46.924-1.03 1.734-1.48 2.543z" fill="url(#paint28_linear)"/><path opacity=".3" d="M1075.42 723.796l21.55 12.599h5.47l-26.45-15.489c-.22.925-.45 1.849-.57 2.89z" fill="url(#paint29_linear)"/><path opacity=".3" d="M1151.01 736.395h2.85l17.67-66.924c-.8-.347-1.71-.694-2.62-.925l-17.9 67.849z" fill="url(#paint30_linear)"/><path opacity=".3" d="M1158.99 736.394h3.19l30.56-53.631c-.69-.578-1.37-1.271-2.17-1.849l-31.58 55.48z" fill="url(#paint31_linear)"/><path opacity=".3" d="M1169.82 736.395h3.88l34.09-34.445c-.46-.809-.92-1.618-1.37-2.543l-36.6 36.988z" fill="url(#paint32_linear)"/><path opacity=".3" d="M1188.29 736.395h5.47l21.55-12.599c-.11-.925-.34-1.965-.57-2.89l-26.45 15.489z" fill="url(#paint33_linear)"/><path d="M1920 728.631H0v97.286h1920v-97.286z" fill="url(#paint34_linear)"/><path opacity=".7" fill-rule="evenodd" clip-rule="evenodd" d="M587.232 767.221c-10.558 9.201-21.222 15.369-32.528 14.943-5.556-.209-8.945-1.907-9.915-5.254-.461-1.591-.314-3.4.225-5.315.54-1.922 1.496-4.028 2.75-6.259 4.588-8.168 13.473-18.538 22.074-28.577.752-.877 1.501-1.751 2.245-2.622 4.651-5.44 9.11-10.727 12.68-15.488 3.589-4.786 6.202-8.943 7.247-12.133.521-1.594.608-2.82.348-3.719-.243-.837-.827-1.524-2.002-2.002-1.22-.495-3.046-.747-5.644-.624-2.583.122-5.854.61-9.913 1.526-16.11 3.636-35.659 16.723-57.054 34.173-15.051 12.275-30.922 26.628-47.061 41.223l-.003.002c-6.771 6.123-13.589 12.289-20.413 18.361-23.061 20.522-46.183 39.97-67.657 52.951-21.425 12.951-41.482 19.633-58.294 14.152-8.288-2.702-12.556-6.596-13.068-11.649-.25-2.47.425-5.07 1.762-7.729 1.337-2.661 3.365-5.44 5.909-8.299 10.141-11.397 28.982-24.605 47.292-37.301l2.087-1.446c8.462-5.865 16.753-11.611 23.998-17.028 7.85-5.869 14.413-11.307 18.619-16.048 2.104-2.373 3.57-4.518 4.328-6.408.752-1.875.775-3.405.155-4.675-.632-1.295-2.034-2.53-4.585-3.576-2.545-1.043-6.121-1.85-10.91-2.358-15.256-1.618-34.771 2.191-56.432 9.546-21.639 7.348-45.319 18.199-68.867 30.567-47.094 24.734-93.571 55.488-121.974 76.261l-1.181-1.615c28.464-20.817 75.025-51.627 122.225-76.417 23.6-12.395 47.381-23.296 69.154-30.689 21.749-7.386 41.595-11.306 57.286-9.642 4.881.518 8.667 1.353 11.457 2.497 2.784 1.141 4.691 2.637 5.624 4.549.946 1.937.79 4.088-.096 6.297-.881 2.196-2.515 4.54-4.688 6.99-4.35 4.903-11.053 10.444-18.918 16.323-7.275 5.439-15.595 11.205-24.049 17.065l-2.094 1.451c-18.389 12.75-36.992 25.809-46.937 36.986-2.477 2.785-4.385 5.418-5.616 7.868-1.233 2.452-1.759 4.662-1.559 6.629.387 3.822 3.619 7.316 11.698 9.95 15.919 5.19 35.29-1.057 56.639-13.962 21.301-12.876 44.301-32.213 67.362-52.734 6.796-6.047 13.598-12.198 20.36-18.314 16.157-14.61 32.09-29.019 47.182-41.328 21.38-17.437 41.257-30.822 57.879-34.574 4.124-.93 7.518-1.443 10.259-1.573 2.727-.128 4.885.117 6.491.769 1.649.671 2.729 1.782 3.169 3.297.422 1.454.211 3.132-.368 4.899-1.156 3.531-3.951 7.916-7.546 12.711-3.614 4.819-8.112 10.151-12.76 15.588l-2.203 2.573c-8.654 10.102-17.408 20.32-21.894 28.305-1.21 2.155-2.087 4.108-2.568 5.821-.484 1.72-.547 3.12-.229 4.217.587 2.026 2.715 3.611 8.069 3.813 10.516.395 20.681-5.339 31.139-14.453 8.507-7.414 17.075-16.942 26.072-26.946 2.055-2.285 4.132-4.595 6.236-6.91 11.285-12.418 23.312-24.957 36.645-34.388 13.343-9.44 28.048-15.806 44.685-15.806v2c-16.096 0-30.403 6.152-43.53 15.438-13.139 9.295-25.04 21.689-36.32 34.101a1693.197 1693.197 0 00-6.193 6.863h-.001c-9.001 10.01-17.672 19.653-26.28 27.156zm472.318-54.009c-2.47-3.205-7.01-5.125-14.8-4.924-15.44.4-30.07 10.7-44.32 26.176-14.229 15.451-27.885 35.85-41.411 56.081l-.185.276c-13.437 20.099-26.753 40.016-40.304 54.515-13.579 14.529-27.642 23.891-42.533 22.191-7.361-.84-12.259-3.387-15.103-7.378-2.828-3.968-3.474-9.159-2.794-14.971 1.356-11.587 8.077-26.317 14.875-40.637a2308.09 2308.09 0 011.64-3.447v-.001c6.286-13.2 12.3-25.829 14.183-35.409 1.024-5.212.767-9.26-1.069-11.984-1.797-2.668-5.324-4.369-11.619-4.369-12.399 0-23.915 9.092-35.428 23.231-9.615 11.808-19.059 26.915-28.881 42.627-1.906 3.048-3.826 6.119-5.764 9.194-11.9 18.875-24.474 37.842-38.57 52.088-14.099 14.249-29.838 23.897-48.073 23.897-9.012 0-14.852-1.932-18.012-5.657-3.181-3.75-3.381-8.994-1.929-14.923 1.457-5.951 4.639-12.854 8.599-20.2 3.356-6.224 7.303-12.822 11.288-19.485l.002-.003.004-.006c.721-1.206 1.444-2.415 2.164-3.623 4.712-7.902 9.343-15.822 13.027-23.317 3.689-7.505 6.394-14.514 7.301-20.593.905-6.068.003-11.068-3.333-14.759-3.363-3.721-9.383-6.32-19.194-7.132-31.457-2.604-63.32 8.787-90.428 24.17-27.098 15.378-49.336 34.684-61.506 47.75l-1.464-1.364c12.296-13.201 34.693-32.639 61.983-48.125 27.28-15.481 59.558-27.074 91.58-24.424 10.028.829 16.654 3.515 20.513 7.784 3.886 4.299 4.781 9.996 3.827 16.395-.953 6.387-3.766 13.615-7.484 21.18-3.724 7.576-8.393 15.559-13.104 23.459-.725 1.216-1.451 2.43-2.175 3.641l-.002.003c-3.986 6.664-7.905 13.217-11.238 19.399-3.944 7.314-7.023 14.032-8.418 19.726-1.399 5.717-1.041 10.144 1.512 13.153 2.574 3.035 7.645 4.951 16.487 4.951 17.472 0 32.729-9.233 46.651-23.303 13.924-14.073 26.395-32.865 38.3-51.749 1.927-3.056 3.839-6.115 5.74-9.157 9.82-15.708 19.344-30.946 29.046-42.86 11.548-14.181 23.589-23.968 36.979-23.968 6.6 0 10.945 1.788 13.278 5.251 2.295 3.406 2.425 8.131 1.373 13.488-1.935 9.843-8.062 22.705-14.303 35.806-.559 1.173-1.119 2.348-1.676 3.523-6.841 14.41-13.386 28.819-14.696 40.011-.652 5.578.019 10.185 2.437 13.579 2.402 3.371 6.678 5.749 13.7 6.551 13.874 1.584 27.334-7.113 40.846-21.57 13.439-14.379 26.682-34.187 40.17-54.361l.117-.176c13.503-20.195 27.248-40.736 41.6-56.324 14.324-15.562 29.454-26.399 45.744-26.82 8.09-.209 13.4 1.77 16.44 5.702 2.99 3.889 3.53 9.414 2.74 15.762-.78 6.378-2.93 13.813-5.58 21.726-1.32 3.962-2.78 8.06-4.26 12.217l-.06.196-.01.025c-1.46 4.089-2.93 8.236-4.33 12.385-2.84 8.451-5.37 16.872-6.75 24.752-1.4 7.889-1.64 15.157.02 21.331 1.64 6.134 5.15 11.223 11.38 14.804 6.26 3.603 15.33 5.719 28.13 5.719v2c-12.99 0-22.45-2.142-29.13-5.985-6.72-3.864-10.55-9.408-12.32-16.022-1.76-6.575-1.47-14.172-.05-22.194 1.41-8.03 3.97-16.565 6.83-25.044 1.41-4.176 2.89-8.347 4.34-12.443l.07-.193c1.48-4.161 2.93-8.241 4.24-12.182 2.64-7.896 4.74-15.171 5.5-21.337.77-6.196.16-11.047-2.35-14.296zm382.87 95.521c-2.3-6.333-7.11-13.244-13.48-20.415-6.39-7.185-14.41-14.695-23.2-22.226-14.65-12.549-31.49-25.206-46.59-36.551l-.01-.004c-3.02-2.266-5.96-4.479-8.81-6.629-8.55-6.465-16.19-12.349-22.07-17.362-2.95-2.506-5.44-4.784-7.39-6.798-1.96-2.026-3.32-3.737-4.04-5.11-.75-1.416-.66-2.156-.39-2.554.33-.479 1.27-1.005 3.45-1.185 4.27-.35 12 .712 24.16 3.587l.46-1.946c-12.15-2.871-20.16-4.014-24.78-3.634-2.26.186-4.05.76-4.93 2.039-.94 1.361-.58 3.039.26 4.625.86 1.627 2.37 3.501 4.37 5.568 2.01 2.079 4.56 4.403 7.53 6.931 5.94 5.055 13.61 10.971 22.17 17.434 2.84 2.145 5.77 4.35 8.77 6.606l.06.039c15.1 11.346 31.88 23.958 46.48 36.463 8.75 7.501 16.7 14.946 23 22.036 6.32 7.103 10.93 13.789 13.1 19.768 1.1 3.043 1.74 5.478 1.98 7.38.24 1.92.05 3.174-.36 3.952-.38.71-1 1.146-2.03 1.298-1.08.16-2.56-.007-4.45-.543-3.79-1.07-8.88-3.495-15.06-6.897-6.16-3.394-13.33-7.718-21.27-12.542l-1.61-.979-1.37-.833v-.001c-15.22-9.259-32.99-20.064-51.52-29.468-19.75-10.022-40.43-18.487-59.92-21.795-9.68-1.643-16.43-2.327-20.73-2.136-2.13.095-3.79.407-4.91 1.027-.58.319-1.06.745-1.36 1.306-.31.569-.38 1.189-.29 1.808.18 1.175.96 2.423 2.03 3.687 1.1 1.295 2.62 2.739 4.46 4.309 3.7 3.144 8.84 6.886 14.85 11.094 3.56 2.49 7.43 5.146 11.51 7.944l.01.005v.003c9.74 6.678 20.66 14.165 31.32 22.144 15.15 11.327 29.69 23.579 39.53 35.791 2.46 3.054 4.08 5.489 4.97 7.379.91 1.94.94 3.066.67 3.675-.25.537-.91 1.037-2.51 1.208-1.58.168-3.78-.02-6.6-.559-11.26-2.159-30.93-9.654-54.66-18.805l-2.95-1.137c-23-8.874-49.45-19.079-75.37-27.279-27.02-8.548-53.54-14.947-75.01-15.361-8.58-.165-14.95.541-19.41 2.008-4.46 1.467-7.18 3.764-8.07 6.885-.87 3.063.12 6.582 2.25 10.269 2.15 3.713 5.55 7.774 9.82 12.016 17.06 16.954 48.6 37.447 72.42 51.133l.99-1.734c-23.79-13.677-55.14-34.062-72-50.818-4.21-4.185-7.47-8.103-9.5-11.598-2.03-3.522-2.71-6.439-2.06-8.719.64-2.221 2.64-4.172 6.78-5.535 4.14-1.363 10.25-2.07 18.74-1.907 21.17.408 47.47 6.732 74.45 15.268 25.85 8.18 52.26 18.366 75.27 27.243v.001l2.93 1.132c23.64 9.113 43.52 16.701 55.01 18.902 2.87.552 5.31.784 7.18.584 1.84-.197 3.44-.853 4.12-2.378.65-1.452.28-3.294-.68-5.345-.99-2.101-2.72-4.681-5.22-7.783-10-12.414-24.72-24.787-39.89-36.137-10.7-8.006-21.68-15.535-31.43-22.222-4.07-2.793-7.93-5.439-11.46-7.912-6.01-4.206-11.08-7.902-14.7-10.979-1.81-1.539-3.24-2.902-4.23-4.077-1.03-1.207-1.49-2.094-1.58-2.689-.04-.266 0-.439.07-.569.08-.137.23-.315.57-.5.7-.389 1.98-.689 4.03-.78 4.07-.181 10.64.469 20.31 2.11 19.19 3.258 39.67 11.62 59.35 21.607 18.46 9.368 36.16 20.135 51.39 29.401l2.97 1.805c7.93 4.821 15.14 9.167 21.35 12.584 6.18 3.408 11.45 5.934 15.47 7.07 2.01.567 3.8.817 5.29.597 1.54-.227 2.78-.969 3.51-2.342.69-1.307.83-3.044.57-5.134-.26-2.108-.95-4.7-2.08-7.814z" fill="url(#paint35_linear)"/><path opacity=".7" d="M1624.3 877.954c-47.61-27.362-125.77-81.757-57.53-80.443 85.3 1.641 251.94 98.502 212.26 49.251-39.67-49.251-154.73-98.502-77.36-85.369 77.36 13.134 174.57 108.353 156.71 59.102-17.85-49.252-194.4-139.545-97.2-116.561" stroke="url(#paint36_linear)" stroke-width="2"/><path opacity=".1" d="M577.565 762.132c-197.008 0-230.087 44.834-577.565 44.834V877.6h1920V726.604c-421.57 0-367.3 63.021-730.43 63.021-363.135 0-441.396-27.493-612.005-27.493z" fill="url(#paint37_linear)"/><path opacity=".2" d="M420.005 615.843c161.323 1.961 293.771-128.979 295.83-292.462 2.058-163.483-127.052-297.602-288.376-299.563-161.324-1.96-293.771 128.979-295.83 292.462-2.058 163.484 127.052 297.603 288.376 299.563z" fill="url(#paint38_linear)"/><path d="M283.438 449.685h5.544v371.517h-5.544V449.685z" fill="#0C5E59"/><path d="M247.608 417.661c13.533 0 26.293 9.829 35.187 18.871-5.994-8.649-14.307-19.067-20.687-21.229-10.827-3.539-19.914-1.769-19.914-1.769s10.247-14.546 25.327-7.667c6.767 2.949 12.374 12.581 16.434 21.819-2.32-8.649-3.867-18.87-2.514-28.305 3.674-23.588 29.774-25.554 29.774-25.554s-14.5 20.443-17.207 44.621c-.387 3.145-.58 6.29-.773 9.238 2.32-13.956 7.733-30.664 20.88-39.51 32.673-22.015 53.167 16.905 53.167 16.905s-18.754-11.794-43.307.786c-19.334 9.829-27.647 31.254-30.354 39.707 3.287-6.487 16.627-30.665 38.281-34.399 32.48-5.504 40.793 36.364 40.793 36.364s-18.56-15.135-41.567-14.152c-17.787.786-30.74 8.255-37.12 14.152 3.287-.982 10.827-2.751 19.527-2.751 28.807-.394 34.8 38.723 34.8 38.723l-54.714-34.006c2.32 4.521 7.154 13.956 9.86 20.64 3.674 9.042 1.354 29.091 1.354 29.091s-8.894-15.332-11.407-25.357c-2.513-9.631-1.933-19.656-1.547-24.374l-37.12 40.689s-9.087-24.767 18.754-36.758c3.673-1.572 6.96-2.948 9.473-3.931-6.767.983-14.887 3.735-23.2 9.239-16.24 10.614-26.487 25.16-26.487 25.16s-10.054-30.074 14.693-41.868c8.12-3.932 17.4-3.342 25.327-1.573-5.993-3.538-13.727-6.093-23.2-4.914-22.427 2.752-28.614 19.067-28.614 19.067s-6.38-37.151 26.101-36.955z" fill="url(#paint39_linear)"/><path d="M441.375 797.126a117.222 117.222 0 00-11.575-31.333 72.876 72.876 0 00-2.386-4.113c-6.086-10.284-13.604-19.478-22.315-27.462-1.074-1.089-2.267-2.057-3.46-3.025a115.196 115.196 0 00-31.383-18.873c-1.432-.604-2.864-1.088-4.296-1.572-11.455-4.113-23.865-6.412-36.633-6.654h-4.535c-12.887.242-25.178 2.541-36.633 6.654-1.432.484-2.864 1.089-4.296 1.572a115.196 115.196 0 00-31.383 18.873c-1.193.968-2.386 2.057-3.46 3.025-8.711 7.984-16.348 17.178-22.314 27.462-.836 1.33-1.551 2.782-2.387 4.113a117.186 117.186 0 00-11.574 31.333c-.358 1.573-.597 3.146-.955 4.718a119.068 119.068 0 00-1.79 20.688h234c0-7.017-.597-14.034-1.79-20.688-.239-1.572-.477-3.145-.835-4.718z" fill="url(#paint40_linear)"/><path fill-rule="evenodd" clip-rule="evenodd" d="M324.793 703.973v118.559h4.534V703.973h-4.534zm-40.93 8.347l29.116 110.333h4.654L288.04 710.748c-.344.126-.696.253-1.053.382h-.002c-1.009.364-2.065.744-3.122 1.19zm15.513 110.212l-50.355-88.315.322-.29c.988-.892 2.063-1.862 3.138-2.734l52.026 91.339h-5.131zm-75.058-56.739l56.084 56.859h6.324l-60.14-60.972c-.358.665-.746 1.36-1.134 2.056-.388.696-.776 1.391-1.134 2.057zm22.912 56.739l-35.44-20.688c.198-.868.359-1.736.524-2.624.134-.722.27-1.456.431-2.215l43.554 25.527h-9.069zm89.137.121h4.654l29.116-110.333c-1.432-.604-2.864-1.088-4.296-1.572l-29.474 111.905zm18.376 0h-5.25l52.146-91.339c1.193.968 2.387 1.936 3.46 3.024l-50.356 88.315zm12.53-.001h6.325l56.083-56.859a72.272 72.272 0 00-2.386-4.113l-60.022 60.972zm39.616 0h-9.069l43.555-25.405c.358 1.573.716 3.146.954 4.718l-35.44 20.687z" fill="url(#paint41_linear)"/><path d="M275.373 706.277c-10.969 0-15.083-9.731-15.083-23.285 0-13.553-3.77-24.674-18.51-25.369-19.196-.695-17.482 18.071-17.482 41.008 0 29.192-10.284 10.426-24.681 26.76-12.34 13.901 3.428 38.575 8.227 45.874h62.044c2.057-3.823 7.199-13.207 13.026-24.675 13.026-24.327 3.428-40.313-7.541-40.313z" fill="url(#paint42_linear)"/><path opacity=".2" fill-rule="evenodd" clip-rule="evenodd" d="M245.892 710.795h-3.084v43.548l-12.957-17.48-2.47 1.874 15.427 20.813v11.715h3.084v-32.931l13.071-16.437-2.401-1.963-10.67 13.417v-22.556z" fill="#fff"/><path d="M288.057 771.612H196.19v51.782h91.867v-51.782z" fill="#fff"/><path opacity=".56" d="M1625.28 653.733c159.54-5.794 284.3-141.559 278.66-303.238-5.65-161.68-139.56-288.05-299.1-282.256-159.54 5.794-284.3 141.558-278.65 303.238 5.64 161.68 139.55 288.05 299.09 282.256z" fill="url(#paint43_linear)"/><path opacity=".2" d="M1245.36 771.754c82.54-83.683 82.54-219.359 0-303.041-82.54-83.683-216.37-83.683-298.908 0-82.54 83.682-82.54 219.358 0 303.041 82.538 83.682 216.368 83.682 298.908 0z" fill="url(#paint44_linear)"/><path d="M1070.4 834.513a81.115 81.115 0 00-7.08-20.643c-.44-.877-.95-1.834-1.46-2.71a78.525 78.525 0 00-13.63-18.093c-.66-.718-1.39-1.355-2.12-1.993-5.69-5.181-12.18-9.405-19.18-12.434-.87-.399-1.75-.717-2.62-1.036-7-2.71-14.59-4.225-22.39-4.384h-2.769c-7.876.159-15.387 1.674-22.387 4.384-.875.319-1.75.717-2.625 1.036-7.001 3.029-13.491 7.253-19.179 12.434-.729.638-1.458 1.355-2.115 1.993-5.323 5.26-9.99 11.318-13.636 18.093-.51.876-.948 1.833-1.458 2.71a81.104 81.104 0 00-7.074 20.643c-.219 1.037-.364 2.073-.583 3.109A84.416 84.416 0 00929 851.251h143c0-4.622-.36-9.245-1.09-13.629-.15-1.036-.3-2.072-.51-3.109z" fill="#F4F6D5"/><path d="M1212.51 857.595c-2.26-11.428-6-22.235-10.98-32.172a72.183 72.183 0 00-2.27-4.223c-5.77-10.559-12.9-19.999-21.17-28.198-1.01-1.117-2.15-2.111-3.28-3.105-8.83-8.074-18.9-14.657-29.77-19.378-1.36-.621-2.72-1.118-4.08-1.614-10.87-4.224-22.64-6.584-34.75-6.832h-4.3c-12.23.248-23.89 2.608-34.76 6.832-1.36.496-2.72 1.117-4.07 1.614-10.87 4.721-20.95 11.304-29.78 19.378-1.13.994-2.26 2.112-3.28 3.105-8.27 8.199-15.51 17.639-21.17 28.198-.79 1.366-1.47 2.856-2.27 4.223-4.98 9.937-8.712 20.744-10.976 32.172-.34 1.615-.566 3.229-.906 4.844A132.034 132.034 0 00993 883.68h222c0-7.204-.57-14.409-1.7-21.241-.22-1.615-.45-3.229-.79-4.844z" fill="#fff"/><path fill-rule="evenodd" clip-rule="evenodd" d="M1455.97 558.741c-.23 5.766-.88 10.876-1.57 16.159l-.11.864c-.72 5.592-1.91 11.184-3.11 16.776v.004c-2.4 11.186-5.52 22.13-9.84 33.073l-1.68 4.134-.48.973-.24.486c0 .101-.04.16-.09.229-.07.098-.15.216-.15.501-.48 1.216-1.2 2.432-2.4 3.647-.96 1.216-2.39 2.189-3.83 3.161v.001c-1.44.729-3.12 1.216-4.56 1.459-2.88.243-5.28-.243-7.2-.73-3.84-1.216-6.47-2.918-9.11-4.863-2.64-1.702-4.8-3.647-6.96-5.592v-.002c-8.47-7.871-15.32-16.21-21.69-25.247-4.8-1.727-8.77-5.88-8.77-5.88l5.43-17.247-5.43 17.004-12.23-7.539 3.59-14.834 14.16 5.107v.001l9.59 15.319-.06 1.951.3-.248c1.92 1.823 3.9 3.647 5.88 5.471 1.98 1.824 3.95 3.648 5.87 5.472 4.08 3.647 8.16 6.808 12.24 9.969v.001c.62.423 1.23.846 1.82 1.263 1.47 1.022 2.88 2.008 4.41 2.872 1.68 1.064 3.55 1.756 4.95 2.238l.33-.779 1.44-3.648c3.36-9.728 6-19.941 7.91-30.398.52-2.744.97-5.557 1.42-8.404.39-2.451.78-4.927 1.22-7.403.72-5.107 1.44-10.7 1.68-15.564l17.27.243zm-30.31 66.242c.41.057.52-.096.33-.096-.07 0-.19.037-.33.096z" fill="url(#paint45_linear)"/><path d="M1447.2 536.297c-7.19 1.945-12.47 32.343-12.47 32.343l20.15 13.862s19.19-30.642 13.67-38.91c-6-8.511-10.79-10.213-21.35-7.295z" fill="#FFEDBA"/><path opacity=".3" d="M1447.68 543.106l-5.51 30.641 11.27 7.782-5.76-38.423z" fill="#ED6B57"/><path d="M1489.04 921.379h-23.7l-1.28-40.732h23.38l1.6 40.732z" fill="#FFC3BD"/><path d="M1465.09 919.177h23.94c.87 0 1.44.603 1.73 1.507l2.6 19.894c.29 2.11-1.44 3.919-3.46 3.919-8.37 0-12.41-.603-22.79-.603-6.35 0-19.91.603-28.85.603-8.65 0-9.52-9.344-5.77-9.947 16.73-3.617 23.37-9.043 28.85-13.866 1.15-.904 2.59-1.507 3.75-1.507z" fill="#14365B"/><path d="M1464.06 881.748l.63 15.412h23.27l-.94-15.412h-22.96z" fill="#F29994"/><path d="M1461.89 890.854s-14.01-125.726-15.21-182.631c-.39-18.434 2.06-44.033 4.34-61.509h38.02l-2.5 61.509c-2.16 55.932 2.5 182.631 2.5 182.631h-27.15z" fill="url(#paint46_linear)"/><path d="M1452.14 535.772s-3.06 9.819-3.81 18.424c-.82 9.486-9.8 26.466-4.59 36.374 12.17 15.963 6.11 40.363 8.4 54.745h71.95c-1.19-29.669-1.19-47.907 12.72-108.947 0 0-15.11-3.404-30.47-4.134-11.99-.486-22.06-.972-32.62 0-14.15 1.216-21.58 3.538-21.58 3.538z" fill="#FFEDBA"/><path d="M1502.99 494.784c-2.16 10.7-4.08 30.155 3.11 37.207 0 0-2.87 10.7-22.3 10.7-21.59 0-10.32-10.7-10.32-10.7 11.76-2.918 11.52-11.673 9.36-19.941l20.15-17.266z" fill="url(#paint47_linear)"/><path d="M1494.83 501.836l-11.75 10.214c.48 1.945.96 3.891.96 5.836 4.55-.729 10.55-5.593 11.03-10.456.24-2.189.24-4.378-.24-5.594z" fill="#F29994"/><path d="M1466.41 486.018c-7.69-11.701-5.27-22.52 0-28.556h20.62c.69 9.286 2.06 28.834 2.06 32.735 0 3.9 19.71-2.786 17.87 1.393-4.58-.929-32.85 6.129-40.55-5.572z" fill="#0F264C"/><path d="M1514.02 475.329c-4.08 17.266-5.52 24.805-15.83 32.101-15.59 11.186-35.5 2.188-36.7-16.051-.96-16.293 6-42.071 23.99-45.961 18.23-3.648 32.86 12.645 28.54 29.911z" fill="url(#paint48_linear)"/><path d="M1493.02 892.756h-33.95l-2.61-10.956 38.02-1.153-1.46 12.109z" fill="#4B2A2A"/><path d="M1483.08 679.604c-7.98 16.168-5.1 41.676-3.81 63.435 1.58 26.678 3.01 49.383 6.45 62.777 3.12-36.721 8.63-81.71 12.71-114.539-2.4-18.726-7.2-28.21-15.35-11.673z" fill="#EE4D47" fill-opacity=".29" style="mix-blend-mode:multiply"/><path d="M1555.85 888.353l-22.81-93.573v-91.922l-6.72-55.594h-40.74c-4.78 30.825 5.82 115.224 14.33 159.075l26.41 82.014h29.53z" fill="url(#paint49_linear)"/><path d="M1539.01 921.929l-6.51-26.42h22.81l3.8 26.42h-20.1z" fill="#FFC3BD"/><path d="M1530.38 933.37l7.85-11.991h20.73c2.57 1.562 3.73 11.372 4.49 17.905.29 2.499-1.26 4.89-3.68 5.592l-17.62 5.125h-25.41a3.74 3.74 0 01-3.73-3.797c0-7.447 12.12-12.214 17.37-12.834z" fill="#14365B"/><path fill-rule="evenodd" clip-rule="evenodd" d="M1555.86 899.362l-.55-3.853h-22.81l.95 3.853h22.41z" fill="#F29994"/><path d="M1560.38 896.059h-33.96l-2.61-10.956 38.02-1.153-1.45 12.109z" fill="#4B2A2A"/><ellipse rx="20.619" ry="20.895" transform="matrix(1 0 0 -1 1524.15 470.695)" fill="#0F264C"/><path d="M1486.96 475.308c.26-1.455-.28-2.767-1.19-2.931-.91-.164-1.86.882-2.11 2.337-.26 1.455.28 2.767 1.19 2.931.91.164 1.86-.882 2.11-2.337zM1471.08 472.654c-.24 1.459-1.2 2.432-2.15 2.189-.96-.243-1.44-1.459-1.2-2.918s1.2-2.432 2.15-2.189c.96.243 1.44 1.459 1.2 2.918z" fill="#0F264C"/><path d="M1470.36 469.979l-3.11-1.702c-.24 0 1.2 2.918 3.11 1.702z" fill="#0F264C"/><path d="M1474.92 475.816s-3.36 5.593-6.71 8.268c1.44 2.188 4.79 1.945 4.79 1.945l1.92-10.213z" fill="#ED847E"/><path d="M1481.12 494.245c-1.06 0-2.11 0-3.53-.35-.35 0-.7-.349-.35-.699 0-.349.35-.699.71-.349 9.17 1.747 14.47-3.844 14.47-3.844.35-.35.7-.35.7 0 .36.349.36.699 0 .699 0 0-4.23 4.543-12 4.543z" fill="#0F264C"/><path d="M1523.39 459.878c7.99 19.311-8.43 29.187-17.64 31.712l8.82-17.513-1.76-9.466c-8.04-5.049-21.99-15.335-13.52-16.092 10.58-.947 21.16 4.259 24.1 11.359z" fill="#D3D86C"/><path d="M1486.44 444.201c-7.92 4.62 11.51 48.15 25.9 42.071 14.39-6.08 9.6-30.398 2.64-36.478-7.2-6.323-17.51-12.159-28.54-5.593z" fill="#0F264C"/><path d="M1520.71 459.551c9.35 28.417-9.85 42.95-20.62 46.665l10.31-25.77-2.06-13.93c-9.4-7.429-25.71-22.566-15.81-23.681 12.37-1.393 24.74 6.269 28.18 16.716z" fill="#0F264C"/><path d="M1481.88 442.013s-9.6 1.459-15.83 13.375c-6.48 12.159 30.22-11.673 24.94-13.375-5.03-1.702-9.11 0-9.11 0z" fill="#0F264C"/><path d="M1514.74 488.461c-1.44 3.405-4.08 5.837-6.96 7.052-4.07 1.703-6.71-1.945-5.99-6.322.72-3.891 3.6-9.241 8.15-9.241 4.32 0 6.48 4.377 4.8 8.511z" fill="url(#paint50_linear)"/><path fill-rule="evenodd" clip-rule="evenodd" d="M1544.48 555.337c4.08 9.727 7.2 19.455 10.08 29.425 2.87 9.971 5.27 20.184 6.47 30.884.24 2.675.48 5.35.72 8.269v2.188c0 .035.01.105.01.204.05.595.16 2.263-.25 3.93-.24.973-.72 2.189-1.44 3.162-.72 1.216-1.68 2.189-2.64 2.918-2.15 1.459-4.07 1.946-5.51 2.189-1 .168-1.88.104-2.64.048-.34-.025-.66-.048-.96-.048-.45-.114-.9-.175-1.33-.232-.48-.065-.93-.125-1.31-.255-1.68-.486-3.12-.972-4.32-1.459-2.64-1.216-5.03-2.432-7.43-3.648-9.12-5.35-17.27-11.429-24.95-18.238l.12-.182c-3.26-1.682-5.84-4.827-7.27-6.87l-11.08-12.403 7.2-13.618 12.23 8.511v.001l5.86 18.047 1.22.621c7.6 3.868 15.35 7.807 22.9 11a39.61 39.61 0 004.44 1.682c-.13-.903-.26-1.798-.36-2.655-.72-4.62-1.92-9.239-3.12-13.858v-.004c-.6-2.31-1.26-4.681-1.92-7.052-.66-2.371-1.32-4.742-1.91-7.052-2.88-9.241-6.24-18.726-9.6-27.723l16.79-7.782z" fill="#FFC3BD"/><path d="M1491.47 466.088c-.24 0-.48 0-.72-.243-2.64-2.675-5.51-2.189-5.75-2.189-.48 0-.96-.243-.96-.729 0-.487.24-.973.72-.973.24 0 4.07-.73 7.19 2.675.24.243.24.973 0 1.216s-.24.243-.48.243zM1465.33 463.9c-.24 0-.48 0-.48-.244-.24-.243-.24-.972 0-1.216 3.12-3.404 6.95-2.675 7.19-2.675.48 0 .72.487.72.973 0 .487-.48.73-.96.73-.24 0-3.11-.487-5.75 2.188-.24.244-.48.244-.72.244z" fill="#0F264C"/><path d="M1536.81 536.125c7.19 2.189 15.83 27.48 15.83 27.48l-28.07 20.184s-10.31-20.914-7.19-30.398c3.36-9.727 11.27-19.698 19.43-17.266z" fill="#FFEDBA"/><path d="M1453.43 921.379c-2.97 0-5.95-.44-7.65-2.2-.85-.88-1.27-2.2-1.27-3.961 0-.88.42-1.76 1.27-2.2 3.83-2.2 16.15 4.401 17.85 5.281.43 0 .43.44.43.88s-.43.44-.43.44c-2.97 1.32-6.8 1.76-10.2 1.76zm-5.52-6.6c-.43 0-.85-.001-1.28.439-.42 0-.42.441-.42.881 0 .88 0 1.759.85 2.64 1.7 1.76 7.22 2.2 14.02.88-4.67-2.64-10.2-4.84-13.17-4.84z" fill="#9FC6FF"/><path d="M1463.21 920.278c-4.27-1.601-11.51-8.006-11.08-11.209 0-.8.85-1.601 2.98-2.001 1.7 0 2.98.4 4.26 1.2 3.84 3.203 4.69 11.209 4.69 11.209 0 .401 0 .401-.43.801h-.42zm-7.67-12.01h-.43c-1.28 0-1.28.801-1.28.801-.42 2.002 4.69 7.206 8.52 9.207-.42-2.402-1.27-7.205-3.83-9.207-.85-.4-1.71-.801-2.98-.801zM1533.41 924.585c-2.34-1.736-4.42-3.817-4.75-6.189-.17-1.186.25-2.468 1.25-3.848.5-.689 1.33-1.131 2.25-.98 4.25.509 10.16 12.875 10.99 14.557.33.248.08.593-.17.938s-.58.097-.58.097c-3.08-.702-6.33-2.59-8.99-4.575zm-.58-8.397c-.34-.248-.67-.496-1.25-.399-.34-.248-.59.097-.84.441-.5.69-1 1.38-.83 2.565.33 2.372 4.41 5.942 10.49 8.876-2.16-4.798-5.24-9.746-7.57-11.483z" fill="#9FC6FF"/><path d="M1541.69 929.427c-2.43-3.742-4.47-12.988-2.31-15.25.45-.627 1.58-.757 3.47.173 1.34.994 2.11 2.054 2.66 3.427 1.19 4.748-2.7 11.52-2.7 11.52-.22.314-.22.314-.78.379l-.34-.249zm.82-13.888l-.34-.248c-1-.746-1.46-.119-1.46-.119-1.47 1.32-.42 8.382 1.45 12.189 1.03-2.131 3.09-6.393 2.23-9.453-.44-.812-.88-1.623-1.88-2.369z" fill="#9FC6FF"/><path d="M1525.05 640.937l1.92 6.566c.24.487-.24.973-1.2.973h-74.11c-.72 0-1.2-.243-1.2-.729l-.72-6.566c0-.487.48-.73 1.2-.73h72.91c.72-.243 1.2 0 1.2.486z" fill="#F18069"/><path d="M1515.46 649.206h1.92c.48 0 .72-.243.72-.487l-.96-8.511c0-.243-.48-.487-.72-.487h-1.92c-.48 0-.72.244-.72.487l.96 8.511c0 .244.24.487.72.487zM1457.17 649.206h1.92c.48 0 .72-.243.72-.487l-.96-8.511c0-.243-.48-.487-.72-.487h-1.92c-.48 0-.72.244-.72.487l.96 8.511c0 .244.48.487.72.487zM1486.2 649.206h1.91c.48 0 .72-.243.72-.487l-.96-8.511c0-.243-.48-.487-.72-.487h-1.91c-.48 0-.72.244-.72.487l.96 8.511c0 .244.48.487.72.487z" fill="#6A2828"/><path d="M1486.2 472.654l-3.12-1.702c0 .243 1.2 3.161 3.12 1.702z" fill="#0F264C"/><path d="M1318.38 470.772h-18.11l-2.45-11.089s7.17 4.206 8.87 1.338c1.69-2.868 1.32-1.721 3.01-1.338 1.7.382 1.7-1.912 3.78-.574 2.26 1.53 5.65 8.795 4.9 11.663z" fill="#6B1912"/><path d="M1299.71 926.407l22.25-1.912-1.13-27.915-22.44 2.103 1.32 27.724z" fill="#D88D6C"/><path d="M1341.2 922.583s-14.71-6.883-17.16-11.854c0 0-4.34-16.061-10.94-7.648 0 0-6.79 5.544-16.41 1.147l-1.13 30.401 66.57-.191c-1.69-4.589-3.2-9.752-20.93-11.855z" fill="url(#paint51_linear)"/><path d="M1295.56 934.82l-.38 4.78 67.14-.191c0-1.912.57-2.868-.38-4.78l-66.38.191z" fill="#C73E39"/><path d="M1202.21 922.583l22.25 3.824 5.85-27.15-22.07-3.825-6.03 27.151z" fill="#D88D6C"/><path d="M1245.02 922.583s-14.71-6.883-17.16-11.854c0 0 3.39-12.62-4.53-6.31 0 0-13.58 5.162-19.24-1.147l-4.52 31.548 66.57-.191c-2.08-4.78-3.58-9.943-21.12-12.046z" fill="url(#paint52_linear)"/><path d="M1199.38 934.82l-.38 4.78 67.14-.191c0-1.912.56-2.868-.38-4.78l-66.38.191z" fill="#C73E39"/><path d="M1325.73 663.313s3.96 114.913.38 245.504c0 0-10.75 10.325-31.12 3.441 0 0 .19-145.313-5.28-203.056 0 0-25.65 109.75-58.08 204.777 0 0-21.69 4.206-29.42-8.222 0 0 43.75-153.917 50.16-242.444h73.36z" fill="url(#paint53_linear)"/><path d="M1325.73 663.313h-73.36c-.56 6.692-1.13 13.767-2.07 21.032 43.75.192 66.95-11.089 75.62-16.252 0-3.25-.19-4.78-.19-4.78z" fill="#402B2B" fill-opacity=".45" style="mix-blend-mode:multiply"/><path d="M1365.72 583.391c-20.18-36.138-36.03-48.375-36.03-48.375-8.67 4.972-2.07 39.006-2.07 39.006 5.47 10.898 9.24 20.649 17.35 30.21l20.75-20.841z" fill="#D1402C"/><path d="M1329.69 535.016s-.94 21.989-3.77 127.724c0 0-25.65 13.192-76.75 4.015 0 0-.19-31.74-7.17-59.847 0 0-13.01-52.963-6.41-68.45 0 0 41.68-26.195 94.1-3.442z" fill="url(#paint54_linear)"/><path d="M1290.09 514.06l.38 13.691s-3.21 4.78-10.94 5.353c-7.73.383-11.5-4.015-11.5-4.015l-.76-20.382c9.62 4.206 19.05 5.927 22.82 5.353z" fill="url(#paint55_linear)"/><path d="M1289.34 508.439l.75 15.105c-3.77.574-13.2-1.147-22.63-5.353l-.57-9.752h22.45z" fill="url(#paint56_linear)" style="mix-blend-mode:multiply"/><path d="M1238.23 568.286s11.12 25.43 15.08 36.902c3.97 11.281 3.97 56.213 24.71 64.817 0 0-22.06-1.338-29.04-3.25 0 0-.38-33.843-7.17-59.847 0 0-4.71-27.341-6.6-39.77l3.02 1.148z" fill="#EE4D47" fill-opacity=".29" style="mix-blend-mode:multiply"/><path d="M1252.94 475.17c.37.191.75 6.31.75 6.31l1.51 12.81 6.98 5.545 3.96 1.721s5.85-2.486 5.09-4.78c-.75-2.103-4.53-32.313-5.28-32.313s-6.79 4.397-6.79 4.397l-6.22 6.31zM1308.19 463.698c1.7 0-.94 21.032-.94 21.032l-3.02-8.413-2.07-10.133 6.03-2.486z" fill="#402B2B"/><path d="M1305.37 467.904l3.2 26.96s1.13 22.753-17.35 24.091c-18.48 1.148-31.12-17.399-31.12-17.399s-2.26 2.677-4.71-1.912c-2.26-4.589-.75-10.707 2.45-11.281 3.4-.382 4.9 1.53 5.28 4.398.38 2.868.76 4.971.76 4.971l2.82-.382-2.07-22.18s4.34-8.604 9.24-10.325 9.24 5.163 9.24 5.163 4.53.956 8.87 0c4.33-.956 7.16-2.104 7.16-2.104s2.64.765 6.23 0z" fill="url(#paint57_linear)"/><path d="M1291.98 508.631c-6.23.382-7.17-6.884-7.17-6.884s14.33-1.721 14.71-1.912c0 0 1.13 8.222-7.54 8.796z" fill="#893D43"/><path d="M1285.38 504.042c-.57-1.339-.76-2.295-.76-2.295s14.33-1.721 14.71-1.912c0 0 .19.956 0 2.486l-13.95 1.721z" fill="#FFFEFF"/><path d="M1285.94 461.021v-19.502c-11.5.573-23.38 2.868-29.23 10.133-6.98 8.604-3.02 28.489-3.02 28.489s8.49-.956 10-3.824c1.51-2.868 15.84-6.883 26.78-6.309 10.94.573 16.22-.574 21.69-5.354 1.13-.956 2.07-2.294 2.83-3.824h-29.05v.191z" fill="#402B2B"/><path d="M1252.37 472.876s8.11-2.677 21.69-3.824c22.82-9.752 32.63-8.031 32.63-8.031s-.19-7.457-2.27-12.619c-2.07-5.163-16.03-12.428-27.72-11.281-11.69 1.147-23.76 9.942-25.65 18.355-1.51 6.501 1.32 17.4 1.32 17.4z" fill="url(#paint58_linear)"/><path d="M1266.14 470.008c2.45-11.855 19.99-17.782 32.44-17.591 12.26.191 20.93 10.516 22.25 17.591.57 2.868-1.7 3.25-2.45.764-.57-1.72-1.7-9.942-13.01-8.986-11.32.956-10.75 11.281-16.41 12.237-5.28.956-11.32-2.868-22.82-4.015z" fill="url(#paint59_linear)"/><path d="M1304.05 472.684v-1.338c-.57 0-4.91-.574-10.19.574l.19 2.103c4.34-1.339 10-1.339 10-1.339zM1272.17 477.465c3.4-1.912 9.81-2.868 9.81-3.06l-.75-1.912c-.19 0-6.04 1.147-9.81 3.633l.75 1.339z" fill="#402B2B"/><path d="M1291.03 483.966s.57 4.015 2.08 5.162c1.51 1.147 4.15 2.103 4.52 3.059.38.765-.37 2.295-2.07 2.868-1.7.574-1.89 1.147-1.89 1.147s3.4.383 5.1-1.72c1.69-2.104-.19-3.824-1.89-4.78-1.7-.956-2.45-1.339-3.21-1.912-.94-.574-2.64-3.824-2.64-3.824z" fill="#D87C60"/><path d="M1282.92 486.069c0 1.912-1.32 3.633-3.01 3.633-1.7 0-3.02-1.53-3.02-3.633 0-1.912 1.32-3.633 3.02-3.633 1.69 0 3.01 1.529 3.01 3.633zM1303.67 483.583c0 1.912-1.32 3.633-3.02 3.633s-3.02-1.53-3.02-3.633c0-1.912 1.32-3.633 3.02-3.633 1.7.191 3.02 1.721 3.02 3.633z" fill="#402B2B"/><path d="M1396.08 534.825h-116.55v91.204h116.55v-91.204z" fill="#8C5E5E"/><path d="M1396.27 534.825h-42.44v91.204h42.44v-91.204z" fill="#694646"/><path d="M1381.75 534.825h-10.94v12.62h10.94v-12.62zM1319.13 534.825h-10.93v12.62h10.93v-12.62z" fill="#A3774A"/><path d="M1396.27 601.937s-6.04 4.015-7.73 5.736c-1.7 1.721-4.72 18.164-1.7 19.885 3.02 1.721 8.86 0 10.75.383 2.07.382 8.11-3.442 8.11-6.501 0-3.06-3.77-23.327-4.72-23.709-.94-.383-4.71-2.868-4.71-2.868v7.074z" fill="#F4A984"/><path d="M1320.45 600.599h-36.4v17.973h36.4v-17.973z" fill="#fff"/><path fill-rule="evenodd" clip-rule="evenodd" d="M1248.22 623.925c-13.76-20.267-15.65-81.643-15.65-81.643 18.86 2.486 31.49 28.107 31.49 28.298l2.83 36.711 48.13 7.815 2.61-2.461s11.12-5.736 20.17-4.78c0 0 4.15.764 3.21 3.25-.38 1.338.38 2.199 1.13 3.059.76.861 1.51 1.721 1.13 3.059-.31 1.13-.03 1.987.25 2.83.39 1.155.76 2.285-.43 4.054 0 0 1.5 2.294-.19 4.397-.08.096-.16.197-.25.302-1.79 2.225-5.28 6.564-6.54 6.199-.48-.137-1.58-.323-2.82-.533-2.22-.373-4.86-.82-5.1-1.188-.38-.573-.76-1.72 1.13-2.868 0 0-2.08.574-4.72.192-2.64-.192-6.41-2.295-6.41-2.295l-.7-.592c-52.9 4.399-69.27-3.806-69.27-3.806z" fill="url(#paint60_linear)"/><path d="M1269.34 598.496l-5.28-28.107s-9.61-29.445-28.47-31.931c0 0-13.58 8.604 3.2 67.112l30.55-7.074z" fill="url(#paint61_linear)"/><path d="M282.01 1011.32c0 37.71 21.43 68.18 47.786 68.18h47.787c26.357 0 47.54-30.72 47.54-68.18 0-37.706-21.43-68.173-47.786-68.173h-47.541c-26.602 0-47.786 30.717-47.786 68.173z" fill="#442B2B"/><path d="M656.42 1010.57c0 37.71 21.43 68.18 47.787 68.18h47.786c26.357 0 47.541-30.72 47.541-68.18 0-37.705-21.431-68.172-47.787-68.172h-47.54c-26.603 0-47.787 30.467-47.787 68.172z" fill="#402B2B"/><path d="M48.003 909.933l14.533-32.965h43.599l.493 124.862-58.379.25-.246-92.147z" fill="#000"/><path d="M278.807 1004.83l192.378-.5-22.169-13.235-145.577.25-24.632 13.485z" fill="#442B2B"/><path d="M97.268 893.7l.246 125.12 156.169-.25 49.757-27.225 145.577-.249 44.83 26.974 317.757-.75c5.173 0 9.36-4.25 9.36-9.49l-.246-115.628-723.45 1.498z" fill="#822626"/><path d="M437.687 922.17l249.279-.5-.493-229.004c0-9.24-7.389-16.732-16.75-16.732l-232.775.5.739 245.736z" fill="#EF5F53"/><path d="M48.989 923.169l388.451-.75-.493-245.735L65 677.433c-9.114 0-16.504 7.492-16.504 16.981l.493 228.755z" fill="#F39476"/><path d="M624.892 1010.57c0 37.71-21.183 68.18-47.54 68.18h-47.54v-22.97c-17.489 0-31.776-20.23-31.776-45.21 0-24.969 14.041-45.197 31.53-45.197v-22.975h47.54c26.356.249 47.54 30.717 47.786 68.172z" fill="#402B2B"/><path d="M490.399 1011.07c0 30.97 17.489 55.94 39.166 55.69 21.676 0 38.919-24.97 38.919-55.94 0-30.962-17.489-55.935-39.166-55.686-21.43 0-38.919 24.973-38.919 55.936z" fill="#4B2A2A"/><path opacity=".32" d="M529.564 1047.78c14.287 0 25.618-16.48 25.618-36.96 0-20.474-11.577-36.706-25.864-36.706S503.7 990.596 503.7 1011.07c0 20.48 11.577 36.71 25.864 36.71zm0-58.682c8.375 0 15.272 9.739 15.272 21.722 0 11.99-6.897 21.98-15.272 21.98s-15.272-9.74-15.272-21.73c0-12.233 6.651-21.972 15.272-21.972z" fill="#E14841"/><path d="M529.564 1079c26.357 0 47.54-30.72 47.54-68.18 0-37.455-21.43-68.172-47.786-68.172-26.357 0-47.541 30.717-47.541 68.172 0 37.46 21.677 68.43 47.787 68.18zm-.246-123.866c21.676 0 39.165 24.973 39.165 55.686 0 30.97-17.243 55.94-38.919 55.94s-39.165-24.97-39.165-55.69c0-30.963 17.489-55.936 38.919-55.936z" fill="#402B2B"/><path opacity=".32" d="M522.914 1010.82c0-5.24 2.956-9.24 6.404-9.24s6.404 4.25 6.65 9.24c0 5.25-2.955 9.24-6.404 9.24-3.694.25-6.65-3.99-6.65-9.24z" fill="#E14841"/><path d="M250.234 1011.57c0 37.71-21.184 68.18-47.54 68.18h-47.54v-22.97c-17.489 0-31.776-20.23-31.776-45.21 0-24.97 14.04-45.198 31.529-45.198v-22.975h47.541c26.356 0 47.786 30.467 47.786 68.173z" fill="#000"/><path d="M852.003 824.025c0 .999.739 1.748 1.478 1.998 1.97.499 9.36.499 11.577-.25.985-.249 1.97-.999 1.97-2.247.739-19.979.739-39.458 0-57.938 0-1.249-.985-1.998-1.97-2.248-2.463-.749-11.085-1.248-13.794-.249-.986.249-1.725 1.248-1.725 2.247-.492 18.98.247 38.459 2.464 58.687z" fill="#CD2827"/><path d="M839.931 841.756c.246 0 .493 0 .985-.25l16.75-8.49c3.941-1.998 6.404-5.994 6.404-10.489l-.246-62.683c0-2.497-1.97-4.495-4.434-4.495h-46.062c-1.232 0-1.971.999-1.971 1.998 0 1.249.986 1.998 1.971 1.998h46.062c.247 0 .247.249.247.249l.246 62.683c0 2.997-1.724 5.494-4.187 6.743l-16.75 8.491c-.986.499-1.478 1.748-.986 2.747.493 1.248 1.232 1.498 1.971 1.498z" fill="#822626"/><path d="M471.186 921.67h55.422c29.313 0 36.21 14.734 54.191 50.945l56.901-.25v-11.487l217.257-.5c.985-18.23 2.956-55.19 2.956-90.153v-3.496c0-9.989-1.725-20.977-4.681-31.965-11.577-42.954-40.889-88.655-52.959-105.387-3.941-5.494-7.39-10.239-10.346-14.485-8.375-11.237-14.04-16.981-24.632-16.981l-263.319.749c-5.419 0-10.346 3.746-11.824 8.99-22.661 84.409-19.213 148.59-18.966 214.02zm221.937-193.292c-.247-1.249.738-2.248 1.97-2.248l80.055-.249c4.68 0 9.36 2.497 12.316 6.742 31.283 43.204 43.846 82.661 48.526 105.387l4.926 23.974c.739 3.496-1.478 6.244-4.926 6.244h-19.46c-3.202 0-6.65-1.499-9.114-3.996l-39.904-38.709c-4.434-4.245-10.346-6.742-16.011-6.742h-47.787l-10.591-90.403z" fill="#CD2827"/><path d="M651.74 835.513c1.724 7.991 3.695 16.232 5.419 24.973 1.232 5.993 6.405 10.239 12.317 10.489 77.838 2.747 142.374 2.996 188.436-.5v-3.496c0-9.989-1.724-20.977-4.68-31.966l-201.492.5z" fill="#822626"/><path opacity=".75" d="M507.889 726.38l80.055-.25c4.68 0 8.868 2.498 11.085 6.743 22.415 43.204 27.095 82.661 27.095 105.387v23.974c0 3.496-2.709 6.243-6.158 6.243h-19.459c-3.202 0-6.405-1.498-8.375-3.995l-32.022-38.709c-3.695-4.245-8.868-6.992-14.533-6.742H497.79l7.636-90.403c0-1.249.985-2.248 2.463-2.248z" fill="#402B2B"/><path d="M471.186 921.67h55.422c29.313 0 36.21 14.734 54.191 50.945l56.901-.25v-11.487l217.257-.5c.985-18.23 2.956-55.19 2.956-90.153-46.063 3.497-110.846 3.497-188.437.5-5.912-.25-11.085-4.495-12.317-10.489-1.724-8.74-3.694-17.231-5.419-24.973-10.592-45.701-22.169-78.416-37.441-113.878-1.231-2.747.739-5.993 3.695-5.993l171.933-.5c-8.375-11.237-14.04-16.981-24.632-16.981l-263.319.749c-5.419 0-10.346 3.746-11.824 8.99-22.661 84.409-19.213 148.59-18.966 214.02zm26.356-102.64l7.636-90.402c0-1.249 1.232-2.248 2.463-2.248l80.055-.25c4.68 0 8.868 2.498 11.085 6.743 22.415 43.204 27.095 82.661 27.095 105.387v23.974c0 3.496-2.709 6.243-6.158 6.243h-19.459c-3.202 0-6.405-1.498-8.375-3.995l-32.022-38.709c-3.695-4.245-8.868-6.992-14.533-6.743h-47.787z" fill="url(#paint62_linear)"/><path d="M480.793 915.177c0 3.746 2.955 6.493 6.65 6.493h39.166c29.312 0 36.209 14.734 54.191 50.945l56.9-.25v-11.487l-.246-101.141c0-50.196-8.868-81.912-32.268-132.108-3.449-7.492-11.085-12.237-19.213-12.237l-84.736.25c-1.97 0-3.448 1.248-3.941 2.997-16.75 64.43-16.75 169.317-16.503 196.538zm16.75-96.146l7.636-90.403c0-1.249 1.231-2.248 2.463-2.248l80.055-.25c4.68 0 8.867 2.498 11.084 6.743 22.416 43.204 27.096 82.661 27.096 105.387v23.974c0 3.496-2.71 6.243-6.158 6.243h-19.46c-3.202 0-6.404-1.498-8.375-3.995l-32.022-38.709c-3.695-4.245-8.867-6.992-14.533-6.742h-47.786z" fill="url(#paint63_linear)"/><path d="M508.382 729.377l79.562-.25c3.449 0 6.651 1.998 8.375 4.995 23.155 44.702 26.849 84.409 26.849 103.888v23.974c0 1.748-1.478 3.247-3.202 3.247h-19.459c-2.464 0-4.68-.999-6.158-2.747l-32.022-38.709c-4.188-4.994-10.346-7.991-16.997-7.991h-44.338l7.39-86.407zm-.493-2.997c-1.231 0-2.463.999-2.463 2.248l-7.636 90.403h47.787c5.665 0 10.838 2.497 14.533 6.742l32.022 38.709c1.97 2.497 5.173 3.995 8.375 3.995h19.459c3.449 0 6.158-2.747 6.158-6.243V838.26c0-22.726-4.68-62.183-27.095-105.387-2.217-4.245-6.405-6.743-11.085-6.743l-80.055.25z" fill="#822626"/><path opacity=".4" d="M637.454 913.179v47.699l85.967-.25c-.985-12.486-3.202-24.473-6.897-35.711-1.478-4.496-5.173-7.742-9.853-8.491-18.967-2.248-43.107-3.247-69.217-3.247zm173.904 47.449h42.614c.739-10.488 1.478-27.47 2.217-46.7a301.603 301.603 0 00-28.574 2.747c-4.68.75-8.375 3.996-9.852 8.491-3.449 10.989-5.42 22.976-6.405 35.462z" fill="#CD2827"/><path d="M637.701 1008.83l199.275-.5c13.548 0 24.632-11.241 24.632-24.976v-4.246c0-3.995-3.202-6.992-6.897-6.992l-216.763.499-.247 36.215z" fill="#EE4D47"/><path d="M600.998 1008.83H637.7v-36.215h-56.408l6.158 25.223c1.478 6.492 7.143 10.992 13.548 10.992zM513.306 876.719c8.375.249 24.633 1.997 24.633 7.991s-14.287 7.991-25.864 7.991c-11.578 0-12.809-6.493-13.794-9.24-.739-2.747-1.478-6.992 15.025-6.742z" fill="#CD2827"/><path d="M514.046 883.212c-3.941 0-8.128-1.249-10.099-3.247 1.478-.749 3.695-1.498 7.144-1.498 6.404 0 16.75.749 22.169 3.246-.739.5-2.71 1.499-5.912 1.499h-13.302zM530.549 887.956c1.478 0 2.217.25 2.463.5-4.434 1.998-12.563 2.747-16.504 2.747-5.665 0-9.606 0-10.838-1.249.985-.749 3.202-1.998 5.419-1.998 2.956.25 17.489 0 19.46 0z" fill="#9B1616"/><path d="M637.701 961.128v11.487l216.518-.499s.246-4.246.739-11.488l-217.257.5z" fill="#822626"/><path d="M731.057 910.682v47.699l72.665-.25v-47.699c0-5.744-5.173-10.239-11.577-10.239h-49.757c-6.159.25-11.331 4.995-11.331 10.489z" fill="#822626" opacity=".2"/><path d="M828.107 956.633h15.272c3.942 0 7.39-3.247 7.39-7.492v-7.742c0-3.996-3.202-7.492-7.39-7.492h-15.272c-3.941 0-7.389 3.247-7.389 7.492v7.742c0 4.245 3.448 7.492 7.389 7.492zM683.516 957.132h15.272c3.941 0 7.389-3.247 7.389-7.492v-7.742c0-3.995-3.202-7.492-7.389-7.492h-15.272c-3.941 0-7.39 3.247-7.39 7.492v7.742c0 3.996 3.202 7.492 7.39 7.492z" fill="#fff"/><path d="M584.985 824.524c0 .999.739 1.749 1.478 1.998 9.607.999 19.706.999 30.052-.249 1.231-.25 1.97-.999 1.97-2.248.739-19.978.739-39.457 0-57.938 0-1.248-.985-1.997-1.97-2.247-10.592-1.249-21.184-1.249-32.269 0-.985.25-1.724 1.249-1.724 2.247-.739 18.73.246 38.209 2.463 58.437z" fill="#CD2827"/><path d="M623.164 842.256c.739 0 1.477-.5 1.724-1.249.492-.999 0-2.248-.986-2.747l-16.749-8.241c-2.464-1.249-4.188-3.996-4.188-6.743l-.246-62.683c0-.249.246-.249.246-.249h10.346c1.231 0 1.97-.999 1.97-1.998 0-1.249-.985-1.998-1.97-1.998h-10.346c-2.463 0-4.434 1.998-4.434 4.495l.247 62.683c0 4.495 2.463 8.491 6.404 10.489l16.75 8.241h1.232z" fill="#822626"/><path d="M736.135 1011.78l69.709-.15-.046-21.226-69.709.153.046 21.223z" fill="#fff"/><path opacity=".8" d="M613.825 722.141c15.272 35.461 26.603 68.176 37.441 113.877l201.492-.499c-11.577-42.954-40.889-88.655-52.959-105.387-3.941-5.494-7.39-10.239-10.346-14.484l-171.933.499c-2.956.25-4.927 3.247-3.695 5.994z" fill="#8E6362"/><path d="M119.93 1011.82c0 30.97 17.489 55.94 39.165 55.69 21.676 0 38.919-24.97 38.919-55.94 0-30.963-17.489-55.936-39.165-55.686-21.677 0-38.919 24.973-38.919 55.936z" fill="#000"/><path d="M159.095 1048.53c14.287 0 25.618-16.48 25.618-36.96 0-20.225-11.577-36.707-25.864-36.707s-25.618 16.482-25.618 36.957c0 20.48 11.578 36.71 25.864 36.71zm-.246-58.683c8.375 0 15.272 9.739 15.272 21.723 0 11.99-6.897 21.98-15.272 21.98s-15.272-9.74-15.272-21.73c0-12.233 6.897-21.973 15.272-21.973z" fill="#625C5C"/><path d="M159.094 1080c26.357 0 47.541-30.72 47.541-68.18 0-37.706-21.43-68.173-47.787-68.173s-47.54 30.717-47.54 68.173c0 37.71 21.43 68.18 47.786 68.18zm-.246-124.117c21.676 0 39.165 24.974 39.165 55.687 0 30.72-17.242 55.94-38.919 55.94-21.676 0-39.165-24.97-39.165-55.69 0-30.714 17.243-55.937 38.919-55.937z" fill="#424242"/><path d="M152.443 1011.82c0-5.24 2.956-9.24 6.404-9.24 3.695 0 6.404 4.25 6.651 9.24 0 5.25-2.956 9.24-6.404 9.24-3.695 0-6.651-4.24-6.651-9.24z" fill="#8B8282"/><defs><linearGradient id="paint0_linear" x1="1333.2" y1="1148.24" x2="319.87" y2="-68.489" gradientUnits="userSpaceOnUse"><stop stop-color="#FFEDBA"/><stop offset="1" stop-color="#EE4D47"/></linearGradient><linearGradient id="paint1_linear" x1="1256.85" y1="-204.706" x2="1256.85" y2="914.082" gradientUnits="userSpaceOnUse"><stop stop-color="#F4A984"/><stop offset="1" stop-color="#F4A984" stop-opacity="0"/></linearGradient><linearGradient id="paint2_linear" x1="1308.95" y1="463.691" x2="1308.95" y2="747.189" gradientUnits="userSpaceOnUse"><stop offset=".241" stop-color="#2CA77F"/><stop offset="1" stop-color="#1B8877"/></linearGradient><linearGradient id="paint3_linear" x1="1308.95" y1="463.691" x2="1308.95" y2="747.189" gradientUnits="userSpaceOnUse"><stop offset=".241" stop-color="#2CA77F"/><stop offset="1" stop-color="#1B8877"/></linearGradient><linearGradient id="paint4_linear" x1="1308.95" y1="463.691" x2="1308.95" y2="747.189" gradientUnits="userSpaceOnUse"><stop offset=".241" stop-color="#2CA77F"/><stop offset="1" stop-color="#1B8877"/></linearGradient><linearGradient id="paint5_linear" x1="1315.84" y1="475.005" x2="1315.84" y2="732.549" gradientUnits="userSpaceOnUse"><stop stop-color="#fff"/><stop offset="1" stop-color="#fff" stop-opacity="0"/></linearGradient><linearGradient id="paint6_linear" x1="1426.82" y1="544.881" x2="1426.82" y2="741.2" gradientUnits="userSpaceOnUse"><stop offset=".422" stop-color="#2CA77F"/><stop offset="1" stop-color="#1B8877"/></linearGradient><linearGradient id="paint7_linear" x1="1426.82" y1="544.881" x2="1426.82" y2="741.2" gradientUnits="userSpaceOnUse"><stop offset=".422" stop-color="#2CA77F"/><stop offset="1" stop-color="#1B8877"/></linearGradient><linearGradient id="paint8_linear" x1="1425.84" y1="574.828" x2="1425.84" y2="735.211" gradientUnits="userSpaceOnUse"><stop stop-color="#fff"/><stop offset="1" stop-color="#fff" stop-opacity="0"/></linearGradient><linearGradient id="paint9_linear" x1="1120.48" y1="492.973" x2="1120.48" y2="789.235" gradientUnits="userSpaceOnUse"><stop offset=".422" stop-color="#2CA77F"/><stop offset="1" stop-color="#1B8877"/></linearGradient><linearGradient id="paint10_linear" x1="1120.48" y1="492.973" x2="1120.48" y2="789.235" gradientUnits="userSpaceOnUse"><stop offset=".422" stop-color="#2CA77F"/><stop offset="1" stop-color="#1B8877"/></linearGradient><linearGradient id="paint11_linear" x1="1112.27" y1="552.196" x2="1112.27" y2="762.33" gradientUnits="userSpaceOnUse"><stop stop-color="#fff"/><stop offset="1" stop-color="#fff" stop-opacity="0"/></linearGradient><linearGradient id="paint12_linear" x1="1294.16" y1="548.257" x2="1294.16" y2="608.067" gradientUnits="userSpaceOnUse"><stop stop-color="#D3D86C"/><stop offset="1" stop-color="#82A637"/></linearGradient><linearGradient id="paint13_linear" x1="1200.59" y1="419.421" x2="1200.59" y2="528.909" gradientUnits="userSpaceOnUse"><stop stop-color="#D3D86C"/><stop offset="1" stop-color="#82A637"/></linearGradient><linearGradient id="paint14_linear" x1="1461.88" y1="672.493" x2="1461.88" y2="690.845" gradientUnits="userSpaceOnUse"><stop stop-color="#D3D86C"/><stop offset="1" stop-color="#82A637"/></linearGradient><linearGradient id="paint15_linear" x1="1021.78" y1="586.141" x2="1021.78" y2="736.279" gradientUnits="userSpaceOnUse"><stop stop-color="#D3D86C"/><stop offset="1" stop-color="#82A637"/></linearGradient><linearGradient id="paint16_linear" x1="1021.84" y1="623.006" x2="1021.84" y2="736.279" gradientUnits="userSpaceOnUse"><stop stop-color="#084F15" stop-opacity="0"/><stop offset="1" stop-color="#084F15"/></linearGradient><linearGradient id="paint17_linear" x1="996.702" y1="629.479" x2="996.702" y2="736.395" gradientUnits="userSpaceOnUse"><stop stop-color="#084F15" stop-opacity="0"/><stop offset="1" stop-color="#084F15"/></linearGradient><linearGradient id="paint18_linear" x1="973.787" y1="649.012" x2="973.787" y2="736.279" gradientUnits="userSpaceOnUse"><stop stop-color="#084F15" stop-opacity="0"/><stop offset="1" stop-color="#084F15"/></linearGradient><linearGradient id="paint19_linear" x1="953.494" y1="678.14" x2="953.494" y2="736.395" gradientUnits="userSpaceOnUse"><stop stop-color="#084F15" stop-opacity="0"/><stop offset="1" stop-color="#084F15"/></linearGradient><linearGradient id="paint20_linear" x1="932.972" y1="711.891" x2="932.972" y2="736.279" gradientUnits="userSpaceOnUse"><stop stop-color="#084F15" stop-opacity="0"/><stop offset="1" stop-color="#084F15"/></linearGradient><linearGradient id="paint21_linear" x1="1046.87" y1="629.479" x2="1046.87" y2="736.395" gradientUnits="userSpaceOnUse"><stop stop-color="#084F15" stop-opacity="0"/><stop offset="1" stop-color="#084F15"/></linearGradient><linearGradient id="paint22_linear" x1="1069.84" y1="649.128" x2="1069.84" y2="736.394" gradientUnits="userSpaceOnUse"><stop stop-color="#084F15" stop-opacity="0"/><stop offset="1" stop-color="#084F15"/></linearGradient><linearGradient id="paint23_linear" x1="1090.07" y1="678.14" x2="1090.07" y2="736.395" gradientUnits="userSpaceOnUse"><stop stop-color="#084F15" stop-opacity="0"/><stop offset="1" stop-color="#084F15"/></linearGradient><linearGradient id="paint24_linear" x1="1145.2" y1="640.852" x2="1145.2" y2="736.395" gradientUnits="userSpaceOnUse"><stop stop-color="#D3D86C"/><stop offset="1" stop-color="#82A637"/></linearGradient><linearGradient id="paint25_linear" x1="1145.31" y1="664.385" x2="1145.31" y2="736.395" gradientUnits="userSpaceOnUse"><stop stop-color="#084F15" stop-opacity="0"/><stop offset="1" stop-color="#084F15"/></linearGradient><linearGradient id="paint26_linear" x1="1129.46" y1="668.315" x2="1129.46" y2="736.279" gradientUnits="userSpaceOnUse"><stop stop-color="#084F15" stop-opacity="0"/><stop offset="1" stop-color="#084F15"/></linearGradient><linearGradient id="paint27_linear" x1="1114.87" y1="680.914" x2="1114.87" y2="736.394" gradientUnits="userSpaceOnUse"><stop stop-color="#084F15" stop-opacity="0"/><stop offset="1" stop-color="#084F15"/></linearGradient><linearGradient id="paint28_linear" x1="1101.93" y1="699.292" x2="1101.93" y2="736.279" gradientUnits="userSpaceOnUse"><stop stop-color="#084F15" stop-opacity="0"/><stop offset="1" stop-color="#084F15"/></linearGradient><linearGradient id="paint29_linear" x1="1088.93" y1="720.906" x2="1088.93" y2="736.395" gradientUnits="userSpaceOnUse"><stop stop-color="#084F15" stop-opacity="0"/><stop offset="1" stop-color="#084F15"/></linearGradient><linearGradient id="paint30_linear" x1="1161.27" y1="668.546" x2="1161.27" y2="736.395" gradientUnits="userSpaceOnUse"><stop stop-color="#084F15" stop-opacity="0"/><stop offset="1" stop-color="#084F15"/></linearGradient><linearGradient id="paint31_linear" x1="1175.87" y1="680.914" x2="1175.87" y2="736.394" gradientUnits="userSpaceOnUse"><stop stop-color="#084F15" stop-opacity="0"/><stop offset="1" stop-color="#084F15"/></linearGradient><linearGradient id="paint32_linear" x1="1188.8" y1="699.407" x2="1188.8" y2="736.395" gradientUnits="userSpaceOnUse"><stop stop-color="#084F15" stop-opacity="0"/><stop offset="1" stop-color="#084F15"/></linearGradient><linearGradient id="paint33_linear" x1="1201.8" y1="720.906" x2="1201.8" y2="736.395" gradientUnits="userSpaceOnUse"><stop stop-color="#084F15" stop-opacity="0"/><stop offset="1" stop-color="#084F15"/></linearGradient><linearGradient id="paint34_linear" x1="482.769" y1="443.415" x2="482.769" y2="920.716" gradientUnits="userSpaceOnUse"><stop offset=".278" stop-color="#EEEF99"/><stop offset=".77" stop-color="#B9D079"/></linearGradient><linearGradient id="paint35_linear" x1="798.037" y1="733.438" x2="798.037" y2="948.572" gradientUnits="userSpaceOnUse"><stop stop-color="#fff"/><stop offset="1" stop-color="#fff" stop-opacity="0"/></linearGradient><linearGradient id="paint36_linear" x1="1700.27" y1="742.323" x2="1700.27" y2="917.12" gradientUnits="userSpaceOnUse"><stop stop-color="#fff"/><stop offset="1" stop-color="#fff" stop-opacity="0"/></linearGradient><linearGradient id="paint37_linear" x1="960" y1="669.255" x2="960" y2="882.232" gradientUnits="userSpaceOnUse"><stop offset=".164" stop-color="#82A637"/><stop offset=".891" stop-color="#1B8877"/></linearGradient><linearGradient id="paint38_linear" x1="497.641" y1="-45.565" x2="239.768" y2="202.894" gradientUnits="userSpaceOnUse"><stop stop-color="#fff"/><stop offset="1" stop-color="#fff" stop-opacity="0"/></linearGradient><linearGradient id="paint39_linear" x1="296.848" y1="332.843" x2="296.848" y2="499.236" gradientUnits="userSpaceOnUse"><stop stop-color="#D3D86C"/><stop offset="1" stop-color="#82A637"/></linearGradient><linearGradient id="paint40_linear" x1="327" y1="665.388" x2="327" y2="822.532" gradientUnits="userSpaceOnUse"><stop stop-color="#D3D86C"/><stop offset="1" stop-color="#82A637"/></linearGradient><linearGradient id="paint41_linear" x1="420.075" y1="703.698" x2="420.075" y2="978.832" gradientUnits="userSpaceOnUse"><stop stop-color="#084F15" stop-opacity="0"/><stop offset="1" stop-color="#084F15"/></linearGradient><linearGradient id="paint42_linear" x1="242.095" y1="657.604" x2="242.095" y2="794.359" gradientUnits="userSpaceOnUse"><stop offset=".422" stop-color="#2CA77F"/><stop offset="1" stop-color="#1B8877"/></linearGradient><linearGradient id="paint43_linear" x1="1670.95" y1="-3.7" x2="1427.75" y2="254.234" gradientUnits="userSpaceOnUse"><stop stop-color="#fff"/><stop offset="1" stop-color="#fff" stop-opacity="0"/></linearGradient><linearGradient id="paint44_linear" x1="946.452" y1="396.82" x2="946.568" y2="657.704" gradientUnits="userSpaceOnUse"><stop stop-color="#fff"/><stop offset="1" stop-color="#fff" stop-opacity="0"/></linearGradient><linearGradient id="paint45_linear" x1="1460.21" y1="630.362" x2="1454.73" y2="574.675" gradientUnits="userSpaceOnUse"><stop stop-color="#FFB3B6"/><stop offset="1" stop-color="#FFC8C1"/></linearGradient><linearGradient id="paint46_linear" x1="1465.72" y1="593.591" x2="1465.72" y2="897.464" gradientUnits="userSpaceOnUse"><stop stop-color="#F4A984"/><stop offset="1" stop-color="#EE4D47"/></linearGradient><linearGradient id="paint47_linear" x1="1491.22" y1="536.628" x2="1491.44" y2="472.194" gradientUnits="userSpaceOnUse"><stop stop-color="#FFB3B6"/><stop offset="1" stop-color="#FFC8C1"/></linearGradient><linearGradient id="paint48_linear" x1="1517.19" y1="504.17" x2="1510.7" y2="458.726" gradientUnits="userSpaceOnUse"><stop stop-color="#FFB3B6"/><stop offset="1" stop-color="#FFC8C1"/></linearGradient><linearGradient id="paint49_linear" x1="1521.26" y1="595.404" x2="1521.26" y2="892.053" gradientUnits="userSpaceOnUse"><stop stop-color="#F4A984"/><stop offset="1" stop-color="#EE4D47"/></linearGradient><linearGradient id="paint50_linear" x1="1515.92" y1="494.003" x2="1514.49" y2="483.198" gradientUnits="userSpaceOnUse"><stop stop-color="#FFB3B6"/><stop offset="1" stop-color="#FFC8C1"/></linearGradient><linearGradient id="paint51_linear" x1="1328.85" y1="906.517" x2="1328.85" y2="935.56" gradientUnits="userSpaceOnUse"><stop stop-color="#F4A984"/><stop offset="1" stop-color="#EE4D47"/></linearGradient><linearGradient id="paint52_linear" x1="1232.85" y1="896.059" x2="1232.85" y2="935.701" gradientUnits="userSpaceOnUse"><stop stop-color="#F4A984"/><stop offset="1" stop-color="#EE4D47"/></linearGradient><linearGradient id="paint53_linear" x1="1264.91" y1="592.221" x2="1264.91" y2="914.664" gradientUnits="userSpaceOnUse"><stop stop-color="#822626"/><stop offset=".943" stop-color="#402B2B"/></linearGradient><linearGradient id="paint54_linear" x1="1281.71" y1="492.329" x2="1281.71" y2="673.952" gradientUnits="userSpaceOnUse"><stop stop-color="#F4A984"/><stop offset="1" stop-color="#EE4D47"/></linearGradient><linearGradient id="paint55_linear" x1="1271.14" y1="526.765" x2="1290.31" y2="534.921" gradientUnits="userSpaceOnUse"><stop stop-color="#FFB3B6"/><stop offset="1" stop-color="#FFC8C1"/></linearGradient><linearGradient id="paint56_linear" x1="1270.76" y1="517.171" x2="1290.03" y2="525.224" gradientUnits="userSpaceOnUse"><stop stop-color="#FFB3B6" stop-opacity=".31"/><stop offset="1" stop-color="#FFC8C1"/></linearGradient><linearGradient id="paint57_linear" x1="1311.03" y1="512.409" x2="1306.84" y2="475.455" gradientUnits="userSpaceOnUse"><stop stop-color="#FFB3B6"/><stop offset="1" stop-color="#FFC8C1"/></linearGradient><linearGradient id="paint58_linear" x1="1278.65" y1="417.735" x2="1278.65" y2="473.328" gradientUnits="userSpaceOnUse"><stop stop-color="#F4A984"/><stop offset="1" stop-color="#EE4D47"/></linearGradient><linearGradient id="paint59_linear" x1="1277.21" y1="446.908" x2="1277.21" y2="504.703" gradientUnits="userSpaceOnUse"><stop stop-color="#F4A984"/><stop offset="1" stop-color="#EE4D47"/></linearGradient><linearGradient id="paint60_linear" x1="1251.14" y1="595.524" x2="1349.17" y2="627.768" gradientUnits="userSpaceOnUse"><stop stop-color="#FFB3B6"/><stop offset="1" stop-color="#FFC8C1"/></linearGradient><linearGradient id="paint61_linear" x1="1249.87" y1="519.014" x2="1249.87" y2="587.818" gradientUnits="userSpaceOnUse"><stop stop-color="#F4A984"/><stop offset="1" stop-color="#EE4D47"/></linearGradient><linearGradient id="paint62_linear" x1="664.385" y1="634.324" x2="664.385" y2="980.137" gradientUnits="userSpaceOnUse"><stop stop-color="#F4A984"/><stop offset="1" stop-color="#EE4D47"/></linearGradient><linearGradient id="paint63_linear" x1="559.221" y1="380.627" x2="559.221" y2="979.658" gradientUnits="userSpaceOnUse"><stop stop-color="#F4A984"/><stop offset=".561" stop-color="#EE4D47"/></linearGradient><clipPath id="clip0"><path fill="#fff" transform="translate(1398.92 632.06)" d="M0 0h126.085v113.799H0z"/></clipPath></defs></svg>