<?xml version="1.0" encoding="utf-8"?><svg viewBox="0 0 30 13" xmlns="http://www.w3.org/2000/svg" xmlns:xlink="http://www.w3.org/1999/xlink"><style>:root>svg{display:none}:root>svg:target{display:block}</style><svg fill="none" viewBox="0 0 30 13" id="arrow-right" xmlns="http://www.w3.org/2000/svg"><path d="M23.889 12.355L29.5 6.177l-1-1.1v-.073h-.066L23.888 0l-1.48 1.346 3.323 3.658H0v2h26.046l-3.637 4.005 1.48 1.346z" fill="#fff"/></svg><svg fill="none" viewBox="0 0 30 13" id="swiper-arrow-next" xmlns="http://www.w3.org/2000/svg"><path d="M23.887 12.355L29.5 6.177l-1-1.1v-.073h-.066L23.887 0l-1.48 1.346 3.323 3.658H-.001v2h26.046l-3.637 4.005 1.48 1.346z" fill="#ED4D47"/></svg><svg fill="none" viewBox="0 0 30 13" id="swiper-arrow-prev" xmlns="http://www.w3.org/2000/svg"><path d="M5.612 0L0 6.177l1 1.101v.073h.066l4.546 5.004 1.48-1.346L3.768 7.35H29.5v-2H3.454L7.09 1.346 5.611 0z" fill="#ED4D47"/></svg></svg>